<svg width="142" height="142" viewBox="0 0 142 142" fill="none" xmlns="http://www.w3.org/2000/svg">
<g clip-path="url(#clip0_3472_160472)">
<path d="M97.9561 15.0502V135.183C97.9561 137.056 97.2465 138.753 96.0982 139.986C94.9385 141.23 93.3321 142 91.5562 142H35.3998C31.865 142 29 138.948 29 135.183V15.0502C29 12.3976 30.4211 10.1004 32.4968 8.97268C33.3689 8.49928 34.3546 8.23242 35.3998 8.23242H91.5562C95.0911 8.23242 97.9561 11.2845 97.9561 15.0502Z" fill="#0C0B0B"/>
<path d="M94.7653 14.6423V135.599C94.7653 136.015 94.6857 136.412 94.5404 136.776C94.1095 137.851 93.1119 138.603 91.9464 138.603H35.0158C33.4587 138.603 32.1963 137.261 32.1963 135.599V14.6423C32.1963 13.4055 32.9014 12.3408 33.9079 11.8783C34.2477 11.7235 34.621 11.6387 35.0158 11.6387H91.9464C93.5022 11.6387 94.7653 12.9842 94.7653 14.6423Z" fill="#E7EEF5"/>
<path d="M44.7614 48.8284L44.3864 49.3653C44.3864 49.3653 44.363 49.3403 44.3278 49.3153C44.2927 49.2903 44.2458 49.2654 44.1989 49.2404C44.1404 49.2154 44.0818 49.1905 44.0115 49.178C43.9412 49.153 43.8709 49.1405 43.8006 49.1405C43.7068 49.1405 43.6131 49.1655 43.5194 49.2154C43.4256 49.2654 43.3788 49.3528 43.3788 49.4901C43.3788 49.6025 43.4139 49.7024 43.4959 49.7648C43.5662 49.8397 43.6717 49.9021 43.7771 49.9521C43.8943 50.0145 44.0115 50.0644 44.1404 50.1269C44.2693 50.1893 44.3981 50.2642 44.5036 50.3516C44.6208 50.439 44.7145 50.5514 44.7848 50.6762C44.8551 50.8011 44.902 50.9634 44.902 51.1632C44.902 51.5003 44.7965 51.775 44.5739 51.9997C44.363 52.2244 44.0583 52.3243 43.6834 52.3243C43.4608 52.3243 43.2499 52.2869 43.039 52.1995C42.8281 52.1245 42.6523 51.9997 42.5234 51.8499C42.5586 51.8124 42.6055 51.75 42.6523 51.6876C42.6992 51.6251 42.7461 51.5627 42.7929 51.5003C42.8398 51.4378 42.8749 51.3879 42.9101 51.3504C42.9452 51.313 42.957 51.288 42.9687 51.288C42.9687 51.288 42.9921 51.313 43.0273 51.338C43.0741 51.3629 43.121 51.4004 43.1913 51.4378C43.2616 51.4753 43.3319 51.5003 43.4139 51.5252C43.4959 51.5502 43.578 51.5627 43.6717 51.5627C43.8123 51.5627 43.9177 51.5252 44.0232 51.4503C44.1169 51.3754 44.1638 51.288 44.1638 51.1632C44.1638 51.0508 44.1286 50.9759 44.0466 50.901C43.9646 50.8261 43.8709 50.7761 43.7654 50.7262C43.6483 50.6762 43.5311 50.6138 43.3905 50.5639C43.2499 50.5014 43.1327 50.439 43.0155 50.3391C42.8984 50.2517 42.8046 50.1394 42.7343 50.002C42.664 49.8647 42.6172 49.6899 42.6172 49.4776C42.6172 49.2779 42.6523 49.1031 42.7226 48.9657C42.7929 48.8284 42.8867 48.716 42.9921 48.6286C43.0976 48.5412 43.2265 48.4788 43.3553 48.4413C43.4959 48.4039 43.6248 48.3789 43.742 48.3789C43.906 48.3789 44.0818 48.4164 44.2692 48.4913C44.4802 48.5912 44.6325 48.691 44.7614 48.8284Z" fill="#0A549C"/>
<path d="M45.4287 50.4164C45.4287 50.1417 45.4756 49.8795 45.581 49.6423C45.6748 49.4051 45.8154 49.1928 45.9794 49.0056C46.1434 48.8183 46.3426 48.6809 46.5652 48.5686C46.7879 48.4562 47.0222 48.4062 47.28 48.4062C47.444 48.4062 47.608 48.4312 47.7486 48.4687C47.8893 48.5186 48.0064 48.5686 48.1119 48.631C48.2173 48.6934 48.2993 48.7683 48.3579 48.8432C48.4165 48.9182 48.4634 48.9806 48.4868 49.0305L48.522 48.5061H49.2133V52.2518H48.4868V51.7773C48.4634 51.8273 48.4165 51.8772 48.3462 51.9521C48.2876 52.0146 48.2056 52.077 48.1002 52.1394C48.0064 52.2018 47.8893 52.2518 47.7486 52.2892C47.608 52.3267 47.4557 52.3517 47.28 52.3517C47.0105 52.3517 46.7644 52.3017 46.5301 52.1894C46.3075 52.0895 46.1083 51.9396 45.9443 51.7648C45.7802 51.59 45.6513 51.3778 45.5576 51.1531C45.4639 50.9283 45.4287 50.6661 45.4287 50.4164ZM46.1552 50.3665C46.1552 50.5413 46.1903 50.7036 46.2489 50.8534C46.3075 51.0032 46.3895 51.1281 46.4949 51.2405C46.6004 51.3528 46.7176 51.4277 46.8582 51.5026C46.9988 51.5651 47.1511 51.6025 47.3268 51.6025C47.4909 51.6025 47.6549 51.5651 47.7955 51.5026C47.9361 51.4402 48.065 51.3528 48.1705 51.2405C48.2759 51.1281 48.3579 51.0032 48.4165 50.8534C48.4751 50.7036 48.4985 50.5413 48.4985 50.3665C48.4985 50.1917 48.4751 50.0294 48.4165 49.8795C48.3579 49.7297 48.2759 49.6049 48.1705 49.4925C48.065 49.3801 47.9478 49.3052 47.7955 49.2303C47.6549 49.1679 47.4909 49.1304 47.3268 49.1304C47.1628 49.1304 46.9988 49.1679 46.8582 49.2303C46.7176 49.2927 46.6004 49.3801 46.4949 49.4925C46.3895 49.6049 46.3192 49.7297 46.2489 49.8795C46.1786 50.0294 46.1552 50.1917 46.1552 50.3665Z" fill="#0A549C"/>
<path d="M52.1784 48.8284L51.8034 49.3653C51.8034 49.3653 51.78 49.3403 51.7448 49.3153C51.7097 49.2903 51.6628 49.2654 51.6159 49.2404C51.5574 49.2154 51.4988 49.1905 51.4285 49.178C51.3582 49.153 51.2879 49.1405 51.2176 49.1405C51.1238 49.1405 51.0301 49.1655 50.9364 49.2154C50.8426 49.2654 50.7958 49.3528 50.7958 49.4901C50.7958 49.6025 50.8309 49.7024 50.9129 49.7648C50.9832 49.8397 51.0887 49.9021 51.1941 49.9521C51.3113 50.0145 51.4285 50.0644 51.5574 50.1269C51.6862 50.1893 51.8151 50.2642 51.9206 50.3516C52.0377 50.439 52.1315 50.5514 52.2018 50.6762C52.2721 50.8011 52.319 50.9634 52.319 51.1632C52.319 51.5003 52.2135 51.775 51.9909 51.9997C51.78 52.2244 51.4753 52.3243 51.1004 52.3243C50.8778 52.3243 50.6669 52.2869 50.456 52.1995C50.2451 52.1245 50.0693 51.9997 49.9404 51.8499C49.9756 51.8124 50.0224 51.75 50.0693 51.6876C50.1162 51.6251 50.1631 51.5627 50.2099 51.5003C50.2568 51.4378 50.2919 51.3879 50.3271 51.3504C50.3622 51.313 50.374 51.288 50.3857 51.288C50.3857 51.288 50.4091 51.313 50.4443 51.338C50.4911 51.3629 50.538 51.4004 50.6083 51.4378C50.6786 51.4753 50.7489 51.5003 50.8309 51.5252C50.9129 51.5502 50.9949 51.5627 51.0887 51.5627C51.2293 51.5627 51.3347 51.5252 51.4402 51.4503C51.5339 51.3754 51.5808 51.288 51.5808 51.1632C51.5808 51.0508 51.5456 50.9759 51.4636 50.901C51.3816 50.8261 51.2879 50.7761 51.1824 50.7262C51.0652 50.6762 50.9481 50.6138 50.8075 50.5639C50.6669 50.5014 50.5497 50.439 50.4325 50.3391C50.3154 50.2517 50.2216 50.1394 50.1513 50.002C50.081 49.8647 50.0342 49.6899 50.0342 49.4776C50.0342 49.2779 50.0693 49.1031 50.1396 48.9657C50.2099 48.8284 50.3037 48.716 50.4091 48.6286C50.5146 48.5412 50.6434 48.4788 50.7723 48.4413C50.9129 48.4039 51.0418 48.3789 51.159 48.3789C51.323 48.3789 51.4988 48.4164 51.6862 48.4913C51.8854 48.5912 52.0495 48.691 52.1784 48.8284Z" fill="#0A549C"/>
<path d="M54.076 46.6621V47.9107H55.1422V48.51H54.076V50.8572C54.076 51.3941 54.2166 51.7062 54.6384 51.7062C54.8376 51.7062 54.9782 51.6813 55.0719 51.6563L55.107 52.2556C54.9664 52.318 54.7321 52.368 54.4509 52.368C54.0994 52.368 53.8299 52.2556 53.6541 52.0309C53.4432 51.7936 53.3729 51.4066 53.3729 50.8947V48.51H52.7402V47.9107H53.3729V46.8619L54.076 46.6621Z" fill="#0A549C"/>
<path d="M55.6226 50.4164C55.6226 50.1417 55.6694 49.8795 55.7749 49.6423C55.8686 49.4051 56.0092 49.1928 56.1733 49.0056C56.3373 48.8183 56.5365 48.6809 56.7591 48.5686C56.9817 48.4562 57.2161 48.4062 57.4738 48.4062C57.6379 48.4062 57.8019 48.4312 57.9425 48.4687C58.0831 48.5186 58.2003 48.5686 58.3057 48.631C58.4112 48.6934 58.4932 48.7683 58.5518 48.8432C58.6104 48.9182 58.6572 48.9806 58.6807 49.0305L58.7158 48.5061H59.4071V52.2518H58.6807V51.7773C58.6572 51.8273 58.6104 51.8772 58.5401 51.9521C58.4815 52.0146 58.3995 52.077 58.294 52.1394C58.2003 52.2018 58.0831 52.2518 57.9425 52.2892C57.8019 52.3267 57.6496 52.3517 57.4738 52.3517C57.2043 52.3517 56.9583 52.3017 56.7239 52.1894C56.5013 52.0895 56.3021 51.9396 56.1381 51.7648C55.9741 51.59 55.8452 51.3778 55.7514 51.1531C55.6577 50.9283 55.6226 50.6661 55.6226 50.4164ZM56.349 50.3665C56.349 50.5413 56.3842 50.7036 56.4427 50.8534C56.5013 51.0032 56.5833 51.1281 56.6888 51.2405C56.7942 51.3528 56.9114 51.4277 57.052 51.5026C57.1926 51.5651 57.3449 51.6025 57.5207 51.6025C57.6847 51.6025 57.8488 51.5651 57.9894 51.5026C58.13 51.4402 58.2589 51.3528 58.3643 51.2405C58.4698 51.1281 58.5518 51.0032 58.6104 50.8534C58.6689 50.7036 58.6924 50.5413 58.6924 50.3665C58.6924 50.1917 58.6689 50.0294 58.6104 49.8795C58.5518 49.7297 58.4698 49.6049 58.3643 49.4925C58.2589 49.3801 58.1417 49.3052 57.9894 49.2303C57.8488 49.1679 57.6847 49.1304 57.5207 49.1304C57.3567 49.1304 57.1926 49.1679 57.052 49.2303C56.9114 49.2927 56.7942 49.3801 56.6888 49.4925C56.5833 49.6049 56.513 49.7297 56.4427 49.8795C56.3842 50.0294 56.349 50.1917 56.349 50.3665Z" fill="#0A549C"/>
<path d="M61.4109 46.6621V47.9107H62.4771V48.51H61.4109V50.8572C61.4109 51.3941 61.5515 51.7062 61.9733 51.7062C62.1725 51.7062 62.3131 51.6813 62.4069 51.6563L62.442 52.2556C62.3014 52.318 62.0671 52.368 61.7859 52.368C61.4344 52.368 61.1649 52.2556 60.9891 52.0309C60.7782 51.7936 60.7079 51.4066 60.7079 50.8947V48.51H60.0752V47.9107H60.7079V46.8619L61.4109 46.6621Z" fill="#0A549C"/>
<path d="M63.1094 47.0529C63.1094 46.9031 63.1562 46.7907 63.2617 46.6908C63.3554 46.591 63.4609 46.541 63.578 46.541C63.6952 46.541 63.7889 46.591 63.8944 46.6908C63.9881 46.7907 64.035 46.9031 64.035 47.0529C64.035 47.2027 63.9881 47.3151 63.8944 47.4025C63.8007 47.4899 63.6952 47.5399 63.578 47.5399C63.4609 47.5399 63.3554 47.4899 63.2617 47.4025C63.1562 47.3151 63.1094 47.2027 63.1094 47.0529ZM63.9178 52.2469H63.2031V48.4888H63.9178V52.2469Z" fill="#0A549C"/>
<path d="M67.2926 51.3255C67.3746 51.4254 67.4449 51.5252 67.5152 51.6126C67.5855 51.7 67.6558 51.7999 67.7261 51.8998C67.5738 52.0371 67.3863 52.137 67.1988 52.2119C66.9996 52.2869 66.7887 52.3243 66.5544 52.3243C66.2966 52.3243 66.0506 52.2744 65.8279 52.162C65.6053 52.0621 65.4061 51.9123 65.2304 51.7375C65.0663 51.5627 64.9257 51.3504 64.832 51.1132C64.7383 50.876 64.6797 50.6138 64.6797 50.3516C64.6797 50.0769 64.7266 49.8272 64.832 49.59C64.9257 49.3528 65.0663 49.1405 65.2304 48.9657C65.3944 48.7909 65.5936 48.6536 65.8279 48.5412C66.0506 48.4413 66.2966 48.3789 66.5544 48.3789C66.7887 48.3789 67.0114 48.4164 67.2105 48.4913C67.4097 48.5662 67.5972 48.6786 67.7495 48.8034L67.2808 49.3902C67.1871 49.3028 67.0699 49.2404 66.9528 49.2029C66.8239 49.153 66.695 49.1405 66.5427 49.1405C66.3786 49.1405 66.2146 49.178 66.074 49.2404C65.9334 49.3028 65.8162 49.3902 65.7108 49.5026C65.6053 49.615 65.5233 49.7398 65.4647 49.8896C65.4061 50.0395 65.3827 50.2018 65.3827 50.3766C65.3827 50.5514 65.4061 50.7137 65.4647 50.8635C65.5233 51.0133 65.6053 51.1382 65.7108 51.2506C65.8162 51.3629 65.9334 51.4503 66.074 51.5128C66.2146 51.5752 66.3669 51.6126 66.5427 51.6126C66.6833 51.6126 66.8239 51.5877 66.9528 51.5502C67.0817 51.4753 67.1988 51.4129 67.2926 51.3255Z" fill="#0A549C"/>
<path d="M70.9478 48.3909L71.3814 48.8529C71.1705 49.0651 70.9596 49.2649 70.7721 49.4647C70.5729 49.6644 70.3737 49.8642 70.1628 50.0889C70.4206 50.451 70.6666 50.8131 70.901 51.1752C71.147 51.5372 71.3931 51.8993 71.6391 52.2614H70.8072C70.6198 51.9742 70.4206 51.6996 70.2331 51.4249C70.0339 51.1502 69.8465 50.8755 69.659 50.5883L69.1669 51.0628V52.2489H68.4521V45.2695H69.1669V50.1638C69.4832 49.8642 69.7879 49.5645 70.0691 49.2774C70.3386 49.0027 70.6432 48.703 70.9478 48.3909Z" fill="#0A549C"/>
<path d="M75.0034 51.8148C74.8394 51.9771 74.6285 52.102 74.3824 52.2018C74.1363 52.3017 73.8903 52.3517 73.6442 52.3517C73.3865 52.3517 73.1404 52.3017 72.9178 52.1894C72.6952 52.0895 72.496 51.9396 72.3202 51.7648C72.1562 51.59 72.0156 51.3778 71.9218 51.1406C71.8281 50.9033 71.7695 50.6412 71.7695 50.379C71.7695 50.1043 71.8164 49.8546 71.9218 49.6173C72.0156 49.3801 72.1562 49.1679 72.3202 48.9931C72.4843 48.8183 72.6834 48.6684 72.9061 48.5686C73.1287 48.4687 73.363 48.4062 73.6208 48.4062C74.0192 48.4062 74.3707 48.5311 74.6636 48.7933C74.9565 49.043 75.1674 49.3801 75.2963 49.7921C75.1206 49.8546 74.9214 49.942 74.6988 50.0294C74.4761 50.1292 74.2418 50.2291 73.9957 50.329C73.7497 50.4289 73.5153 50.5413 73.2693 50.6412C73.0232 50.741 72.8006 50.8409 72.5897 50.9158C72.6834 51.1156 72.8241 51.2779 73.0115 51.4028C73.199 51.5276 73.3982 51.59 73.6208 51.59C73.7731 51.59 73.9254 51.5651 74.0778 51.5026C74.2301 51.4402 74.359 51.3653 74.4527 51.2654L75.0034 51.8148ZM74.3941 49.6049C74.3238 49.455 74.2184 49.3427 74.0778 49.2677C73.9372 49.1928 73.7848 49.1554 73.6325 49.1554C73.4685 49.1554 73.3162 49.1928 73.1756 49.2553C73.035 49.3177 72.9178 49.4051 72.8123 49.5175C72.7069 49.6298 72.6366 49.7547 72.5663 49.9045C72.5077 50.0543 72.4725 50.1917 72.4725 50.3415C72.4725 50.3665 72.4725 50.3914 72.4725 50.4039C72.4725 50.4164 72.4725 50.4289 72.4725 50.4289C72.6131 50.3665 72.7772 50.304 72.9529 50.2291C73.1287 50.1542 73.2927 50.0793 73.4685 50.0044C73.6325 49.9295 73.7966 49.8546 73.9606 49.7921C74.1363 49.7172 74.2769 49.6548 74.3941 49.6049Z" fill="#0A549C"/>
<path d="M76.9246 46.6621V47.9107H77.9908V48.51H76.9246V50.8572C76.9246 51.3941 77.0652 51.7062 77.487 51.7062C77.6862 51.7062 77.8268 51.6813 77.9205 51.6563L77.9557 52.2556C77.8151 52.318 77.5807 52.368 77.2995 52.368C76.948 52.368 76.6785 52.2556 76.5028 52.0309C76.2919 51.7936 76.2216 51.4066 76.2216 50.8947V48.51H75.5889V47.9107H76.2216V46.8619L76.9246 46.6621Z" fill="#0A549C"/>
<path d="M78.6592 51.7521C78.6592 51.6023 78.706 51.4899 78.8115 51.3901C78.9052 51.2902 79.0224 51.2402 79.1396 51.2402C79.2567 51.2402 79.3622 51.2902 79.4559 51.3901C79.5497 51.4899 79.6082 51.6148 79.6082 51.7521C79.6082 51.902 79.5614 52.0268 79.4559 52.1267C79.3622 52.2141 79.2567 52.264 79.1396 52.264C79.0107 52.264 78.9052 52.2141 78.8115 52.1267C78.7178 52.0268 78.6592 51.902 78.6592 51.7521Z" fill="#FAAD14"/>
<path d="M82.9932 50.9965C82.9932 51.1838 82.9581 51.3586 82.8995 51.5209C82.8409 51.6832 82.7589 51.8206 82.6417 51.9329C82.5363 52.0453 82.4074 52.1452 82.2551 52.2076C82.1028 52.27 81.9387 52.3075 81.763 52.3075C81.6692 52.3075 81.5755 52.295 81.4935 52.27C81.4115 52.2451 81.3295 52.2201 81.2592 52.1826C81.1889 52.1452 81.1303 52.1077 81.0717 52.0578C81.0248 52.0078 80.9779 51.9704 80.9545 51.9204C80.9545 51.9454 80.9545 51.9579 80.9545 51.9829C80.9545 52.0078 80.9545 52.0203 80.9545 52.0453V53.4562H80.4741V49.748H80.9428C80.9428 49.7979 80.9428 49.8603 80.9545 49.9228C80.9545 49.9977 80.9662 50.0601 80.9662 50.1101C81.0014 50.0601 81.0365 50.0102 81.0834 49.9602C81.1303 49.9103 81.1889 49.8603 81.2592 49.8229C81.3295 49.7854 81.4115 49.748 81.4935 49.723C81.5755 49.698 81.681 49.6855 81.7747 49.6855C81.9504 49.6855 82.1145 49.7105 82.2668 49.7729C82.4191 49.8354 82.548 49.9228 82.6535 50.0351C82.7589 50.1475 82.8409 50.2848 82.8995 50.4472C82.9698 50.6095 82.9932 50.7968 82.9932 50.9965ZM82.4777 50.9965C82.4777 50.8842 82.466 50.7718 82.4308 50.6719C82.3957 50.572 82.3488 50.4846 82.2902 50.4222C82.2316 50.3473 82.1496 50.2973 82.0559 50.2474C81.9622 50.2099 81.8684 50.185 81.7513 50.185C81.6341 50.185 81.5404 50.2099 81.4349 50.2474C81.3412 50.2848 81.2592 50.3473 81.1888 50.4222C81.1185 50.4971 81.0717 50.5845 81.0248 50.6719C80.9897 50.7718 80.9662 50.8717 80.9662 50.9965C80.9662 51.1089 80.9897 51.2213 81.0248 51.3211C81.06 51.421 81.1185 51.5084 81.1888 51.5833C81.2592 51.6583 81.3412 51.7082 81.4349 51.7581C81.5286 51.7956 81.6341 51.8206 81.7513 51.8206C81.8684 51.8206 81.9622 51.7956 82.0559 51.7581C82.1496 51.7207 82.2199 51.6583 82.2902 51.5833C82.3488 51.5084 82.4074 51.421 82.4308 51.3211C82.4543 51.2088 82.4777 51.1089 82.4777 50.9965Z" fill="#0A549C"/>
<path d="M85.2429 49.6769L85.5241 49.9765C85.3835 50.1139 85.2429 50.2512 85.114 50.3885C84.9851 50.5259 84.8445 50.6632 84.7039 50.8006C84.868 51.0378 85.032 51.275 85.196 51.5247C85.3601 51.7619 85.5241 52.0117 85.6881 52.2489H85.1374C85.0086 52.0616 84.8797 51.8743 84.7508 51.6995C84.6219 51.5122 84.493 51.3374 84.3641 51.1502L84.0361 51.4623V52.2489H83.5557V47.5918H84.0361V50.863C84.247 50.6632 84.4461 50.4635 84.6336 50.2762C84.8445 50.0764 85.0437 49.8891 85.2429 49.6769Z" fill="#0A549C"/>
<path d="M78.07 77.6055V69.1667H69.845L64 63.2363L58.2425 69.1667H50V77.6055L44.2075 83.5001L50 89.4842V97.9051H58.2425L64 103.835L69.845 97.9051H78.07V89.4842L83.8625 83.5001L78.07 77.6055ZM58.4525 74.6313C60.1675 74.6313 61.55 76.0467 61.55 77.8205C61.55 78.6616 61.2237 79.4682 60.6428 80.0629C60.0619 80.6576 59.274 80.9917 58.4525 80.9917C56.72 80.9917 55.3375 79.5763 55.3375 77.8205C55.3375 76.0467 56.72 74.6313 58.4525 74.6313ZM69.635 92.4584C67.92 92.4584 66.5375 91.0251 66.5375 89.2692C66.5375 88.4282 66.8639 87.6216 67.4448 87.0268C68.0257 86.4321 68.8135 86.098 69.635 86.098C71.35 86.098 72.75 87.5134 72.75 89.2692C72.75 90.1151 72.4218 90.9262 71.8377 91.5243C71.2535 92.1224 70.4612 92.4584 69.635 92.4584ZM57.875 92.5122L55.25 89.8247L70.1775 74.5417L72.8025 77.2292L57.875 92.5122Z" fill="#FAAD14"/>
<path d="M79.4322 11.5391L77.8752 13.1982C76.3155 14.8597 74.2001 15.7932 71.9942 15.7932H54.9747C52.7688 15.7932 50.6531 14.8597 49.0934 13.1982L47.5488 11.5524L79.4322 11.5391Z" fill="#0C0B0B"/>
<path d="M52.1613 13.6702H74.7898C74.8314 13.6702 74.8656 13.6341 74.8656 13.5898V12.6058C74.8656 12.5615 74.8314 12.5254 74.7898 12.5254H52.1613C52.1197 12.5254 52.0854 12.5615 52.0854 12.6058V13.5898C52.0854 13.6341 52.1197 13.6702 52.1613 13.6702Z" fill="#453F3F"/>
<ellipse cx="98.5449" cy="16.4637" rx="15.4546" ry="16.4637" fill="#0A549C"/>
<path d="M105.148 15.5231H103.62C103.533 15.5231 103.45 15.5633 103.392 15.6336L99.2622 20.7042V9.38734C99.2622 9.29891 99.1943 9.22656 99.1113 9.22656H97.9794C97.8964 9.22656 97.8284 9.29891 97.8284 9.38734V20.7042L93.6988 15.6336C93.6422 15.5633 93.5592 15.5231 93.4705 15.5231H91.9424C91.8141 15.5231 91.7443 15.6858 91.8292 15.7883L98.0907 23.4756C98.1473 23.5451 98.2172 23.6009 98.2958 23.6392C98.3745 23.6774 98.4599 23.6972 98.5463 23.6972C98.6327 23.6972 98.7181 23.6774 98.7967 23.6392C98.8753 23.6009 98.9453 23.5451 99.0019 23.4756L105.261 15.7883C105.346 15.6838 105.277 15.5231 105.148 15.5231Z" fill="white"/>
</g>
<defs>
<clipPath id="clip0_3472_160472">
<rect width="142" height="142" fill="white"/>
</clipPath>
</defs>
</svg>
