<svg width="191" height="172" viewBox="0 0 191 172" fill="none" xmlns="http://www.w3.org/2000/svg">
<path d="M190.5 167.902C190.5 170.142 147.967 171.957 95.5 171.957C43.033 171.957 0.5 170.142 0.5 167.902C0.5 165.663 43.033 163.848 95.5 163.848C147.967 163.848 190.5 165.663 190.5 167.902Z" fill="#C7CAD8"/>
<path d="M117.724 8.54594V159.13C117.724 161.479 116.776 163.606 115.243 165.151C113.695 166.71 111.55 167.676 109.178 167.676H34.1905C29.4702 167.676 25.6445 163.85 25.6445 159.13V8.54594C25.6445 5.22095 27.5422 2.34154 30.314 0.927903C31.4785 0.334502 32.7948 0 34.1905 0H109.178C113.898 0 117.724 3.82568 117.724 8.54594Z" fill="#0C0B0B"/>
<path d="M113.461 8.03064V159.648C113.461 160.17 113.354 160.667 113.16 161.123C112.585 162.47 111.253 163.414 109.697 163.414H33.6752C31.5959 163.414 29.9102 161.731 29.9102 159.648V8.03064C29.9102 6.48029 30.8517 5.14568 32.1957 4.56596C32.6494 4.372 33.148 4.26562 33.6752 4.26562H109.697C111.774 4.26562 113.461 5.95226 113.461 8.03064Z" fill="#C7CAD8"/>
<path d="M29.9103 8.03021V15.0907H113.461V8.03021C113.461 5.95226 111.774 4.26562 109.696 4.26562H33.6749C33.1481 4.26562 32.6491 4.37157 32.1954 4.56596C30.8519 5.14568 29.9103 6.48029 29.9103 8.03021Z" fill="white"/>
<path d="M92.985 4.15222L90.9057 6.23189C88.8231 8.31454 85.9984 9.48468 83.0527 9.48468H60.3259C57.3803 9.48468 54.5551 8.31454 52.4725 6.23189L50.4099 4.16888L92.985 4.15222Z" fill="#0C0B0B"/>
<path d="M56.5759 6.81781H86.7925C86.8481 6.81781 86.8938 6.77253 86.8938 6.717V5.48363C86.8938 5.4281 86.8481 5.38281 86.7925 5.38281H56.5759C56.5203 5.38281 56.4746 5.4281 56.4746 5.48363V6.717C56.4746 6.77253 56.5203 6.81781 56.5759 6.81781Z" fill="#453F3F"/>
<path d="M69.7446 74.3793C70.3154 75.0419 70.9403 75.6659 71.6123 76.3807C72.3803 75.5836 73.0189 74.8542 73.7294 74.2113C73.9986 73.9662 74.4306 73.7793 74.7948 73.7699C76.5854 73.727 78.3803 73.7553 80.176 73.751C82.1388 73.7467 83.4014 72.623 83.4349 70.6833C83.488 67.3233 83.4923 63.9633 83.4349 60.6033C83.4014 58.7022 82.1388 57.5742 80.2334 57.5742C74.4923 57.5742 68.7571 57.5699 63.016 57.5742C61.1148 57.5742 59.8677 58.7167 59.8386 60.6273C59.7854 63.9873 59.7854 67.3473 59.8386 70.7073C59.872 72.6085 61.1294 73.7407 63.0306 73.7502C64.768 73.7596 66.5054 73.7793 68.2437 73.7356C68.8806 73.7219 69.3366 73.9045 69.7446 74.3793ZM76.114 64.2556H78.9554V67.1022H76.114V64.2556ZM70.2006 64.241H73.042V67.0876H70.2006V64.241ZM67.1328 67.097H64.3103V64.2462H67.1328V67.097Z" fill="#6D99C5"/>
<path d="M56.4957 57.4829H55.1946C54.5706 57.4829 54.0666 57.9869 54.0666 58.6109V59.1921H53.2934C53.0294 59.1921 52.7749 59.2307 52.5349 59.2975C52.4586 59.3164 52.3866 59.3404 52.3094 59.3695C51.2534 59.7681 50.5 60.7855 50.5 61.9804V70.0204C50.5 70.9898 50.9946 71.8444 51.7429 72.3441C52.0643 72.6269 52.4243 72.7907 52.7989 72.8095C53.2163 72.8335 53.6389 72.8284 54.0614 72.8189V73.4378C54.0614 74.0618 54.5654 74.5658 55.1894 74.5658H56.4906C57.1146 74.5658 57.6186 74.0618 57.6186 73.4378V58.6007C57.6186 57.9767 57.1146 57.4727 56.4906 57.4727L56.4957 57.4829Z" fill="#3B76B0"/>
<path d="M60.0481 52.1657C62.4241 48.2683 66.7106 45.6669 71.6109 45.6669C76.5112 45.6669 80.8029 48.2734 83.1789 52.176C83.3658 52.488 83.7695 52.5986 84.0866 52.4211L84.1106 52.4066C84.2932 52.3011 84.4801 52.1957 84.6626 52.0894C85.1238 51.8306 85.2481 51.7869 85.4255 52.08C85.9295 53.0931 86.3375 54.1294 86.6306 55.2094C86.7318 55.5891 87.0772 55.8574 87.4706 55.8574C88.0415 55.8574 88.4546 55.3149 88.3106 54.768C87.6866 52.3826 86.6015 50.1986 84.9558 48.2786C83.1746 46.104 80.8466 44.328 78.0969 43.224H78.0824C76.6278 42.6283 75.0729 42.2494 73.4212 42.0866C72.8452 42.0291 72.2598 42 71.6641 42H71.5878C70.9921 42 70.4024 42.0291 69.8306 42.0866C68.1746 42.2494 66.6241 42.6291 65.1652 43.2146H65.1506C62.3949 44.3237 60.0678 46.0997 58.2918 48.2734C56.6452 50.1934 55.5609 52.3774 54.9361 54.7629C54.7921 55.3149 55.2052 55.8523 55.7761 55.8523C56.1695 55.8523 56.5106 55.5883 56.6161 55.2043C56.9084 54.1243 57.3172 53.088 57.8212 52.0749C58.0038 51.7826 58.1289 51.8254 58.5841 52.0843C58.7666 52.1897 58.9535 52.2951 59.1361 52.4014H59.1404C59.4575 52.584 59.8604 52.4734 60.0481 52.1614V52.1657Z" fill="#3B76B0"/>
<path d="M90.9314 59.3709C90.8594 59.3417 90.7831 59.3177 90.706 59.2989C90.466 59.2312 90.2114 59.1935 89.9474 59.1935H89.1743V58.6123C89.1743 57.9883 88.6703 57.4843 88.0463 57.4843H86.7451C86.1211 57.4843 85.6171 57.9883 85.6171 58.6123V73.4495C85.6171 74.0735 86.1211 74.5775 86.7451 74.5775H88.0463C88.6703 74.5775 89.1743 74.0735 89.1743 73.4495V72.8306C89.5968 72.84 90.0143 72.84 90.4368 72.8212C90.8114 72.8023 91.1757 72.6343 91.4928 72.3557C92.2411 71.8569 92.7357 71.0023 92.7357 70.032V61.992C92.7357 60.7963 91.9823 59.7789 90.9263 59.3812L90.9314 59.3709Z" fill="#3B76B0"/>
<path d="M87.8682 75.6426C87.5562 75.6426 87.2725 75.8346 87.1628 76.132C86.3613 78.2586 84.4413 79.8083 82.0748 80.0294C80.7599 80.1494 79.4253 80.0826 78.1002 80.1254C77.7736 80.1349 77.6013 80.0629 77.4573 79.7414C77.0682 78.8629 76.3962 78.2243 75.4268 78.1617C74.0922 78.0751 72.7439 78.0606 71.4093 78.1617C70.0362 78.2629 69.0188 79.5871 69.0959 80.9843C69.1722 82.4483 70.2771 83.6046 71.6785 83.6389C72.7679 83.668 73.8582 83.6723 74.9476 83.6346C76.1091 83.5917 77.0116 83.0774 77.4728 81.9597C77.5928 81.6717 77.7608 81.5946 78.0436 81.6049C78.7062 81.6194 79.3688 81.6091 80.0356 81.6049H81.0771C84.0291 81.5903 86.357 80.434 87.9462 77.8943C88.1956 77.5009 88.4022 77.0929 88.5651 76.6703C88.7622 76.1757 88.3919 75.6434 87.8596 75.6434L87.8682 75.6426Z" fill="#3B76B0"/>
<path d="M113.461 132.472V159.649C113.461 160.171 113.354 160.669 113.16 161.124C112.585 162.472 111.253 163.415 109.697 163.415H33.6752C31.5959 163.415 29.9102 161.732 29.9102 159.649V132.452C30.187 129.35 32.7934 126.92 35.9676 126.92H107.402C110.583 126.92 113.193 129.36 113.461 132.472Z" fill="white"/>
<path d="M101.799 142.986H42.4698C40.7607 142.986 39.375 142.618 39.375 142.163V140.156C39.375 139.701 40.7607 139.332 42.4698 139.332H101.799C103.508 139.332 104.894 139.701 104.894 140.156V142.163C104.894 142.618 103.508 142.986 101.799 142.986Z" fill="#D9D9D9"/>
<path d="M102.072 152.123H42.7424C41.0333 152.123 39.6476 151.754 39.6476 151.299V149.292C39.6476 148.837 41.0333 148.469 42.7424 148.469H102.072C103.781 148.469 105.167 148.837 105.167 149.292V151.299C105.167 151.754 103.781 152.123 102.072 152.123Z" fill="#D9D9D9"/>
<path d="M91.872 131.403H52.6176C52.1173 131.403 51.7119 130.998 51.7119 130.498C51.7119 129.998 52.1173 129.592 52.6176 129.592H91.872C92.3722 129.592 92.7781 129.998 92.7781 130.498C92.7781 130.998 92.3722 131.403 91.872 131.403Z" fill="#D9D9D9"/>
<path d="M143.443 33.502C143.443 33.502 147.156 35.9682 149.833 42.9521C152.511 49.936 153.206 60.8276 156.132 62.0015C159.058 63.1754 170.813 65.1907 171.016 69.3772C171.22 73.5637 160.551 72.9453 154.355 70.4789C148.158 68.0125 146.175 49.0047 146.175 49.0047L143.443 33.502Z" fill="#3B76B0"/>
<path d="M176.232 63.5203C176.232 63.5203 172.571 70.571 168.21 71.7162C167.551 71.889 166.861 71.5681 166.55 70.9621L165.263 68.4556C165.263 68.4556 171.276 62.8309 176.232 63.5203Z" fill="#F3AE92"/>
<path d="M164.639 70.6017L164.946 70.8881C165.107 71.0379 165.345 71.0679 165.538 70.9628C167.327 69.988 176.015 65.2465 177.538 64.2608C177.68 64.1691 177.766 64.0137 177.769 63.8455L177.893 58.3017C177.896 58.1679 177.846 58.0382 177.754 57.9405L177.339 57.4997L177.146 63.4617L164.639 70.6017Z" fill="#453F3F"/>
<path d="M164.626 70.5186L164.582 64.9942C164.58 64.7781 164.796 64.479 165.063 64.3259L176.921 57.5465C177.189 57.3938 177.407 57.4453 177.408 57.6615L177.452 63.1855C177.454 63.4016 177.238 63.7011 176.971 63.8538L165.113 70.6332C164.845 70.7859 164.627 70.7348 164.626 70.5186Z" fill="#0C0B0B"/>
<path d="M166.951 68.429L166.919 64.412C166.918 64.1959 167.133 63.8965 167.401 63.7437L176.194 58.7165C176.461 58.5633 176.679 58.6149 176.681 58.8311L176.713 62.8485C176.714 63.0646 176.499 63.364 176.232 63.5168L167.438 68.544C167.171 68.6967 166.953 68.6451 166.951 68.429Z" fill="#453F3F"/>
<path d="M165.753 67.7033C165.341 67.9394 165.004 67.8598 165.001 67.5264C164.999 67.1925 165.332 66.7311 165.744 66.495C166.157 66.2589 166.493 66.3385 166.496 66.6719C166.499 67.0054 166.166 67.4672 165.753 67.7033Z" fill="#453F3F"/>
<path d="M167.182 63.2417C167.182 63.2417 166.774 61.0343 168.298 60.351C169.821 59.6676 172.553 60.0418 172.553 60.0418C173.401 61.105 171.423 61.6368 168.984 62.0819L167.182 63.2417Z" fill="#F3AE92"/>
<path d="M170.549 68.2173C170.549 68.2173 171.758 69.1464 172.383 68.4852C173.007 67.824 172.656 65.7052 172.482 64.97C172.308 64.2349 171.565 65.8238 171.551 66.6141C171.542 67.0802 171.342 67.7794 171.342 67.7794L170.549 68.2173Z" fill="#F3AE92"/>
<path d="M172.815 66.7516C172.815 66.7516 174.101 67.6749 174.842 66.8899C175.584 66.1049 175.166 63.5902 174.96 62.7173C174.754 61.8448 173.805 63.7321 173.855 64.6686C173.905 65.6056 173.513 65.9255 173.513 65.9255L172.815 66.7516Z" fill="#F3AE92"/>
<path d="M174.028 66.0447C174.028 66.0447 175.164 66.8599 175.819 66.1666C176.473 65.4733 176.105 63.252 175.922 62.4811C175.74 61.7101 174.903 63.3776 174.947 64.2049C174.99 65.0323 174.644 65.3147 174.644 65.3147L174.028 66.0447Z" fill="#F3AE92"/>
<path d="M171.505 67.9079C171.505 67.9079 172.791 68.8313 173.532 68.0463C174.273 67.2613 173.856 64.7466 173.65 63.8737C173.444 63.0007 172.495 64.8888 172.545 65.8254C172.594 66.7619 172.202 67.0819 172.202 67.0819L171.505 67.9079Z" fill="#F3AE92"/>
<path d="M152.617 63.6102C152.551 63.6144 152.485 63.5903 152.437 63.5389C152.351 63.4477 152.356 63.3038 152.447 63.2187C153.537 62.1995 155.005 61.4895 155.067 61.4599C155.18 61.4058 155.315 61.4533 155.369 61.566C155.423 61.6787 155.375 61.8139 155.263 61.8681C155.248 61.8751 153.794 62.5789 152.756 63.5495C152.717 63.5865 152.667 63.6071 152.617 63.6102Z" fill="#0A549C"/>
<path d="M154.771 62.1043C154.747 62.1059 154.723 62.1038 154.699 62.0977C153.615 61.8181 152.795 61.8759 152.797 61.8715C152.796 61.8715 152.796 61.8716 152.796 61.8716C152.671 61.8798 152.564 61.7863 152.555 61.6618C152.546 61.5374 152.64 61.4289 152.764 61.4198C152.803 61.4184 153.655 61.3605 154.812 61.659C154.934 61.6904 155.006 61.8138 154.975 61.935C154.95 62.0322 154.866 62.0981 154.771 62.1043Z" fill="#0A549C"/>
<path d="M124.254 147.973L121.775 150.041L124.62 154.553L127.1 152.484L124.254 147.973Z" fill="#FFC2A9"/>
<path d="M124.316 169.864L113.954 153.437C114.099 153.175 114.372 152.91 114.731 152.646C116.055 151.667 118.552 150.71 120.087 150.046C120.267 149.969 120.434 149.895 120.583 149.826C120.836 149.709 121.042 149.605 121.185 149.515C122.326 148.795 122.768 149.929 122.768 149.929C122.186 152.619 125.818 152.959 125.709 154.564C125.709 154.564 125.668 155.251 125.318 157.296C124.967 159.339 125.592 162.047 125.992 164.433C126.511 167.513 125.929 168.847 125.313 169.424C124.825 169.881 124.316 169.864 124.316 169.864Z" fill="#3B76B0"/>
<path d="M124.316 169.865L113.954 153.438C114.099 153.176 114.372 152.91 114.731 152.646L125.313 169.425C124.825 169.882 124.316 169.865 124.316 169.865Z" fill="#0A549C"/>
<path d="M125.166 155.249C125.166 155.249 126.068 155.091 126.251 155.886C126.434 156.682 125.317 157.295 125.317 157.295C125.317 157.295 124.092 157.521 125.166 155.249Z" fill="white"/>
<path d="M121.809 157.079C121.715 156.929 121.76 156.732 121.909 156.638C123.541 155.608 125.068 156.072 125.132 156.092C125.301 156.145 125.394 156.325 125.341 156.494C125.288 156.662 125.109 156.755 124.94 156.703C124.885 156.686 123.622 156.315 122.251 157.179C122.102 157.273 121.904 157.228 121.809 157.079Z" fill="white"/>
<path d="M126.09 159.153C126.05 159.089 126.031 159.011 126.045 158.931C126.133 158.395 125.553 157.349 125.167 156.816C125.064 156.673 125.095 156.473 125.238 156.37C125.381 156.266 125.581 156.298 125.685 156.441C125.804 156.604 126.836 158.063 126.676 159.034C126.648 159.209 126.483 159.327 126.309 159.299C126.215 159.283 126.137 159.228 126.09 159.153Z" fill="white"/>
<path d="M124.374 156.084C124.182 155.779 123.932 155.334 123.648 154.711C123.223 153.777 123.211 152.88 123.615 152.369C123.858 152.064 124.222 151.934 124.617 152.013C124.993 152.088 125.295 152.296 125.515 152.633C125.519 152.64 125.524 152.647 125.529 152.654C126.244 153.789 125.783 156.001 125.727 156.251L125.27 156.149C125.277 156.158 125.282 156.163 125.282 156.163L124.78 156.642C124.769 156.63 124.618 156.471 124.374 156.084ZM124.943 153.025C124.94 153.021 124.937 153.016 124.934 153.011C124.817 152.832 124.673 152.731 124.481 152.693C124.342 152.665 124.239 152.699 124.159 152.8C123.964 153.046 123.925 153.644 124.28 154.423C124.626 155.184 124.912 155.652 125.088 155.908C125.22 155.192 125.376 153.713 124.943 153.025Z" fill="white"/>
<path d="M125.321 156.931L125.693 156.345C126.289 156.724 127.289 156.816 127.674 156.527C127.767 156.456 127.863 156.338 127.775 156.037C127.714 155.828 127.616 155.768 127.537 155.739C127.14 155.594 126.342 155.972 125.934 156.245L125.548 155.669C125.686 155.576 126.919 154.776 127.773 155.087C128.002 155.17 128.303 155.368 128.441 155.843C128.645 156.539 128.309 156.917 128.091 157.081C127.407 157.595 126.082 157.414 125.321 156.931Z" fill="white"/>
<path d="M115.011 155.109L114.703 154.621C115.567 154.757 116.708 154.675 117.891 153.845C119.464 152.742 119.944 151.078 120.087 150.042C120.267 149.965 120.433 149.891 120.583 149.822C120.485 150.903 120.04 152.902 118.157 154.224C117.027 155.016 115.917 155.182 115.011 155.109Z" fill="#0A549C"/>
<path d="M124.172 157.63C124.095 157.508 124.109 157.345 124.213 157.237C124.335 157.11 124.538 157.105 124.665 157.228L125.567 158.093C125.695 158.216 125.699 158.419 125.576 158.546C125.454 158.674 125.252 158.677 125.124 158.555L124.222 157.69C124.203 157.671 124.186 157.651 124.172 157.63Z" fill="white"/>
<path d="M124.223 159.026C124.147 158.904 124.159 158.742 124.263 158.634C124.385 158.506 124.588 158.502 124.716 158.624L125.617 159.49C125.745 159.612 125.749 159.815 125.627 159.942C125.505 160.07 125.302 160.074 125.174 159.952L124.273 159.086C124.253 159.068 124.237 159.048 124.223 159.026Z" fill="white"/>
<path d="M124.297 160.424C124.221 160.303 124.234 160.141 124.337 160.032C124.46 159.905 124.662 159.9 124.79 160.023L125.692 160.888C125.819 161.01 125.823 161.214 125.701 161.341C125.579 161.468 125.376 161.473 125.249 161.35L124.347 160.485C124.328 160.466 124.311 160.446 124.297 160.424Z" fill="white"/>
<path d="M124.473 161.863C124.397 161.742 124.409 161.58 124.513 161.471C124.635 161.344 124.838 161.34 124.966 161.462L125.868 162.327C125.995 162.45 126 162.653 125.877 162.78C125.755 162.908 125.552 162.912 125.425 162.789L124.523 161.924C124.503 161.905 124.487 161.885 124.473 161.863Z" fill="white"/>
<path d="M124.786 163.37C124.709 163.248 124.722 163.085 124.825 162.977C124.948 162.85 125.151 162.846 125.278 162.968L126.18 163.833C126.308 163.956 126.312 164.159 126.189 164.286C126.067 164.414 125.864 164.418 125.737 164.295L124.835 163.43C124.816 163.412 124.799 163.391 124.786 163.37Z" fill="white"/>
<path d="M154.285 118.909C154.281 118.945 154.276 118.982 154.271 119.018C154.271 119.018 154.174 119.199 153.992 119.536C152.698 121.903 147.075 132.004 140.105 141.517C139.099 142.889 138.066 144.247 137.015 145.568C136.552 146.149 136.086 146.722 135.617 147.286C133.58 149.736 131.873 151.238 129.927 152.501C129.721 152.635 129.513 152.765 129.3 152.896C128.896 153.141 128.48 153.38 128.047 153.62C127.841 153.732 127.632 153.844 127.418 153.958C127.418 153.958 124.306 150.66 122.864 147.468C122.864 147.468 123.274 146.807 123.932 145.732C124.061 145.521 124.199 145.295 124.347 145.054C124.79 144.327 125.31 143.472 125.874 142.54C128.408 138.345 131.822 132.585 133.097 129.909C134.031 127.954 135.14 125.786 136.381 123.649C136.617 123.242 136.856 122.838 137.102 122.436C137.13 122.388 137.157 122.343 137.187 122.296C138.872 119.536 140.758 116.916 142.73 114.986L138.361 88.5976L138.086 86.9404L147.98 83.4903L148.545 83.2942L150.901 82.4727C150.901 82.4727 151.086 83.3395 151.373 84.8304C151.407 85.0103 151.443 85.2 151.48 85.3973C152.765 92.1704 155.631 109.096 154.285 118.909Z" fill="#262626"/>
<path d="M129.928 152.506C129.721 152.639 129.514 152.77 129.301 152.9L125.494 147.819L125.142 147.35L123.933 145.736C124.062 145.526 124.2 145.3 124.347 145.059L125.532 146.641L125.883 147.109L129.928 152.506Z" fill="#262626"/>
<path d="M154.286 118.912C154.282 118.949 154.276 118.985 154.271 119.022C154.271 119.022 154.175 119.203 153.991 119.54C151.752 119.112 150.034 117.996 149.932 117.929C149.78 117.828 149.737 117.622 149.838 117.469C149.939 117.316 150.145 117.275 150.298 117.375C150.322 117.392 152.074 118.528 154.286 118.912Z" fill="#262626"/>
<path d="M145.308 115.918C145.259 115.965 140.286 120.875 125.883 147.105C125.755 147.34 125.625 147.577 125.494 147.816L125.142 147.347C125.273 147.108 125.403 146.872 125.532 146.637C138.896 122.317 144.008 116.502 144.827 115.647C143.678 111.332 140.192 89.2429 140.042 88.2932C140.02 88.1476 140.119 88.0113 140.265 87.9878C140.41 87.9643 140.547 88.0647 140.569 88.2104C140.606 88.4449 144.287 111.762 145.381 115.653C145.409 115.748 145.381 115.851 145.308 115.918Z" fill="#262626"/>
<path d="M121.85 75.8984C121.85 75.8984 121.079 82.9504 122.67 86.8841C124.26 90.8183 145.046 88.8749 150.354 85.3603C152.532 83.9184 147.957 70.5215 147.957 70.5215L121.85 75.8984Z" fill="#262626"/>
<path d="M151.48 85.4066C151.166 85.3497 150.86 85.2699 150.562 85.1665C150.085 85.0037 149.63 84.7807 149.197 84.4996C148.748 84.2078 148.343 83.8695 147.98 83.4999C145.699 81.1806 145.037 77.6847 145.006 77.5138C144.98 77.3686 145.077 77.2306 145.221 77.2032C145.366 77.178 145.506 77.2737 145.532 77.4177C145.539 77.4596 146.227 81.0947 148.545 83.3021C148.834 83.5785 149.148 83.8327 149.49 84.0536C149.902 84.3206 150.337 84.5295 150.793 84.6807C150.982 84.7435 151.175 84.7965 151.372 84.8388C151.407 85.0195 151.443 85.2079 151.48 85.4066Z" fill="#262626"/>
<path d="M138.653 87.323C138.659 87.464 138.546 87.5844 138.4 87.5921C138.399 87.5921 138.399 87.5921 138.398 87.5921C138.251 87.599 138.126 87.4887 138.12 87.3469C138.077 86.3823 138.024 85.3941 137.965 84.4073C137.955 84.2338 137.945 84.0599 137.934 83.8865C137.736 80.6615 137.482 77.495 137.289 75.2594C137.273 75.0787 137.259 74.9031 137.243 74.7348C137.201 74.2443 137.161 73.8094 137.128 73.4407C137.305 73.4138 137.482 73.3865 137.657 73.3574C137.69 73.7257 137.729 74.1644 137.773 74.6604C137.788 74.8287 137.802 75.0043 137.818 75.185C138.009 77.401 138.261 80.5397 138.459 83.7451C138.471 83.9215 138.481 84.0997 138.492 84.2765C138.553 85.2993 138.608 86.3242 138.653 87.323Z" fill="#262626"/>
<path d="M139.426 83.924C139.343 83.9633 138.968 84.1359 138.493 84.2773C138.327 84.3273 138.149 84.3726 137.966 84.4081C137.799 84.4397 137.629 84.4632 137.46 84.4722C137.137 84.4892 136.826 84.4538 136.566 84.3282C136.243 84.1718 136.033 83.889 135.962 83.5114C135.772 82.516 135.381 78.4075 135.117 75.5016C135.1 75.323 135.085 75.1483 135.07 74.9791C135.028 74.5143 134.991 74.0913 134.959 73.7321C135.135 73.7115 135.313 73.6906 135.49 73.668C135.522 74.0294 135.559 74.4575 135.602 74.9282C135.618 75.0966 135.633 75.2709 135.649 75.4507C135.913 78.3494 136.303 82.4523 136.487 83.4169C136.529 83.6395 136.63 83.7826 136.807 83.8681C137.089 84.0039 137.512 83.9774 137.934 83.8873C138.114 83.8489 138.293 83.7989 138.46 83.7459C138.765 83.6485 139.032 83.5374 139.193 83.4622C139.325 83.3994 139.484 83.4515 139.549 83.5793C139.613 83.707 139.559 83.8612 139.426 83.924Z" fill="#262626"/>
<path d="M130.237 157.387L130.748 161.572L136.082 161.592L136.409 157.191L130.237 157.387Z" fill="#FFC2A9"/>
<path d="M137.245 84.9236L136.973 156.714L136.891 157.851L128.972 157.821C128.89 157.302 128.702 156.465 128.455 155.387C128.401 155.151 128.344 154.905 128.285 154.648C127.269 150.254 125.53 142.762 125.243 136.254C124.832 126.96 125.004 114.918 125.004 114.918C124.126 108.008 122.763 93.044 122.087 85.3841C122.07 85.2013 122.055 85.0248 122.04 84.8505C121.812 82.2779 121.673 80.6574 121.673 80.6574C122.95 80.1307 125.261 80.5054 127.718 81.2128C127.896 81.2632 128.074 81.3145 128.253 81.3696C132.62 82.6961 137.245 84.9236 137.245 84.9236Z" fill="#262626"/>
<path d="M136.981 154.683L136.978 155.421L128.455 155.389C128.401 155.154 128.344 154.907 128.285 154.65L136.981 154.683Z" fill="#262626"/>
<path d="M137.125 116.578L137.122 117.263C136.193 117.494 135.134 117.567 134.14 117.563C132.306 117.556 130.703 117.288 130.591 117.27C130.411 117.239 130.289 117.068 130.32 116.887C130.35 116.706 130.521 116.583 130.703 116.615C130.744 116.622 134.618 117.268 137.125 116.578Z" fill="#262626"/>
<path d="M129.781 155.395L129.239 155.393C129.196 155.164 129.151 154.918 129.102 154.655C128.416 150.934 127.162 143.977 126.514 139.462C125.609 133.159 126.111 115.694 126.131 115.011C125.448 109.001 124.093 88.4184 124.079 88.2108C124.069 88.063 124.18 87.9356 124.328 87.9262C124.476 87.9177 124.601 88.0279 124.611 88.1757C124.625 88.3834 125.982 108.997 126.663 114.97C126.664 114.982 126.665 114.996 126.665 115.008C126.659 115.187 126.131 133.035 127.042 139.387C127.695 143.935 128.964 150.964 129.646 154.657C129.694 154.921 129.74 155.169 129.781 155.395Z" fill="#262626"/>
<path d="M138.085 168.723C138.085 168.771 138.084 168.818 138.083 168.863C138.077 169.077 138.067 169.269 138.057 169.433C138.034 169.795 138.007 170.018 138.007 170.018L125.99 169.973C125.99 169.973 125.932 169.508 125.98 168.818C126.063 167.59 126.478 165.652 128.143 164.377C130.422 162.629 129.543 162.992 130.012 162.193C130.065 162.104 130.479 160.745 130.523 160.652C130.917 159.821 131.278 159.43 133.431 159.438C136.287 159.448 136.533 160.835 136.835 161.566C136.959 161.869 137.13 162.506 137.304 163.264C137.375 163.569 137.445 163.894 137.515 164.224C137.688 165.053 137.849 165.918 137.958 166.608C138.074 167.348 138.097 168.108 138.085 168.723Z" fill="#3B76B0"/>
<path d="M138.085 168.724C138.085 168.772 138.084 168.819 138.083 168.865C138.077 169.078 138.067 169.27 138.058 169.435C137.473 169.021 137.057 168.477 136.815 167.811C136.079 165.783 137.232 163.357 137.28 163.254L137.304 163.266C137.375 163.57 137.445 163.895 137.515 164.225C137.241 165.051 136.924 166.44 137.353 167.618C137.509 168.047 137.754 168.417 138.085 168.724Z" fill="#0A549C"/>
<path d="M138.083 168.866C138.064 169.55 138.007 170.021 138.007 170.021L125.989 169.976C125.989 169.976 125.932 169.51 125.98 168.82L138.083 168.866Z" fill="#0A549C"/>
<path d="M132.16 161.188C132.112 161.188 132.064 161.177 132.019 161.157C131.715 161.018 129.042 159.763 128.837 158.461C128.797 158.202 128.83 157.817 129.222 157.46C129.593 157.121 129.957 157.126 130.198 157.191C131.409 157.516 132.318 160.206 132.488 160.741C132.529 160.871 132.49 161.012 132.389 161.101C132.324 161.158 132.243 161.188 132.16 161.188ZM129.942 157.841C129.874 157.841 129.791 157.868 129.684 157.966C129.505 158.129 129.499 158.259 129.514 158.354C129.601 158.906 130.618 159.633 131.546 160.148C131.126 159.102 130.515 157.986 130.02 157.853C129.996 157.847 129.97 157.841 129.942 157.841Z" fill="white"/>
<path d="M132.744 161.19C132.661 161.19 132.58 161.161 132.516 161.103C132.415 161.012 132.377 160.871 132.419 160.742C132.593 160.207 133.522 157.525 134.737 157.208C134.977 157.146 135.341 157.143 135.71 157.485C136.099 157.845 136.13 158.229 136.087 158.489C135.873 159.789 133.19 161.024 132.885 161.161C132.84 161.181 132.792 161.191 132.744 161.19ZM134.987 157.861C134.959 157.861 134.933 157.866 134.909 157.872C134.413 158.001 133.794 159.112 133.366 160.155C134.298 159.646 135.321 158.927 135.411 158.377C135.427 158.282 135.422 158.152 135.245 157.988C135.138 157.889 135.055 157.862 134.987 157.861Z" fill="white"/>
<path d="M132.445 160.195C132.445 160.195 131.886 159.929 131.84 160.696C131.802 161.318 132.245 161.453 132.426 161.35C132.426 161.35 132.806 161.465 132.998 161.161C133.189 160.858 133.067 159.891 132.445 160.195Z" fill="white"/>
<path d="M129.979 162.282C129.908 162.281 129.836 162.259 129.775 162.213C129.624 162.099 129.594 161.885 129.707 161.733C130.795 160.286 132.458 160.608 132.528 160.622C132.714 160.66 132.833 160.841 132.795 161.027C132.757 161.212 132.576 161.331 132.392 161.294C132.336 161.283 131.076 161.052 130.255 162.145C130.187 162.235 130.084 162.282 129.979 162.282Z" fill="white"/>
<path d="M135.229 162.646C135.099 162.645 134.975 162.57 134.918 162.444C134.367 161.22 132.43 160.917 132.41 160.914C132.223 160.886 132.094 160.711 132.122 160.524C132.15 160.337 132.324 160.208 132.511 160.236C132.606 160.25 134.841 160.602 135.543 162.163C135.62 162.335 135.543 162.538 135.371 162.615C135.324 162.636 135.277 162.646 135.229 162.646Z" fill="white"/>
<path d="M133.813 163.189C133.784 163.189 133.755 163.186 133.727 163.178C132.2 162.776 130.953 163.107 130.941 163.11C130.758 163.16 130.569 163.052 130.52 162.869C130.47 162.687 130.578 162.498 130.76 162.449C130.818 162.433 132.198 162.067 133.901 162.515C134.084 162.563 134.194 162.751 134.145 162.934C134.105 163.088 133.965 163.189 133.813 163.189Z" fill="white"/>
<path d="M133.295 164.267C133.267 164.267 133.238 164.263 133.209 164.256C131.692 163.857 130.435 164.185 130.423 164.188C130.24 164.237 130.052 164.129 130.003 163.946C129.954 163.764 130.061 163.576 130.243 163.527C130.301 163.511 131.681 163.145 133.384 163.593C133.567 163.641 133.676 163.828 133.628 164.011C133.588 164.165 133.448 164.268 133.295 164.267Z" fill="white"/>
<path d="M132.687 165.5C132.658 165.5 132.629 165.496 132.6 165.488C131.083 165.089 129.826 165.417 129.814 165.42C129.631 165.47 129.443 165.362 129.394 165.179C129.345 164.997 129.452 164.809 129.634 164.759C129.692 164.743 131.072 164.378 132.775 164.825C132.957 164.874 133.067 165.061 133.019 165.244C132.978 165.398 132.839 165.5 132.687 165.5Z" fill="white"/>
<path d="M129.741 77.4443C129.717 77.5678 129.345 79.4591 128.253 81.3666C127.609 82.491 126.715 83.6205 125.497 84.3981C124.474 85.0513 123.331 85.3798 122.086 85.3815C122.07 85.1991 122.054 85.0218 122.039 84.8479C123.201 84.8535 124.262 84.5519 125.21 83.9486C126.298 83.254 127.115 82.2372 127.718 81.2102C128.83 79.3134 129.211 77.3747 129.216 77.3448C129.243 77.2 129.384 77.1043 129.528 77.1316C129.672 77.1598 129.768 77.2995 129.741 77.4443Z" fill="#262626"/>
<path d="M121.473 82.0761L120.799 86.0966C120.799 86.0966 128.403 87.8264 133.204 86.6148C138.006 85.4028 149.582 84.2908 151.56 84.2186L150.313 78.8613C150.313 78.8613 135.449 83.4825 121.473 82.0761Z" fill="white"/>
<path d="M137.928 31.7164C137.928 31.7164 140.776 25.9823 134.784 22.7723C130.592 20.5264 122.485 20.0877 119.991 25.183C117.671 29.9212 122.833 33.9344 122.833 33.9344C122.833 33.9344 133.91 36.3461 137.928 31.7164Z" fill="#3B76B0"/>
<path d="M128.18 25.0312C128.18 25.0312 122.987 25.7186 124.857 28.4934C125.848 29.9617 131.468 30.7824 131.468 30.7824C131.468 30.7824 132.589 25.7131 128.18 25.0312Z" fill="#0C0B0B"/>
<path d="M149.716 77.4453C149.716 77.4453 130.467 83.8287 122.195 80.5746C122.195 80.5746 119.601 79.7565 118.578 74.6654C118.545 74.4992 118.513 74.3288 118.483 74.1523C118.054 71.6343 117.999 68.1517 118.748 63.3503C119.646 57.5902 118.445 54.642 117.948 48.9016C117.93 48.6995 117.912 48.4936 117.896 48.2842C117.843 47.6631 117.794 47.0099 117.744 46.3152C117.215 38.7369 114.816 35.4892 118.599 33.2536C122.382 31.0189 127.34 29.3126 127.34 29.3126C127.34 29.3126 131.548 30.6647 134.52 29.3395C134.52 29.3395 139.028 31.5696 142.495 32.8482C145.962 34.1269 144.787 43.2974 145.861 48.5696C146.936 53.8427 148.774 58.0405 150.416 66.7868C151.917 74.7855 149.716 77.4453 149.716 77.4453Z" fill="#3B76B0"/>
<path d="M134.964 33.8647C134.861 33.8647 134.77 33.7908 134.752 33.6861C134.731 33.5686 134.809 33.4571 134.927 33.4366C136.926 33.0855 137.909 31.201 137.919 31.1822C137.973 31.0763 138.103 31.034 138.209 31.0878C138.315 31.1421 138.357 31.2724 138.303 31.3783C138.259 31.4638 137.21 33.4734 135.001 33.8613C134.989 33.8634 134.976 33.8647 134.964 33.8647Z" fill="#0A549C"/>
<path d="M128.185 44.6674L128.572 49.1066L141.284 48.1462L140.493 44.0078L128.185 44.6674Z" fill="#0A549C"/>
<path d="M150.211 66.0129C150.067 66.0125 149.946 65.901 149.936 65.7553C149.784 63.5505 148.129 57.9502 147.14 54.6042C146.948 53.9536 146.782 53.3914 146.662 52.9727C145.945 50.4658 145.142 44.5767 145.109 44.3272C145.088 44.1756 145.194 44.0367 145.346 44.0162C145.498 43.9957 145.637 44.1012 145.657 44.2529C145.665 44.3136 146.488 50.3522 147.194 52.8206C147.313 53.2367 147.479 53.7977 147.671 54.447C148.666 57.8147 150.332 63.4518 150.489 65.7173C150.499 65.8698 150.384 66.0018 150.231 66.0125C150.225 66.0129 150.218 66.0129 150.211 66.0129Z" fill="#0A549C"/>
<path d="M150.697 74.7872C150.697 74.7872 151.507 77.3056 150.342 78.9918C150.342 78.9918 133.049 84.9211 121.474 82.0801C121.474 82.0801 120.435 80.8194 120.154 78.2395C120.154 78.2395 134.075 81.7563 150.697 74.7872Z" fill="#0A549C"/>
<path d="M132.971 38.2764C136.172 38.2884 137.186 35.4226 137.196 35.3927C137.233 35.2834 137.175 35.1637 137.065 35.1266C136.955 35.089 136.836 35.1479 136.799 35.2573C136.76 35.3714 135.8 38.0538 132.651 37.8454C129.379 37.6283 125.182 35.4504 125.141 35.4286C125.038 35.3748 124.911 35.4145 124.858 35.517C124.804 35.6196 124.844 35.7465 124.946 35.8003C125.121 35.8917 129.262 38.0414 132.623 38.264C132.742 38.2721 132.858 38.276 132.971 38.2764Z" fill="#0A549C"/>
<path d="M145.693 64.1728C145.693 64.1728 148.149 69.0277 147.321 72.7991C147.321 72.7991 138.089 77.0853 127.203 74.8553C127.203 74.8553 127.454 70.126 127.043 65.8035C127.043 65.8035 138.983 64.0421 145.693 64.1728Z" fill="#0A549C"/>
<path d="M134.86 28.1708L134.533 30.0528C134.281 30.1924 134 30.2485 133.786 30.404C131.358 32.1657 128.516 29.8415 127.098 28.2105L128.207 22.2317L134.066 27.4627L134.86 28.1708Z" fill="#F3AE92"/>
<path d="M134.859 28.1779L134.532 30.0599C134.281 30.1995 134.032 30.3157 133.785 30.4111C131.194 28.8261 129.676 25.5547 129.676 25.5547L134.065 27.4697L134.859 28.1779Z" fill="#0C0B0B"/>
<path d="M127.027 17.2508C127.027 17.2508 126.126 16.0379 125.997 14.7017C125.869 13.3656 127.285 12.6042 127.285 12.6042C127.285 12.6042 126.709 11.6449 127.558 10.5176C128.495 9.2748 130.541 9.55194 130.541 9.55194C130.541 9.55194 130.168 8.42695 131.588 7.77468C133.009 7.12241 134.331 8.43108 134.331 8.43108C134.331 8.43108 134.895 7.14811 136.408 7.18408C137.92 7.22005 138.141 8.74976 138.141 8.74976C138.141 8.74976 141.436 7.60507 142.722 9.76857C144.606 12.9401 139.936 14.3244 139.936 14.3244C132.896 11.3864 127.348 17.645 127.348 17.645L127.027 17.2508Z" fill="#262626"/>
<path d="M138.519 12.7397C138.519 12.7397 143.351 15.9756 139.702 19.5623C139.702 19.5623 138.198 13.9648 138.519 12.7397Z" fill="#262626"/>
<path d="M138.66 20.2514C138.66 20.2514 139.949 19.1745 140.333 20.5423C140.718 21.91 139.81 24.3852 138.256 23.6843L138.66 20.2514Z" fill="#CD8A6E"/>
<path d="M139.032 24.8702C139.032 24.8702 138.361 28.7624 134.315 28.0504C130.295 27.344 128.102 23.709 127.985 23.5381C127.983 23.5349 127.982 23.5335 127.982 23.5335L128.08 22.7083L128.589 18.4241L128.86 16.1339C128.86 16.1339 129.057 11.9597 133.068 11.8895C135.999 11.8375 138.577 12.7706 139.662 14.4837C140.061 15.1155 140.258 15.8534 140.194 16.6875L139.612 20.7841L139.469 21.7883L139.032 24.8702Z" fill="#F3AE92"/>
<path d="M135.794 21.408C135.74 21.4043 135.693 21.3676 135.678 21.3134C135.659 21.2444 135.699 21.1736 135.768 21.1544L137.011 20.8109L136.358 20.1336C136.333 20.1074 136.32 20.0714 136.322 20.0347L136.504 17.4295C136.509 17.3584 136.571 17.3049 136.643 17.3099C136.714 17.3148 136.768 17.3764 136.763 17.4476L136.585 19.9952L137.348 20.7878C137.38 20.8204 137.392 20.8675 137.38 20.9117C137.368 20.9558 137.334 20.9898 137.29 21.0021L135.837 21.4038C135.823 21.4079 135.808 21.409 135.794 21.408Z" fill="#0C0B0B"/>
<path d="M134.887 24.1827C134.387 24.0163 134.075 23.7007 134.056 23.6804C133.991 23.6134 133.993 23.5065 134.059 23.4417C134.126 23.3771 134.233 23.3785 134.298 23.4451C134.304 23.4515 134.91 24.0593 135.742 23.9256C135.835 23.9106 135.921 23.9732 135.936 24.0654C135.95 24.1572 135.888 24.2441 135.796 24.2587C135.452 24.3139 135.145 24.2684 134.887 24.1827Z" fill="#CD8A6E"/>
<path d="M135.653 23.3664C134.321 23.1958 133.848 22.0454 133.842 22.0313C133.804 21.9335 133.852 21.8229 133.949 21.784C134.047 21.7454 134.157 21.7933 134.196 21.8907C134.22 21.9493 134.795 23.3197 136.587 22.9401C136.69 22.9186 136.791 22.9843 136.812 23.0873C136.834 23.1903 136.769 23.2911 136.666 23.313C136.283 23.3938 135.947 23.4041 135.653 23.3664Z" fill="#0C0B0B"/>
<path d="M135.835 16.8434C136.25 16.4202 135.981 15.8348 135.352 15.6705C134.661 15.4903 133.234 15.2539 132.72 16.1922C132.03 17.4493 134.188 17.2687 135.098 17.1731C135.416 17.1397 135.669 17.0126 135.835 16.8434Z" fill="#262626"/>
<path d="M137.767 17.2125C137.567 16.7236 137.949 16.2197 138.489 16.1924C139.081 16.1622 140.265 16.2309 140.39 17.2319C140.558 18.5734 138.927 17.9566 138.244 17.678C138.005 17.5804 137.846 17.4082 137.767 17.2125Z" fill="#262626"/>
<path d="M139.661 14.4868C139.609 14.6185 139.53 14.726 139.423 14.8046C138.494 15.4929 136.686 14.8775 135.056 14.0462C133.426 13.2157 132 14.2547 132 14.2547C132.192 15.9867 130.547 15.8387 130.675 17.1479C130.804 18.4579 130.385 20.0838 130.385 20.0838L129.397 19.7749C129.281 19.1497 128.869 18.4322 127.763 17.9836C126.545 17.9957 126.904 15.5296 127.848 13.6929C127.848 13.6929 129.056 11.9628 133.067 11.8922C135.998 11.841 138.576 12.7737 139.661 14.4868Z" fill="#262626"/>
<path d="M134.755 18.8522C134.687 19.241 134.456 19.5263 134.238 19.4884C134.021 19.4505 133.899 19.1041 133.967 18.7152C134.034 18.3264 134.266 18.0415 134.483 18.0794C134.7 18.1173 134.822 18.4633 134.755 18.8522Z" fill="#0C0B0B"/>
<path d="M138.604 19.5182C138.537 19.9075 138.305 20.1923 138.087 20.1544C137.87 20.1165 137.749 19.7701 137.816 19.3813C137.883 18.9924 138.115 18.7075 138.332 18.7454C138.55 18.7833 138.672 19.1293 138.604 19.5182Z" fill="#0C0B0B"/>
<path d="M129.526 22.177C129.5 22.2168 128.781 23.3156 127.984 23.5356C127.982 23.5329 127.981 23.5311 127.981 23.5311L128.08 22.7059C128.08 22.7059 128.737 22.7077 129.526 22.177Z" fill="#0C0B0B"/>
<path d="M129.283 19.3573C129.283 19.3573 128.09 16.9969 126.665 18.4411C125.491 19.6309 126.654 23.4663 128.723 22.581L129.283 19.3573Z" fill="#F3AE92"/>
<path d="M128.619 21.9097C128.625 21.9106 128.631 21.9114 128.637 21.9118C128.726 21.9176 128.803 21.8494 128.809 21.7598C128.924 19.949 127.535 19.0734 127.476 19.0371C127.4 18.9898 127.299 19.0141 127.253 19.0904C127.206 19.1668 127.229 19.2665 127.305 19.3138C127.358 19.3462 128.587 20.1276 128.485 21.7393C128.48 21.8229 128.539 21.8955 128.619 21.9097Z" fill="#0C0B0B"/>
<path d="M127.295 20.683C127.33 20.6893 127.368 20.6838 127.401 20.6647C127.56 20.5761 128.031 20.3722 128.294 20.4908C128.376 20.5274 128.472 20.4912 128.509 20.4095C128.546 20.3276 128.509 20.2317 128.427 20.1948C127.968 19.9879 127.316 20.3406 127.243 20.3813C127.165 20.4251 127.137 20.5242 127.18 20.6026C127.205 20.6472 127.248 20.675 127.295 20.683Z" fill="#0C0B0B"/>
<path d="M126.923 28.1641C126.923 28.1641 130.655 30.9247 131.744 30.9174C131.744 30.9174 130.323 32.5408 128.085 32.7523C125.148 33.0296 120.201 32.373 120.201 32.373C120.201 32.373 123.858 29.5375 126.923 28.1641Z" fill="#3B76B0"/>
<path d="M126.254 34.3247C123.234 34.3247 120.993 32.283 120.897 32.1942C120.81 32.1134 120.805 31.9772 120.885 31.8896C120.966 31.802 121.103 31.7969 121.19 31.8776C121.213 31.8985 123.496 33.9731 126.43 33.8911C126.548 33.8859 126.648 33.9812 126.652 34.1004C126.655 34.2196 126.561 34.3187 126.442 34.3221C126.379 34.3238 126.317 34.3247 126.254 34.3247Z" fill="#0A549C"/>
<path d="M134.685 28.2578C134.685 28.2578 133.947 30.3922 131.744 30.9198C131.744 30.9198 132.229 32.9277 134.457 32.6214C136.684 32.3155 137.931 31.0411 137.931 31.0411C137.931 31.0411 136.443 28.2642 134.685 28.2578Z" fill="#3B76B0"/>
<path d="M127.171 75.1315C127.171 75.1315 118 76.3204 111.881 72.3683C108.407 70.1242 105.917 66.2229 106.647 59.5067C106.658 59.405 106.67 59.3029 106.682 59.2003C108.488 44.3612 115.327 36.4103 117.746 34.0166C118.455 33.3147 119.449 32.9567 120.436 33.1024C123.192 33.5087 124.909 37.5634 119.673 56.4764C117.706 65.8012 126.73 66.9329 126.73 66.9329L127.171 75.1315Z" fill="#3B76B0"/>
<path d="M119.403 58.6148C119.374 58.6136 119.344 58.608 119.315 58.5973C119.167 58.5426 119.091 58.3782 119.146 58.2303C119.187 58.1193 123.251 47.0686 123.55 41.1555C123.558 40.9979 123.689 40.8804 123.849 40.8847C124.007 40.8928 124.129 41.027 124.121 41.1846C123.817 47.1848 119.723 58.3162 119.682 58.4281C119.638 58.5473 119.523 58.6195 119.403 58.6148Z" fill="#0A549C"/>
<path d="M123.184 45.8573C123.133 45.8552 123.082 45.8394 123.036 45.8086C122.906 45.7206 122.871 45.5429 122.959 45.4122L124.735 42.7746C124.824 42.6434 125.001 42.6088 125.132 42.6972C125.263 42.7852 125.298 42.963 125.21 43.0937L123.433 45.7313C123.376 45.8167 123.28 45.8612 123.184 45.8573Z" fill="#0A549C"/>
<path d="M125.215 75.6652C125.104 75.6609 125.001 75.5913 124.959 75.4811C124.01 72.9853 124.526 66.0653 124.549 65.7718C124.561 65.6146 124.699 65.4967 124.856 65.5086C125.013 65.5206 125.131 65.6582 125.119 65.8154C125.113 65.8859 124.59 72.9011 125.494 75.2781C125.549 75.4259 125.476 75.5908 125.328 75.6468C125.291 75.6609 125.252 75.6665 125.215 75.6652Z" fill="#0A549C"/>
<path d="M127.447 75.0543C127.407 74.901 127.249 74.8108 127.097 74.8505C127.057 74.8616 123.254 75.8408 119.032 74.7322C118.835 74.6805 118.652 74.8463 118.68 75.0475C118.68 75.0496 118.68 75.0513 118.681 75.0535C118.696 75.165 118.779 75.2572 118.888 75.2859C120.185 75.6285 121.435 75.7819 122.555 75.8267C125.2 75.9327 127.124 75.435 127.244 75.4034C127.397 75.3628 127.487 75.2064 127.447 75.0543Z" fill="#0A549C"/>
<path d="M124.953 66.0813C124.837 66.0766 124.717 66.0681 124.594 66.0553C123.374 65.9275 121.617 65.3205 120.178 63.1511C120.091 63.0195 120.127 62.8418 120.259 62.7546C120.39 62.6675 120.568 62.7034 120.655 62.8349C123.163 66.6183 126.692 65.2824 126.727 65.2683C126.874 65.2102 127.04 65.2824 127.098 65.4294C127.156 65.5764 127.083 65.7425 126.937 65.8002C126.899 65.8147 126.092 66.127 124.953 66.0813Z" fill="#0A549C"/>
<path d="M111.881 72.3694C108.407 70.1253 105.917 66.224 106.647 59.5078C109.041 62.3782 112.858 67.8196 111.881 72.3694Z" fill="#0A549C"/>
<circle cx="174" cy="32.5" r="15.5" fill="#3B76B0"/>
<path d="M174 16C164.888 16 157.5 23.3882 157.5 32.5C157.5 41.6118 164.888 49 174 49C183.112 49 190.5 41.6118 190.5 32.5C190.5 23.3882 183.112 16 174 16ZM165.75 29.1484C165.759 28.6858 165.95 28.2453 166.28 27.9215C166.611 27.5977 167.055 27.4163 167.518 27.4163C167.981 27.4163 168.425 27.5977 168.755 27.9215C169.086 28.2453 169.276 28.6858 169.286 29.1484C169.276 29.6111 169.086 30.0515 168.755 30.3754C168.425 30.6992 167.981 30.8806 167.518 30.8806C167.055 30.8806 166.611 30.6992 166.28 30.3754C165.95 30.0515 165.759 29.6111 165.75 29.1484ZM174 39.1663C170.851 39.1663 168.269 36.6876 168.107 33.5828C168.105 33.5429 168.111 33.503 168.125 33.4655C168.139 33.4281 168.16 33.3938 168.188 33.3649C168.216 33.3359 168.249 33.3129 168.286 33.2972C168.322 33.2815 168.362 33.2734 168.402 33.2734H170.173C170.328 33.2734 170.461 33.3913 170.472 33.546C170.612 35.3691 172.14 36.8092 174 36.8092C175.86 36.8092 177.392 35.3691 177.528 33.546C177.539 33.3913 177.672 33.2734 177.827 33.2734H179.598C179.638 33.2734 179.678 33.2815 179.714 33.2972C179.751 33.3129 179.784 33.3359 179.812 33.3649C179.84 33.3938 179.861 33.4281 179.875 33.4655C179.889 33.503 179.895 33.5429 179.893 33.5828C179.731 36.6876 177.149 39.1663 174 39.1663ZM180.482 30.9163C180.02 30.9069 179.579 30.7164 179.255 30.3859C178.931 30.0554 178.75 29.6111 178.75 29.1484C178.75 28.6857 178.931 28.2414 179.255 27.9109C179.579 27.5804 180.02 27.39 180.482 27.3806C180.945 27.39 181.385 27.5804 181.709 27.9109C182.033 28.2414 182.214 28.6857 182.214 29.1484C182.214 29.6111 182.033 30.0554 181.709 30.3859C181.385 30.7164 180.945 30.9069 180.482 30.9163Z" fill="white"/>
</svg>
