<svg width="220" height="172" viewBox="0 0 220 172" fill="none" xmlns="http://www.w3.org/2000/svg">
<path d="M219.5 168C219.5 170.209 170.475 172 110 172C49.5249 172 0.5 170.209 0.5 168C0.5 165.791 49.5249 164 110 164C170.475 164 219.5 165.791 219.5 168Z" fill="#C7CAD8"/>
<g clip-path="url(#clip0_658_43892)">
<path d="M110.963 164.752C112.957 163.091 114.229 160.567 114.229 157.741C114.229 152.739 110.242 148.684 105.323 148.684C100.404 148.684 96.416 152.739 96.416 157.741C96.416 160.567 97.6885 163.091 99.6825 164.752C101.37 164.723 103.288 164.707 105.323 164.707C107.357 164.707 109.276 164.723 110.963 164.752Z" fill="#BBF97A"/>
<path d="M92.2604 98.1439C92.1568 98.0386 92.1568 97.868 92.2604 97.7627C92.364 97.6573 92.5317 97.6573 92.6353 97.7627C92.7388 97.868 92.7388 98.0386 92.6353 98.1439C92.5317 98.2493 92.364 98.2493 92.2604 98.1439Z" fill="#6C4B41"/>
<path d="M120.763 98.274C120.763 98.4459 120.626 98.5854 120.457 98.5854C120.288 98.5854 120.151 98.4459 120.151 98.274C120.151 98.1023 120.288 97.963 120.457 97.963C120.626 97.963 120.763 98.1023 120.763 98.274Z" fill="#6C4B41"/>
<path d="M120.948 87.3668C120.998 87.5007 120.932 87.6508 120.8 87.7017C120.668 87.7527 120.521 87.6853 120.471 87.5514C120.421 87.4173 120.487 87.2672 120.619 87.2163C120.75 87.1654 120.898 87.2327 120.948 87.3668Z" fill="#6C4B41"/>
<path d="M119.648 85.1622C119.707 85.1022 119.67 84.9598 119.565 84.7983C119.534 84.7503 119.534 84.6886 119.565 84.6405C119.67 84.479 119.707 84.3366 119.648 84.2766C119.589 84.2166 119.449 84.2544 119.29 84.3606C119.243 84.392 119.182 84.392 119.135 84.3606C118.976 84.2544 118.836 84.2166 118.777 84.2766C118.718 84.3366 118.755 84.479 118.86 84.6405C118.891 84.6886 118.891 84.7503 118.86 84.7983C118.755 84.9598 118.718 85.1022 118.777 85.1622C118.836 85.2222 118.976 85.1844 119.135 85.0783C119.182 85.0468 119.243 85.0468 119.29 85.0783C119.449 85.1844 119.589 85.2222 119.648 85.1622Z" fill="#6C4B41"/>
<path d="M91.291 96.2063C91.3587 96.2063 91.4179 96.1025 91.4492 95.9487C91.4585 95.903 91.4936 95.8675 91.5385 95.858C91.6898 95.826 91.7918 95.7658 91.7918 95.6969C91.7918 95.6278 91.6898 95.5677 91.5385 95.5358C91.4936 95.5264 91.4585 95.4909 91.4492 95.4451C91.4179 95.2912 91.3587 95.1876 91.291 95.1876C91.223 95.1876 91.164 95.2912 91.1325 95.4451C91.1232 95.4909 91.0883 95.5264 91.0434 95.5358C90.892 95.5677 90.7901 95.6278 90.7901 95.6969C90.7901 95.7658 90.892 95.826 91.0434 95.858C91.0883 95.8675 91.1232 95.903 91.1325 95.9487C91.164 96.1025 91.223 96.2063 91.291 96.2063Z" fill="#6C4B41"/>
<path d="M95.1055 80.8841C94.9835 80.6937 95.0366 80.4388 95.2239 80.3147C95.4111 80.1909 95.662 80.2447 95.7838 80.4351C95.9056 80.6257 95.8526 80.8804 95.6654 81.0045C95.4781 81.1285 95.2275 81.0745 95.1055 80.8841Z" fill="#6C4B41"/>
<path d="M93.2265 82.7094C93.2566 82.5641 93.397 82.4713 93.5399 82.502C93.6829 82.5327 93.7742 82.6755 93.744 82.8208C93.7137 82.966 93.5735 83.059 93.4306 83.0282C93.2876 82.9975 93.1963 82.8547 93.2265 82.7094Z" fill="#6C4B41"/>
<path d="M110.308 111.424C109.179 111.424 108.169 110.654 107.853 109.554L81.3569 17.5351C80.9609 16.1588 81.7407 14.7121 83.094 14.3081L127.667 1.03588C127.901 0.965545 128.143 0.929688 128.385 0.929688C129.514 0.929688 130.522 1.69921 130.84 2.79971L157.335 94.8184C157.526 95.4845 157.453 96.1878 157.123 96.7973C156.796 97.4069 156.255 97.8496 155.599 98.0454L111.026 111.319C110.792 111.389 110.55 111.424 110.308 111.424Z" fill="#52C41A"/>
<path d="M128.385 1.97544C129.047 1.97544 129.657 2.41536 129.854 3.09525L156.349 95.1126C156.586 95.9372 156.121 96.8019 155.31 97.0433L110.737 110.317C110.594 110.36 110.448 110.379 110.306 110.379C109.644 110.379 109.034 109.939 108.837 109.259L82.3426 17.2432C82.1053 16.4185 82.5704 15.5524 83.3814 15.3111L127.955 2.0375C128.098 1.99475 128.244 1.97544 128.385 1.97544ZM128.385 -0.115234C128.045 -0.115234 127.706 -0.0642104 127.378 0.0337079L82.805 13.3059C80.9079 13.8713 79.8163 15.9013 80.3709 17.8307L106.867 109.848C107.088 110.619 107.542 111.279 108.177 111.757C108.79 112.216 109.547 112.47 110.306 112.47C110.646 112.47 110.985 112.419 111.315 112.321L155.888 99.0471C157.785 98.483 158.875 96.453 158.32 94.5237L131.826 2.50639C131.603 1.73548 131.15 1.07628 130.514 0.599128C129.901 0.139896 129.146 -0.115234 128.385 -0.115234Z" fill="#595959"/>
<path d="M156.348 95.1139L129.853 3.09519C129.614 2.2705 128.764 1.79748 127.955 2.0402L83.3807 15.3124C82.6797 15.522 82.2403 16.195 82.2864 16.908C82.4111 16.8225 82.5454 16.7508 82.6959 16.7066L127.27 3.43306C128.079 3.19172 128.93 3.66336 129.168 4.48943L155.663 96.5067C155.696 96.6184 155.712 96.7315 155.719 96.8432C156.264 96.4764 156.542 95.7855 156.348 95.1139Z" fill="white"/>
<path d="M112.854 105.099C112.711 105.099 112.569 105.065 112.441 104.993C112.242 104.883 112.094 104.696 112.032 104.474L87.5698 19.5194C87.4369 19.0574 87.6972 18.5747 88.1501 18.4409L125.597 7.28976C125.675 7.26632 125.758 7.25391 125.838 7.25391C125.98 7.25391 126.121 7.29114 126.248 7.36147C126.447 7.4718 126.596 7.65797 126.66 7.88L151.119 92.8337C151.184 93.0557 151.158 93.2943 151.049 93.497C150.94 93.6984 150.757 93.8501 150.54 93.9149L113.094 105.066C113.015 105.09 112.935 105.099 112.854 105.099Z" fill="#F9F9F9"/>
<path d="M125.838 8.12452L150.301 93.0782L112.854 104.229L88.392 19.2757L125.838 8.12452ZM125.84 6.38275C125.68 6.38275 125.518 6.40619 125.358 6.45308L87.912 17.6043C87.4753 17.7339 87.1078 18.0345 86.8909 18.44C86.6725 18.8454 86.6224 19.3212 86.7498 19.7653L111.211 104.719C111.43 105.477 112.112 105.971 112.853 105.971C113.013 105.971 113.174 105.948 113.336 105.901L150.781 94.7496C151.216 94.62 151.585 94.3194 151.802 93.9139C152.02 93.5085 152.07 93.0327 151.944 92.59L127.481 7.63495C127.262 6.87508 126.58 6.38275 125.84 6.38275Z" fill="#595959"/>
<path d="M140.602 95.9664L150.299 93.0786L147.321 82.7383C142.005 84.6001 139.004 90.4212 140.602 95.9664Z" fill="#52C41A"/>
<path d="M140.601 95.9667C139.004 90.4215 142.005 84.6004 147.32 82.7386L146.84 81.0645C140.617 83.1993 137.096 89.9912 138.958 96.4577L140.601 95.9667Z" fill="#595959"/>
<path d="M117.462 94.9081C115.88 94.0269 114.14 93.5801 112.384 93.5801C111.547 93.5801 110.706 93.6835 109.875 93.889L112.853 104.229L122.551 101.342C121.755 98.5751 119.948 96.29 117.462 94.9081Z" fill="#52C41A"/>
<path d="M118.282 93.38C115.543 91.8561 112.407 91.4493 109.393 92.2146L109.876 93.8888C110.706 93.6834 111.548 93.5799 112.385 93.5799C114.141 93.5799 115.878 94.0267 117.462 94.908C119.948 96.2898 121.755 98.5749 122.551 101.34L124.194 100.852C123.269 97.6399 121.17 94.9866 118.282 93.38Z" fill="#595959"/>
<path d="M121.229 17.4481C123.568 18.7486 126.244 19.1044 128.816 18.4686L125.838 8.12695L116.14 11.0147C116.936 13.7798 118.743 16.0649 121.229 17.4481Z" fill="#52C41A"/>
<path d="M114.498 11.5013C115.423 14.7132 117.522 17.3665 120.409 18.9717C122.248 19.995 124.266 20.5163 126.304 20.5163C127.303 20.5149 128.308 20.3894 129.298 20.1384L128.817 18.4656C126.244 19.1014 123.569 18.7456 121.231 17.4451C118.745 16.0619 116.937 13.7768 116.14 11.0117L114.498 11.5013Z" fill="#595959"/>
<path d="M98.0905 16.3828L88.3933 19.272L91.3699 29.6136C96.687 27.7505 99.6866 21.9267 98.0905 16.3828Z" fill="#52C41A"/>
<path d="M99.7329 15.8984L98.0907 16.388C99.6868 21.9319 96.6858 27.7543 91.37 29.6175L91.8514 31.2889C98.073 29.1555 101.595 22.3635 99.7329 15.8984Z" fill="#595959"/>
<path d="M119.074 67.9108C116.439 67.9108 113.814 67.0296 111.682 65.4312C109.48 63.7763 107.907 61.4871 107.135 58.8089C105.207 52.1107 108.996 45.0678 115.582 43.1068C116.726 42.7661 117.904 42.5938 119.085 42.5938C121.72 42.5938 124.345 43.4736 126.476 45.0733C128.679 46.7268 130.252 49.0161 131.023 51.6956C131.957 54.9392 131.594 58.3593 129.997 61.3257C128.401 64.2907 125.768 66.4476 122.577 67.3978C121.434 67.7384 120.255 67.9108 119.074 67.9108Z" fill="#52C41A"/>
<path d="M119.085 43.4703C124.099 43.4703 128.721 46.8063 130.202 51.9474C132 58.1933 128.479 64.7411 122.336 66.5698C121.249 66.8939 120.154 67.0483 119.074 67.0483C114.061 67.0483 109.438 63.7123 107.957 58.5711C106.159 52.3253 109.681 45.7789 115.822 43.9488C116.91 43.6261 118.007 43.4703 119.085 43.4703ZM119.085 41.7285C117.823 41.7285 116.564 41.9147 115.342 42.2774C113.619 42.7918 112.047 43.6316 110.667 44.7776C109.335 45.885 108.239 47.2269 107.411 48.7687C106.582 50.3091 106.062 51.9709 105.864 53.7085C105.659 55.5082 105.811 57.3093 106.315 59.0607C107.14 61.9237 108.82 64.3701 111.175 66.1381C112.306 66.9876 113.557 67.6468 114.89 68.0992C116.244 68.557 117.652 68.7887 119.074 68.7887C120.337 68.7887 121.597 68.6039 122.817 68.2412C124.539 67.7282 126.112 66.887 127.493 65.7409C128.824 64.6335 129.92 63.2917 130.749 61.7513C131.577 60.2095 132.098 58.5477 132.296 56.8114C132.501 55.0104 132.349 53.2093 131.846 51.4579C131.02 48.5949 129.34 46.1484 126.986 44.3805C125.853 43.531 124.603 42.8704 123.269 42.4181C121.915 41.9602 120.508 41.7285 119.085 41.7285Z" fill="#595959"/>
<path d="M77.7619 137.963C76.6337 137.963 75.6234 137.193 75.3074 136.093L48.8112 44.0742C48.4153 42.6979 49.195 41.2512 50.5484 40.8471L95.1209 27.5749C95.3555 27.5046 95.5969 27.4688 95.8396 27.4688C96.9679 27.4688 97.9768 28.2383 98.2941 29.3388L124.789 121.357C124.98 122.024 124.907 122.727 124.577 123.336C124.251 123.946 123.71 124.389 123.053 124.584L78.4806 137.858C78.246 137.928 78.0046 137.963 77.7619 137.963Z" fill="#52C41A"/>
<path d="M95.8394 28.5184C96.5012 28.5184 97.1114 28.9583 97.3081 29.6382L123.803 121.656C124.04 122.48 123.575 123.345 122.764 123.586L78.1916 136.86C78.0478 136.903 77.9027 136.922 77.7604 136.922C77.0986 136.922 76.4884 136.482 76.2917 135.802L49.7969 43.7861C49.5596 42.9614 50.0247 42.0954 50.8356 41.8541L95.4096 28.5805C95.552 28.5377 95.6984 28.5184 95.8394 28.5184ZM95.8394 26.4277C95.4991 26.4277 95.1601 26.4788 94.8319 26.5767L50.2593 39.8489C48.3622 40.4143 47.2705 42.4443 47.8252 44.3736L74.3214 136.391C74.5424 137.162 74.9967 137.822 75.6313 138.3C76.2443 138.759 77.001 139.013 77.7604 139.013C78.1007 139.013 78.4397 138.962 78.7693 138.864L123.342 125.59C125.239 125.026 126.329 122.996 125.775 121.067L99.2798 29.0494C99.0574 28.2784 98.6045 27.6193 97.9685 27.1421C97.3555 26.6829 96.6002 26.4277 95.8394 26.4277Z" fill="#595959"/>
<path d="M123.803 121.657L97.3084 29.6382C97.0697 28.8135 96.2195 28.3404 95.4099 28.5832L50.836 41.8554C50.1349 42.065 49.6955 42.738 49.7417 43.451C49.8664 43.3655 50.0007 43.2937 50.1512 43.2496L94.7251 29.976C95.5347 29.7347 96.3849 30.2063 96.6236 31.0324L123.118 123.05C123.151 123.161 123.167 123.274 123.174 123.386C123.719 123.019 123.997 122.328 123.803 121.657Z" fill="white"/>
<path d="M80.3087 131.644C80.1663 131.644 80.0239 131.61 79.8965 131.538C79.6971 131.428 79.5493 131.241 79.4869 131.019L55.0248 46.0643C54.8919 45.6023 55.1523 45.1196 55.6052 44.9859L93.0517 33.8347C93.1303 33.8112 93.213 33.7988 93.293 33.7988C93.4354 33.7988 93.5765 33.8361 93.7026 33.9064C93.9019 34.0167 94.0511 34.2029 94.1148 34.4249L118.574 119.379C118.639 119.601 118.614 119.839 118.504 120.042C118.395 120.243 118.212 120.395 117.995 120.46L80.5487 131.611C80.4701 131.634 80.3901 131.644 80.3087 131.644Z" fill="#F9F9F9"/>
<path d="M93.2935 34.6695L117.756 119.623L80.3091 130.774L55.847 45.8207L93.2935 34.6695ZM93.2948 32.9277C93.1348 32.9277 92.9735 32.9512 92.8134 32.9981L55.367 44.1493C54.9303 44.2789 54.5628 44.5795 54.3459 44.985C54.1276 45.3904 54.0774 45.8662 54.2048 46.3103L78.6656 131.264C78.8853 132.022 79.5674 132.516 80.3078 132.516C80.4678 132.516 80.6292 132.493 80.7905 132.446L118.236 121.295C118.671 121.165 119.04 120.864 119.257 120.459C119.475 120.053 119.525 119.578 119.399 119.135L94.9357 34.1799C94.7174 33.4201 94.0353 32.9277 93.2948 32.9277Z" fill="#595959"/>
<path d="M108.056 122.509L117.753 119.622L114.775 109.281C109.46 111.143 106.459 116.964 108.056 122.509Z" fill="#52C41A"/>
<path d="M108.056 122.51C106.459 116.964 109.46 111.143 114.776 109.282L114.296 107.607C108.073 109.742 104.551 116.534 106.413 123.001L108.056 122.51Z" fill="#595959"/>
<path d="M84.9164 121.453C83.3338 120.572 81.594 120.125 79.8379 120.125C79.0012 120.125 78.1604 120.228 77.3292 120.434L80.3071 130.774L90.0057 127.886C89.2097 125.12 87.402 122.835 84.9164 121.453Z" fill="#52C41A"/>
<path d="M85.7367 119.927C82.9975 118.403 79.8609 117.996 76.8477 118.762L77.3305 120.436C78.1604 120.23 79.0025 120.127 79.8392 120.127C81.5953 120.127 83.3324 120.574 84.9163 121.455C87.402 122.837 89.2096 125.122 90.0056 127.887L91.6478 127.399C90.723 124.187 88.6238 121.533 85.7367 119.927Z" fill="#595959"/>
<path d="M88.6831 43.9891C91.0223 45.2896 93.6979 45.6454 96.2703 45.0096L93.2924 34.668L83.5938 37.5557C84.3898 40.3208 86.1975 42.6059 88.6831 43.9891Z" fill="#52C41A"/>
<path d="M81.952 38.0462C82.8769 41.2581 84.9761 43.9114 87.8631 45.5167C89.702 46.5399 91.7198 47.0612 93.7579 47.0612C94.7574 47.0598 95.7622 46.9343 96.7521 46.6833L96.2707 45.0105C93.6983 45.6463 91.0228 45.2905 88.6849 43.99C86.1992 42.6068 84.3916 40.3217 83.5942 37.5566L81.952 38.0462Z" fill="#595959"/>
<path d="M65.545 42.9336L55.8477 45.8228L58.8243 56.1644C64.1414 54.3013 67.141 48.4775 65.545 42.9336Z" fill="#52C41A"/>
<path d="M67.187 42.4414L65.5448 42.931C67.1409 48.4749 64.1399 54.2973 58.8241 56.1604L59.3055 57.8319C65.5271 55.6984 69.0488 48.9065 67.187 42.4414Z" fill="#595959"/>
<path d="M86.5288 94.4557C83.8939 94.4557 81.2686 93.5745 79.1368 91.9761C76.9346 90.3212 75.3616 88.032 74.59 85.3538C72.6616 78.6557 76.4505 71.6127 83.0369 69.6517C84.1801 69.3111 85.3585 69.1387 86.5396 69.1387C89.1745 69.1387 91.7998 70.0185 93.9302 71.6182C96.1338 73.2718 97.7068 75.561 98.4771 78.2406C99.4114 81.4841 99.048 84.9042 97.4519 87.8706C95.8558 90.8356 93.2223 92.9925 90.0315 93.9427C88.8883 94.2833 87.7099 94.4557 86.5288 94.4557Z" fill="#52C41A"/>
<path d="M86.5393 70.0093C91.5527 70.0093 96.1755 73.3453 97.6563 78.4865C99.4545 84.7323 95.9328 91.2802 89.7898 93.1088C88.7036 93.4329 87.6079 93.5874 86.5285 93.5874C81.5151 93.5874 76.8922 90.2514 75.4114 85.1102C73.6133 78.8644 77.135 72.3179 83.2766 70.4879C84.3642 70.1652 85.4612 70.0093 86.5393 70.0093ZM86.5393 68.2676C85.2768 68.2676 84.0184 68.4538 82.7966 68.8164C81.073 69.3308 79.5013 70.1707 78.1208 71.3167C76.7892 72.4241 75.6935 73.7659 74.8649 75.3077C74.0364 76.8482 73.5156 78.51 73.3176 80.2476C73.1129 82.0473 73.2648 83.8484 73.7692 85.5998C74.5937 88.4627 76.2739 90.9092 78.6294 92.6772C79.7603 93.5267 81.0106 94.1859 82.3436 94.6382C83.6983 95.0961 85.1059 95.3278 86.5285 95.3278C87.7909 95.3278 89.0507 95.143 90.2712 94.7803C91.9934 94.2672 93.5664 93.426 94.9469 92.28C96.2786 91.1726 97.3743 89.8308 98.2028 88.2903C99.0314 86.7485 99.5521 85.0868 99.7501 83.3505C99.9549 81.5494 99.803 79.7484 99.2999 77.9969C98.474 75.134 96.7939 72.6875 94.4397 70.9195C93.3074 70.07 92.0571 69.4095 90.7228 68.9571C89.3694 68.4993 87.9618 68.2676 86.5393 68.2676Z" fill="#595959"/>
<g opacity="0.999996">
<path d="M33.2857 166.883C30.1965 166.883 27.662 164.085 27.6403 160.645L27.1427 85.3769C27.1318 83.7276 27.6919 82.1651 28.7184 80.9791C29.7802 79.7531 31.2095 79.0732 32.7419 79.0635L38.5987 79.0249C38.6272 79.0222 38.6557 79.0222 38.6842 79.0208L57.425 78.8967C57.4386 78.8953 57.4494 78.8939 57.463 78.8939C57.5321 78.8884 57.6203 78.8815 57.7206 78.8801L157.675 78.2168C159.982 78.2168 161.872 80.1254 161.887 82.4712L162.41 161.725C162.418 162.87 161.986 163.948 161.197 164.762C160.406 165.577 159.351 166.029 158.226 166.036L146.052 166.118V166.13L134.555 166.207C134.527 166.209 134.497 166.21 134.47 166.21L33.2857 166.883Z" fill="#6D99C5"/>
<path d="M160.689 82.4837C160.677 80.7916 159.319 79.4318 157.657 79.4415L142.34 79.5421C143.628 79.8828 144.584 81.066 144.594 82.4837L144.921 134.916C144.979 144.41 138.801 152.797 129.809 155.346C113.494 159.967 83.0025 164.605 28.9062 162.521L28.0479 167.047H147.724L148.003 164.89L158.218 164.824C159.882 164.813 161.223 163.431 161.211 161.739L160.689 82.4837Z" fill="#6D99C5"/>
<path d="M31.9206 161.687L31.4229 86.421C31.4053 83.627 33.3784 81.3487 35.8301 81.3322L41.7263 81.2936C41.7426 81.2936 41.7575 81.2908 41.7738 81.2908L60.5499 81.1653C60.6367 81.1598 60.7221 81.1502 60.8102 81.1502L159.943 80.491C159.387 79.8442 158.568 79.4346 157.655 79.4415L57.7293 80.1048C57.6411 80.1062 57.5557 80.1159 57.4689 80.12L38.6914 80.2455C38.6752 80.2455 38.6602 80.2483 38.644 80.2483L32.7478 80.2882C30.296 80.3034 28.3229 82.5816 28.3419 85.3756L28.8396 160.644C28.8572 163.437 30.8601 165.686 33.3119 165.669L33.6672 165.667C32.6163 164.75 31.9314 163.311 31.9206 161.687Z" fill="#6D99C5"/>
<path d="M32.2871 110.485L52.9359 110.34C55.4718 110.34 57.8612 111.341 59.662 113.157C61.4642 114.976 62.465 117.399 62.484 119.981L62.4935 121.455C62.5111 124.049 61.5348 126.493 59.7434 128.34C57.9534 130.187 55.5626 131.215 53.0119 131.231L32.4309 131.379L32.2871 110.485Z" fill="#6D99C5"/>
<path d="M52.9361 111.203C57.7095 111.201 61.5932 115.119 61.6271 119.981L61.638 121.453C61.6705 126.335 57.8057 130.321 53.0053 130.355L33.2813 130.496L33.1497 111.342L52.8737 111.203H52.9361ZM52.9361 109.461V111.203V109.461C52.9117 109.461 52.8859 109.461 52.8615 109.461L33.1375 109.602L31.4248 109.614L31.437 111.354L31.5685 130.508L31.5808 132.249L33.2935 132.236L53.0175 132.097C55.796 132.076 58.4024 130.958 60.3538 128.944C62.3052 126.932 63.3683 124.268 63.3493 121.442L63.3385 119.969C63.3195 117.156 62.2279 114.515 60.2656 112.534C58.3034 110.552 55.6998 109.461 52.9361 109.461Z" fill="#0A549C"/>
<path d="M27.6602 110.51L48.309 110.365C50.8462 110.365 53.2342 111.365 55.0351 113.183C56.8373 115.002 57.8381 117.425 57.8571 120.006L57.8665 121.481C57.9032 126.836 53.6505 131.222 48.3849 131.26L27.8039 131.404L27.6602 110.51Z" fill="#6D99C5"/>
<path d="M48.3093 111.229C53.0813 111.229 56.9665 115.147 57.0004 120.008L57.0099 121.481C57.0438 126.363 53.179 130.348 48.3785 130.383L28.6531 130.522L28.5216 111.369L48.2469 111.23C48.2673 111.229 48.2876 111.229 48.3093 111.229ZM48.3093 109.488V111.229V109.488H48.2347L28.5094 109.629L26.798 109.64L26.8102 111.382L26.9418 130.534L26.9526 132.276L28.6653 132.264L48.3907 132.124C51.1693 132.104 53.7743 130.984 55.7257 128.972C57.677 126.96 58.7416 124.294 58.7226 121.468L58.7117 119.995C58.6927 117.182 57.6011 114.543 55.6375 112.559C53.6766 110.579 51.073 109.488 48.3093 109.488Z" fill="#0A549C"/>
<path d="M57.0008 120.007C56.9669 115.125 53.0479 111.196 48.2474 111.231L28.5234 111.369L28.5302 112.414L28.655 130.524L31.3942 130.503L31.279 113.859C31.2735 113.05 31.9136 112.389 32.7083 112.384L48.2474 112.275C53.0479 112.24 56.9683 116.171 57.0008 121.052L57.0049 121.77C57.0076 121.674 57.0117 121.578 57.0103 121.481L57.0008 120.007Z" fill="#6D99C5"/>
<path d="M46.8288 117.765C48.1117 117.765 49.1599 119.113 49.1707 120.783C49.1816 122.46 48.1469 123.825 46.8573 123.835H46.8437C45.5609 123.835 44.5127 122.487 44.5018 120.816C44.4896 119.14 45.527 117.775 46.8153 117.765H46.8288ZM46.8288 116.023H46.8031C45.6585 116.032 44.5696 116.607 43.8143 117.602C43.1457 118.485 42.7823 119.631 42.7891 120.828C42.7972 122.021 43.1756 123.159 43.8523 124.03C44.6144 125.012 45.7046 125.575 46.8437 125.575H46.8695C48.014 125.567 49.1029 124.992 49.8569 123.997C50.5268 123.115 50.8916 121.969 50.8821 120.77C50.874 119.577 50.497 118.44 49.8203 117.568C49.0582 116.586 47.9679 116.023 46.8288 116.023Z" fill="#0A549C"/>
<path d="M45.1869 121.513C45.1747 119.837 46.2107 118.47 47.5003 118.462C47.8909 118.459 48.2597 118.582 48.5852 118.801C48.1526 118.163 47.5207 117.76 46.8155 117.766C45.5259 117.775 44.4899 119.141 44.5021 120.816C44.5102 121.984 45.0255 122.992 45.7727 123.494C45.4133 122.965 45.1923 122.274 45.1869 121.513Z" fill="#6D99C5"/>
<path d="M39.5384 157.751L45.7641 157.707C46.1221 157.704 46.415 158.079 46.4178 158.546C46.4218 159.012 46.133 159.39 45.775 159.392L39.5506 159.439C39.1926 159.442 38.8984 159.065 38.8956 158.601C38.8929 158.135 39.1804 157.754 39.5384 157.751Z" fill="#0A549C"/>
<path d="M27.593 157.751L33.8187 157.707C34.1767 157.704 34.4696 158.079 34.4723 158.546C34.4764 159.012 34.1875 159.39 33.8295 159.392L27.6052 159.439C27.2472 159.442 26.9529 159.065 26.9502 158.601C26.9475 158.135 27.235 157.754 27.593 157.751Z" fill="#0A549C"/>
<path d="M50.9514 157.673L57.1758 157.629C57.5338 157.626 57.828 158.001 57.8307 158.467C57.8335 158.932 57.546 159.311 57.188 159.314L50.9623 159.358C50.6043 159.361 50.3113 158.986 50.3086 158.52C50.3046 158.055 50.5934 157.676 50.9514 157.673Z" fill="#0A549C"/>
<path d="M62.3645 157.595L68.5902 157.551C68.9482 157.548 69.2411 157.923 69.2438 158.389C69.2479 158.855 68.959 159.233 68.601 159.236L62.3767 159.283C62.0187 159.286 61.7244 158.909 61.7217 158.444C61.719 157.978 62.0065 157.598 62.3645 157.595Z" fill="#0A549C"/>
<path d="M73.7776 157.511L80.0019 157.467C80.3599 157.464 80.6542 157.839 80.6569 158.305C80.6596 158.771 80.3721 159.149 80.0141 159.152L73.7884 159.196C73.4304 159.199 73.1375 158.824 73.1348 158.359C73.1307 157.893 73.4196 157.514 73.7776 157.511Z" fill="#0A549C"/>
<path d="M85.1905 157.433L91.4162 157.389C91.7742 157.386 92.0671 157.761 92.0699 158.227C92.0739 158.693 91.7851 159.072 91.4271 159.074L85.2027 159.121C84.8447 159.123 84.5505 158.748 84.5477 158.282C84.545 157.816 84.8325 157.435 85.1905 157.433Z" fill="#0A549C"/>
<path d="M96.6038 157.351L102.828 157.307C103.186 157.304 103.48 157.679 103.483 158.145C103.486 158.611 103.198 158.989 102.84 158.992L96.6146 159.037C96.2566 159.039 95.9637 158.664 95.961 158.199C95.9569 157.733 96.2458 157.354 96.6038 157.351Z" fill="#0A549C"/>
<path d="M108.016 157.269L114.242 157.225C114.6 157.222 114.892 157.597 114.895 158.063C114.899 158.528 114.61 158.907 114.252 158.91L108.028 158.954C107.67 158.957 107.376 158.582 107.373 158.116C107.37 157.651 107.658 157.27 108.016 157.269Z" fill="#0A549C"/>
<path d="M119.43 157.185L125.655 157.14C126.014 157.138 126.307 157.513 126.31 157.979C126.314 158.445 126.025 158.823 125.667 158.826L119.44 158.873C119.082 158.875 118.789 158.499 118.786 158.034C118.782 157.568 119.072 157.187 119.43 157.185Z" fill="#0A549C"/>
<path d="M131.487 157.105L137.712 157.061C138.07 157.058 138.363 157.433 138.366 157.899C138.37 158.365 138.081 158.743 137.725 158.746L131.499 158.791C131.141 158.793 130.847 158.418 130.844 157.953C130.841 157.487 131.129 157.107 131.487 157.105Z" fill="#0A549C"/>
<path d="M142.591 157.021L148.817 156.977C149.174 156.974 149.467 157.349 149.471 157.815C149.474 158.28 149.186 158.659 148.828 158.662L142.604 158.706C142.244 158.709 141.951 158.334 141.947 157.867C141.945 157.403 142.232 157.023 142.591 157.021Z" fill="#0A549C"/>
<path d="M153.771 156.943L159.997 156.898C160.354 156.896 160.646 157.271 160.65 157.737C160.653 158.202 160.366 158.581 160.008 158.584L153.782 158.628C153.424 158.631 153.131 158.255 153.127 157.789C153.124 157.325 153.412 156.945 153.771 156.943Z" fill="#0A549C"/>
<path d="M38.7833 87.7707L45.009 87.7266C45.367 87.7238 45.6599 88.0989 45.6626 88.5651C45.6667 89.0312 45.3792 89.409 45.0212 89.4118L38.7955 89.4573C38.4375 89.4587 38.1446 89.0836 38.1405 88.6188C38.1378 88.1527 38.4253 87.7735 38.7833 87.7707Z" fill="#0A549C"/>
<path d="M26.8392 87.7707L33.0636 87.7266C33.4216 87.7238 33.7158 88.0989 33.7186 88.5651C33.7213 89.0312 33.4338 89.409 33.0758 89.4118L26.8501 89.4573C26.4921 89.4587 26.1992 89.0836 26.1965 88.6188C26.1924 88.1527 26.4812 87.7735 26.8392 87.7707Z" fill="#0A549C"/>
<path d="M50.1965 87.6893L56.4222 87.6465C56.7802 87.6437 57.0731 88.0188 57.0758 88.485C57.0799 88.9511 56.7911 89.329 56.4331 89.3303L50.2074 89.3772C49.8507 89.38 49.5564 89.0049 49.5537 88.5388C49.551 88.0726 49.8385 87.692 50.1965 87.6893Z" fill="#0A549C"/>
<path d="M61.6086 87.6066L67.8343 87.5625C68.1923 87.5598 68.4852 87.9349 68.4879 88.401C68.492 88.8671 68.2045 89.245 67.8465 89.2477L61.6208 89.2933C61.2628 89.2946 60.9699 88.9195 60.9658 88.4548C60.9631 87.9886 61.2506 87.6094 61.6086 87.6066Z" fill="#0A549C"/>
<path d="M73.0227 87.5285L79.2484 87.4844C79.6064 87.4816 79.8993 87.8567 79.902 88.3229C79.9061 88.7876 79.6172 89.1669 79.2592 89.1696L73.0335 89.2137C72.6769 89.2165 72.3826 88.8414 72.3799 88.3753C72.3772 87.9105 72.6647 87.5299 73.0227 87.5285Z" fill="#0A549C"/>
<path d="M84.4348 87.4451L90.6592 87.4024C91.0172 87.3996 91.3114 87.7747 91.3141 88.2408C91.3169 88.707 91.0294 89.0834 90.6714 89.0862L84.4457 89.1331C84.0877 89.1359 83.7947 88.7594 83.792 88.2946C83.788 87.8285 84.0768 87.4479 84.4348 87.4451Z" fill="#0A549C"/>
<path d="M95.8478 87.3645L102.074 87.3203C102.432 87.3176 102.724 87.6927 102.727 88.1588C102.731 88.6236 102.442 89.0028 102.084 89.0056L95.86 89.0497C95.502 89.0524 95.2077 88.6773 95.205 88.2112C95.2023 87.7465 95.4898 87.3672 95.8478 87.3645Z" fill="#0A549C"/>
<path d="M107.262 87.2771L113.486 87.2344C113.844 87.2316 114.138 87.6067 114.141 88.0729C114.144 88.539 113.856 88.9155 113.498 88.9182L107.273 88.9651C106.915 88.9679 106.622 88.5914 106.619 88.1267C106.615 87.6605 106.904 87.2799 107.262 87.2771Z" fill="#0A549C"/>
<path d="M118.675 87.2082L124.899 87.1641C125.259 87.1613 125.552 87.5364 125.554 88.0026C125.558 88.4687 125.271 88.8465 124.912 88.8493L118.687 88.8948C118.329 88.8962 118.035 88.5211 118.032 88.0563C118.03 87.5902 118.317 87.211 118.675 87.2082Z" fill="#0A549C"/>
<path d="M130.732 87.1201L136.957 87.0759C137.315 87.0732 137.608 87.4483 137.611 87.9144C137.615 88.3792 137.328 88.7584 136.97 88.7612L130.744 88.8053C130.386 88.8081 130.093 88.433 130.089 87.9668C130.086 87.5021 130.374 87.1215 130.732 87.1201Z" fill="#0A549C"/>
<path d="M141.837 87.0389L148.063 86.9961C148.42 86.9934 148.713 87.3685 148.717 87.8346C148.719 88.3007 148.432 88.6786 148.075 88.68L141.85 88.7268C141.49 88.7296 141.197 88.3545 141.195 87.8884C141.19 87.4222 141.479 87.0416 141.837 87.0389Z" fill="#0A549C"/>
<path d="M153.018 86.9607L159.244 86.918C159.6 86.9152 159.893 87.2903 159.897 87.7565C159.9 88.2226 159.612 88.6005 159.254 88.6018L153.03 88.6487C152.671 88.6515 152.378 88.2764 152.375 87.8102C152.371 87.3441 152.658 86.9635 153.018 86.9607Z" fill="#0A549C"/>
<path d="M157.677 79.4382C159.331 79.4382 160.676 80.7952 160.688 82.4804L161.212 161.736C161.224 163.428 159.884 164.808 158.219 164.819L144.845 164.909V164.921L134.51 164.99C134.493 164.99 134.478 164.993 134.462 164.993L33.313 165.666H33.2859C30.8463 165.666 28.8583 163.421 28.8407 160.638L28.3416 85.371C28.3227 82.5784 30.2971 80.3001 32.7489 80.2836L38.6464 80.245C38.6613 80.245 38.6776 80.2422 38.6925 80.2422L57.47 80.1167C57.5568 80.1112 57.6422 80.1029 57.7303 80.1015L157.655 79.4382H157.677ZM157.677 77H157.641L57.7141 77.6633C57.5757 77.6647 57.4578 77.6744 57.3791 77.6799L38.6776 77.804C38.6342 77.804 38.5949 77.8054 38.561 77.8068L32.734 77.8467C30.8558 77.8592 29.1105 78.6866 27.8209 80.1746C26.5991 81.5868 25.9333 83.4375 25.9455 85.3889L26.4418 160.655C26.454 162.598 27.1415 164.433 28.3728 165.826C29.672 167.295 31.4172 168.104 33.2859 168.104H33.3306L134.48 167.43C134.523 167.43 134.56 167.429 134.594 167.427L144.863 167.358L147.257 167.343V167.329L158.234 167.258C159.679 167.248 161.036 166.666 162.051 165.621C163.066 164.574 163.619 163.189 163.609 161.719L163.086 82.4639C163.075 81.0021 162.507 79.6285 161.487 78.5983C160.467 77.5682 159.115 77 157.677 77Z" fill="#0A549C"/>
</g>
</g>
<g clip-path="url(#clip1_658_43892)">
<path d="M132.379 110C131.006 111.782 130.229 114.417 130.032 117.125C129.846 119.687 130.418 123.211 131.042 125H165.472C166.097 123.211 166.154 119.687 165.964 117.125C165.775 114.417 164.994 111.782 163.621 110H132.379ZM134.125 123.063L129.5 167H132.836L137.266 123.063H134.125ZM158.278 123.063L163.164 167H166.5L161.361 123.063H158.278ZM133.611 154.987L133.097 157.031H163.931L162.903 154.987H133.611Z" fill="#08437D"/>
</g>
<path d="M135 125H137.853L133.853 167H131L135 125Z" fill="#262626"/>
<path d="M161.216 125H158.5L162.308 167H165L161.216 125Z" fill="#262626"/>
<rect x="134.5" y="155" width="28" height="2" fill="#262626"/>
<path d="M167.087 93.9068C166.371 90.1999 164.073 77.7209 164.075 75.199C164.076 74.7822 164.723 73.4853 164.841 73.0867C165.511 70.8347 167.849 62.5487 167.323 58.1808C166.904 54.69 163.95 50.2215 163.064 47.8349C162.647 46.712 159.329 45.5531 158.223 45.0924L155.87 41.7694C155.87 41.7694 156.381 43.3135 154.303 44.7001C153.19 45.4426 151.848 45.7644 150.512 45.7045C147.577 45.5731 145.2 44.1648 143.59 42.2994L143.203 42.5994C135.607 45.0489 135.689 45.0636 134.229 45.6779C132.351 46.4683 138.301 65.7425 138.301 65.7425C138.301 65.7425 141.816 78.7568 139.921 82.7891C138.854 85.0602 135.263 88.8111 134.353 90.9225C134.353 90.9225 132.771 93.1337 132.74 93.6889C132.71 94.2446 142.095 98.3093 149.503 98.7203C163.212 99.4806 167.087 93.9068 167.087 93.9068Z" fill="#F5F5F5"/>
<path d="M164.247 70.3296C164.232 70.326 164.265 70.0859 164.338 69.6563C164.417 69.2284 164.507 68.6035 164.592 67.8312C164.682 67.0585 164.739 66.1335 164.754 65.1065C164.756 64.0794 164.708 62.9498 164.575 61.7715C164.433 60.5939 164.219 59.4839 163.979 58.4848C163.728 57.4884 163.46 56.6016 163.194 55.8706C162.933 55.1383 162.7 54.552 162.525 54.1529C162.355 53.7522 162.268 53.5267 162.282 53.5196C162.296 53.5125 162.411 53.7246 162.608 54.1157C162.808 54.5045 163.064 55.0841 163.347 55.8138C163.634 56.5426 163.921 57.4311 164.186 58.4329C164.438 59.4373 164.662 60.5567 164.805 61.7448C164.94 62.9334 164.98 64.0737 164.967 65.1091C164.94 66.1451 164.866 67.0758 164.755 67.8507C164.648 68.6261 164.533 69.2493 164.426 69.674C164.326 70.0997 164.263 70.3331 164.247 70.3296Z" fill="#2F2D2D"/>
<path d="M155.87 41.7708L155.891 40.074L157.885 43.3242L161.947 44.8208C163.224 46.2926 167.363 62.8616 166.526 65.6019L165.081 81.8042L170.198 91.6597L162.53 90.6198C162.53 90.6198 160.222 87.2209 160.618 83.071C161.622 72.5613 160.584 60.5727 160.432 57.9177C160.204 53.9209 155.87 41.7708 155.87 41.7708Z" fill="#3B76B0"/>
<path d="M157.885 43.3241C157.885 43.3241 164.552 45.5042 165.426 46.7599C167.803 50.1752 182.112 73.5407 175.088 80.5094C170.486 85.0743 164.024 75.4439 164.024 75.4439L157.885 43.3241Z" fill="#3B76B0"/>
<path d="M174.229 71.2254C174.225 71.2387 174.011 71.2001 173.621 71.1176C173.196 71.0262 172.638 70.9063 171.96 70.7603C170.547 70.4634 168.567 70.043 166.297 69.7031L166.418 69.632C166.199 70.1957 165.971 70.7798 165.738 71.3777C165.156 72.8561 164.605 74.2533 164.122 75.4819L164.105 75.3784C165.119 76.6438 165.979 77.717 166.614 78.5084C166.896 78.8724 167.128 79.1702 167.31 79.4045C167.469 79.614 167.549 79.7298 167.54 79.7374C167.532 79.7441 167.434 79.6424 167.26 79.4458C167.066 79.2212 166.819 78.9349 166.518 78.5865C165.868 77.8085 164.985 76.7535 163.945 75.5098L163.906 75.4637L163.929 75.4064C164.406 74.1756 164.948 72.7753 165.523 71.2933C165.757 70.6964 165.986 70.1123 166.207 69.5495L166.24 69.4647L166.328 69.478C168.613 69.8304 170.585 70.2792 171.993 70.616C172.696 70.786 173.256 70.9325 173.64 71.0395C174.024 71.1464 174.232 71.2117 174.229 71.2254Z" fill="#2F2D2D"/>
<path d="M167.376 69.354C167.36 69.3518 167.385 69.0859 167.443 68.6083C167.507 68.0917 167.591 67.4104 167.692 66.5866C167.884 64.8827 168.151 62.5069 167.912 59.9024C167.685 57.2918 166.814 55.0495 166.065 53.5142C165.689 52.7433 165.35 52.1366 165.113 51.7185C164.877 51.2999 164.742 51.0705 164.757 51.0607C164.763 51.0562 164.806 51.1086 164.88 51.2116C164.954 51.3146 165.06 51.469 165.19 51.6719C165.451 52.0771 165.814 52.674 166.211 53.4414C167.003 54.966 167.912 57.2341 168.142 59.8807C168.384 62.518 168.088 64.9058 167.854 66.6075C167.734 67.4606 167.615 68.1472 167.532 68.6221C167.447 69.0957 167.392 69.3567 167.376 69.354Z" fill="#2F2D2D"/>
<path d="M161.366 66.5764C161.358 66.5755 161.36 66.4832 161.37 66.3083C161.385 66.1086 161.403 65.8556 161.426 65.5445C161.488 64.8512 161.573 63.9009 161.676 62.739C161.791 61.5464 161.926 60.1394 162.077 58.5815C162.154 57.7986 162.236 56.9779 162.32 56.1275C162.363 55.7019 162.41 55.2722 162.39 54.8431C162.37 54.4161 162.279 53.9824 162.04 53.6274C161.772 53.2195 161.324 52.9155 160.863 52.9447L160.443 52.9714L160.793 52.7348C161.398 52.326 161.986 51.9297 162.547 51.5511L162.513 51.6993C161.141 49.3443 159.952 47.3049 159.089 45.8238C158.684 45.1114 158.356 44.5344 158.113 44.1088C158.012 43.9228 157.929 43.7701 157.861 43.6454C157.806 43.5389 157.779 43.4821 157.785 43.4785C157.79 43.4754 157.828 43.5256 157.894 43.6259C157.971 43.7457 158.065 43.8922 158.178 44.0706C158.435 44.4883 158.781 45.0542 159.21 45.7528C160.091 47.2232 161.303 49.248 162.705 51.5866L162.758 51.6758L162.671 51.7348C162.112 52.1152 161.526 52.5138 160.922 52.9248L160.851 52.7153C161.42 52.6815 161.934 53.0451 162.232 53.4995C162.503 53.9026 162.599 54.3828 162.619 54.8324C162.64 55.2864 162.589 55.7258 162.546 56.1502C162.456 57.0001 162.371 57.8203 162.288 58.6033C162.12 60.1589 161.967 61.5646 161.839 62.7558C161.705 63.9142 161.596 64.8627 161.516 65.5533C161.475 65.8631 161.442 66.1148 161.416 66.3128C161.391 66.4863 161.374 66.5773 161.366 66.5764Z" fill="#2F2D2D"/>
<path d="M193.54 130.262L198 139.702C198 139.702 209.138 138.258 210.135 139.924L191.925 149.231L184.358 134.801L193.54 130.262Z" fill="#262626"/>
<path d="M192.059 141.721C191.751 141.995 191.708 142.512 191.975 142.825C192.241 143.138 192.778 143.186 193.09 142.917C193.403 142.649 193.474 142.029 193.173 141.747C192.873 141.465 192.24 141.443 192.002 141.778" fill="#E2E2E2"/>
<path d="M191.925 149.231L191.322 148.081L209.182 139.396C209.182 139.396 209.948 139.458 210.278 139.975L191.925 149.231Z" fill="#262626"/>
<path d="M198.198 139.68C198.241 139.77 197.81 140.034 197.513 140.54C197.202 141.038 197.171 141.536 197.071 141.542C196.979 141.566 196.839 140.97 197.21 140.364C197.575 139.755 198.175 139.589 198.198 139.68Z" fill="#262626"/>
<path d="M200.544 139.5C200.609 139.576 200.295 139.921 200.183 140.448C200.054 140.971 200.186 141.415 200.094 141.456C200.017 141.512 199.686 141.024 199.839 140.372C199.986 139.718 200.498 139.417 200.544 139.5Z" fill="#262626"/>
<path d="M202.823 141.227C202.751 141.287 202.396 140.908 202.377 140.307C202.354 139.707 202.681 139.304 202.757 139.358C202.846 139.405 202.706 139.802 202.73 140.295C202.741 140.788 202.908 141.174 202.823 141.227Z" fill="#262626"/>
<path d="M196.928 137.625C196.932 137.724 196.455 137.808 195.962 138.096C195.463 138.375 195.153 138.74 195.067 138.687C194.981 138.65 195.199 138.129 195.784 137.798C196.367 137.462 196.937 137.533 196.928 137.625Z" fill="#262626"/>
<path d="M196.225 135.462C196.245 135.499 195.916 135.731 195.296 135.919C194.988 136.012 194.606 136.087 194.176 136.109C193.961 136.12 193.735 136.117 193.501 136.097C193.388 136.086 193.259 136.082 193.111 136.023C192.963 135.98 192.785 135.774 192.826 135.573C192.849 135.386 192.984 135.243 193.117 135.173C193.251 135.101 193.375 135.073 193.488 135.047C193.72 134.994 193.947 134.965 194.164 134.955C194.599 134.936 194.989 134.993 195.302 135.079C195.933 135.255 196.251 135.513 196.229 135.545C196.203 135.595 195.851 135.422 195.248 135.318C194.948 135.266 194.583 135.239 194.186 135.272C193.987 135.29 193.781 135.323 193.571 135.376C193.349 135.423 193.182 135.505 193.176 135.615C193.174 135.657 193.179 135.671 193.249 135.707C193.318 135.737 193.423 135.748 193.535 135.76C193.753 135.783 193.964 135.792 194.166 135.791C194.57 135.787 194.934 135.741 195.235 135.682C195.84 135.563 196.201 135.414 196.225 135.462Z" fill="#262626"/>
<path d="M177.981 150.847L177.417 161.237C177.417 161.237 187.948 165.071 188.035 167.001L167.5 166.87L167.701 150.646L177.981 150.847Z" fill="#262626"/>
<path d="M173.007 151.295C172.604 151.395 172.319 151.833 172.405 152.232C172.491 152.631 172.942 152.919 173.348 152.826C173.752 152.732 174.111 152.217 173.98 151.83C173.849 151.443 173.3 151.133 172.929 151.319" fill="#E2E2E2"/>
<path d="M135.723 92.564C135.723 92.564 178.491 88.5845 180.888 88.932C186.519 89.7479 188.547 94.175 188.896 97.5443C189.155 100.037 196.437 136.559 196.437 136.559L186.485 139.914L176.474 114.258L171.333 101.435L134.818 101.654L135.723 92.564Z" fill="#262626"/>
<path d="M169.902 97.9404C169.902 97.9404 175.619 97.9404 178.706 103.557C180.521 106.859 179.884 112.758 179.92 117.211C179.97 123.274 178.777 160.213 178.777 160.213L167.082 160.453L164.633 121.954L164.777 114.839L139 110.938C139 110.938 139.301 103.816 144.53 96.9578C145.202 96.0753 169.902 97.9404 169.902 97.9404Z" fill="#262626"/>
<path d="M132.838 92.5316C132.838 92.5316 129.245 100.665 134.093 107.619C137.296 112.212 143.439 111.16 143.439 111.16L151.597 101.143L145.088 91.1699L132.838 92.5316Z" fill="#262626"/>
<path d="M143.438 111.158C143.437 111.155 143.488 111.128 143.591 111.079C143.705 111.027 143.856 110.958 144.05 110.87C144.468 110.685 145.064 110.42 145.825 110.081C147.382 109.402 149.615 108.426 152.369 107.223C155.138 106.022 158.432 104.594 162.087 103.009C163.917 102.219 165.838 101.39 167.828 100.529C168.332 100.322 168.815 100.079 169.351 99.9003C169.877 99.708 170.43 99.5887 170.989 99.4899C172.112 99.3202 173.274 99.3172 174.428 99.4599C175.583 99.6005 176.706 99.9042 177.737 100.381C178.245 100.632 178.745 100.909 179.16 101.293C179.586 101.661 179.923 102.108 180.204 102.575C180.762 103.514 181.074 104.558 181.167 105.595C181.212 106.119 181.181 106.624 181.182 107.126C181.177 107.628 181.172 108.124 181.167 108.614C181.12 112.533 181.08 116.063 181.044 119.033C181.002 121.989 180.967 124.385 180.943 126.056C180.926 126.875 180.914 127.516 180.904 127.965C180.897 128.175 180.891 128.339 180.887 128.462C180.882 128.574 180.878 128.631 180.874 128.631C180.87 128.631 180.867 128.574 180.864 128.461C180.862 128.339 180.86 128.174 180.858 127.965C180.857 127.516 180.855 126.874 180.853 126.055C180.859 124.384 180.87 121.988 180.882 119.032C180.902 116.063 180.927 112.533 180.953 108.614C180.957 108.124 180.961 107.628 180.965 107.126C180.963 106.625 180.992 106.112 180.948 105.613C180.855 104.609 180.549 103.592 180.009 102.687C179.737 102.237 179.412 101.808 179.006 101.459C178.614 101.095 178.129 100.827 177.637 100.584C176.635 100.121 175.532 99.8224 174.398 99.6849C173.264 99.5448 172.124 99.5474 171.025 99.7128C170.48 99.8094 169.939 99.9256 169.428 100.111C168.914 100.282 168.416 100.527 167.917 100.733C165.924 101.589 164.002 102.414 162.171 103.202C158.508 104.769 155.209 106.181 152.434 107.37C149.668 108.545 147.425 109.499 145.862 110.163C145.093 110.484 144.491 110.735 144.069 110.911C143.872 110.991 143.717 111.054 143.601 111.101C143.495 111.142 143.44 111.162 143.438 111.158Z" fill="#262626"/>
<path d="M137.732 25.4605C136.427 24.4073 135.83 22.5463 136.277 20.9249C136.328 20.743 136.389 20.5437 136.311 20.3723C136.243 20.225 136.092 20.1398 135.955 20.055C135.2 19.5894 134.608 18.8304 134.435 17.9579C134.262 17.0848 134.548 16.1124 135.228 15.5416C133.965 15.0116 133.515 13.2394 134.19 12.0424C134.863 10.8449 136.386 10.2892 137.735 10.524C137.304 9.80585 137.563 8.82008 138.155 8.22933C138.748 7.63814 139.596 7.37893 140.424 7.2733C141.538 7.13083 142.856 7.33189 143.437 8.29724C143.534 7.61284 144.246 7.18586 144.922 7.05671C146.736 6.71007 148.705 7.99321 149.129 9.79742C149.721 9.41039 150.396 9.09127 151.102 9.12278C151.807 9.15429 152.53 9.63009 152.649 10.3287C152.981 9.71442 153.754 9.49472 154.45 9.46942C154.952 9.45167 155.477 9.5107 155.901 9.78277C156.324 10.0548 156.614 10.583 156.485 11.0712C157.409 10.7743 158.519 11.2896 158.891 12.1906C159.264 13.0907 158.846 14.2447 157.984 14.6947C158.702 15.1497 159.158 15.9934 159.147 16.846C159.136 17.6987 158.657 18.5304 157.927 18.9663C158.346 19.0244 158.525 19.6045 158.316 19.9738C158.107 20.3431 157.66 20.5099 157.239 20.5481C157.327 22.0097 157.415 23.4717 157.503 24.9337C157.559 25.8764 157.615 26.8386 157.376 27.753C157.137 28.6673 156.551 29.5421 155.671 29.879" fill="#2F2D2D"/>
<path d="M137.506 21.2383C137.48 17.6902 141.022 13.8936 144.552 14.0166L156.068 15.3801L156.164 17.2832L155.843 43.2714L144.906 49.9689L144.28 39.1379C144.28 39.1379 139.734 38.7078 138.392 32.8864C137.724 29.9913 137.534 25.18 137.506 21.2383Z" fill="#F3AE92"/>
<path d="M138.825 25.6758C138.838 26.0752 139.187 26.393 139.603 26.3859C140.018 26.3788 140.344 26.0499 140.33 25.65C140.316 25.2506 139.967 24.9328 139.553 24.9394C139.137 24.9465 138.811 25.2759 138.825 25.6758Z" fill="#2F2D2D"/>
<path d="M138.718 23.6631C138.818 23.755 139.358 23.2912 140.167 23.2357C140.974 23.1692 141.597 23.5446 141.678 23.439C141.718 23.392 141.61 23.2206 141.338 23.0502C141.071 22.8798 140.624 22.728 140.121 22.7657C139.617 22.8043 139.206 23.0209 138.976 23.2286C138.741 23.4381 138.669 23.6223 138.718 23.6631Z" fill="#2F2D2D"/>
<path d="M146.512 25.6758C146.526 26.0757 146.874 26.393 147.29 26.3859C147.705 26.3788 148.032 26.0499 148.018 25.65C148.004 25.2506 147.655 24.9323 147.24 24.9394C146.824 24.9461 146.499 25.2759 146.512 25.6758Z" fill="#2F2D2D"/>
<path d="M146.671 23.4247C146.771 23.5166 147.311 23.0528 148.12 22.9978C148.927 22.9307 149.55 23.3062 149.631 23.2006C149.67 23.1536 149.565 22.9822 149.291 22.8118C149.024 22.6414 148.577 22.4896 148.073 22.5273C147.569 22.5659 147.159 22.7825 146.928 22.9902C146.694 23.1997 146.622 23.3839 146.671 23.4247Z" fill="#2F2D2D"/>
<path d="M144.166 29.4834C144.166 29.4368 143.657 29.3858 142.835 29.3392C142.627 29.3325 142.429 29.305 142.384 29.1661C142.325 29.0196 142.396 28.7897 142.479 28.5412C142.638 28.025 142.805 27.4848 142.979 26.918C143.67 24.6079 144.155 22.7149 144.062 22.6878C143.969 22.6603 143.334 24.5102 142.643 26.8204C142.478 27.3894 142.32 27.9322 142.169 28.4515C142.107 28.693 141.992 28.9695 142.119 29.2731C142.185 29.424 142.344 29.5265 142.48 29.5527C142.615 29.5837 142.731 29.578 142.834 29.5766C143.657 29.5629 144.166 29.5296 144.166 29.4834Z" fill="#2F2D2D"/>
<path d="M144.279 39.1378C144.279 39.1378 148.24 39.113 151.982 36.4766C151.982 36.4766 150.286 41.0383 144.381 40.9043L144.279 39.1378Z" fill="#743C0B"/>
<path d="M144.645 31.4191C144.909 31.0121 145.403 30.7636 145.913 30.7822C146.267 30.7955 146.634 30.9407 146.867 31.2128C147.101 31.4844 147.174 31.8892 147 32.1768C146.802 32.5003 146.351 32.6037 145.957 32.5212C145.563 32.4386 145.213 32.2065 144.88 31.9744C144.788 31.91 144.693 31.8435 144.633 31.7507C144.571 31.6584 144.551 31.5328 144.613 31.448" fill="#D0724B"/>
<path d="M146.586 29.8751C146.454 29.8768 146.514 30.7587 145.806 31.4383C145.1 32.12 144.156 32.0871 144.158 32.211C144.15 32.2673 144.379 32.3681 144.775 32.3508C145.163 32.3361 145.72 32.171 146.153 31.7556C146.585 31.3388 146.746 30.8129 146.751 30.4489C146.759 30.0779 146.646 29.8657 146.586 29.8751Z" fill="#2F2D2D"/>
<path d="M146.223 20.5411C146.318 20.7564 147.119 20.5944 148.075 20.6419C149.034 20.6698 149.818 20.8944 149.931 20.6871C149.98 20.5882 149.833 20.3902 149.508 20.1985C149.186 20.0063 148.682 19.8385 148.108 19.815C147.534 19.7928 147.019 19.9211 146.683 20.0871C146.344 20.2526 146.182 20.439 146.223 20.5411Z" fill="#2F2D2D"/>
<path d="M138.851 21.289C139.006 21.4634 139.549 21.2322 140.219 21.1758C140.886 21.095 141.465 21.2118 141.582 21.0094C141.633 20.9113 141.531 20.7329 141.27 20.5762C141.014 20.4191 140.596 20.3059 140.136 20.3525C139.677 20.4 139.289 20.5957 139.069 20.8012C138.845 21.0076 138.781 21.2033 138.851 21.289Z" fill="#2F2D2D"/>
<path d="M139.448 14.2795C139.144 15.378 139.569 16.6421 140.474 17.3296C141.378 18.0175 142.705 18.0854 143.675 17.4942C143.312 17.8955 143.425 18.5794 143.81 18.9598C144.194 19.3402 144.766 19.4653 145.306 19.4609C146.441 19.4507 147.561 18.9154 148.284 18.0371C148.462 18.931 149.086 19.7241 149.91 20.1045C150.735 20.4848 151.74 20.444 152.532 19.9979C151.793 20.8084 151.636 22.0986 152.159 23.0635C152.681 24.0285 153.845 24.5979 154.923 24.4155C156.002 24.2331 156.916 23.3125 157.097 22.2287C157.905 21.8155 158.503 21.0095 158.665 20.1125C158.828 19.2159 158.552 18.2497 157.94 17.5772C158.519 17.3536 158.891 16.7473 158.973 16.1299C159.056 15.5125 158.892 14.8871 158.657 14.3106C158.083 12.8996 157.023 11.6369 155.608 11.0874C154.193 10.5379 152.421 10.8269 151.43 11.9818C151.317 12.1122 151.203 12.2596 151.036 12.2995C150.809 12.3537 150.593 12.185 150.421 12.0257C149.656 11.3209 148.854 10.5597 147.836 10.3546C146.606 10.1065 145.252 10.8442 144.788 12.0146C144.006 10.8575 142.456 10.1971 141.147 10.6738C139.838 11.1509 139.073 12.8854 139.789 14.0851" fill="#2F2D2D"/>
<path d="M154.272 23.575C154.415 24.7658 154.729 25.9358 155.201 27.0374C155.401 27.5052 155.703 28.0169 156.203 28.0942C156.659 28.1643 157.098 27.8137 157.28 27.3876C157.462 26.9611 157.443 26.4786 157.404 26.0166C157.264 24.3757 156.908 22.7623 156.553 21.1543" fill="#2F2D2D"/>
<path d="M155.617 24.4181C155.687 24.3773 158.504 23.1709 158.762 26.1717C159.021 29.1725 155.968 28.8161 155.955 28.7305C155.943 28.6448 155.617 24.4181 155.617 24.4181Z" fill="#F3AE92"/>
<path d="M156.771 27.5122C156.783 27.5016 156.826 27.5446 156.917 27.5775C157.006 27.6094 157.156 27.6232 157.307 27.5508C157.612 27.407 157.835 26.8811 157.803 26.3387C157.787 26.0649 157.707 25.8101 157.593 25.6033C157.483 25.3916 157.328 25.25 157.167 25.2358C157.005 25.2127 156.901 25.3188 156.872 25.4062C156.839 25.4937 156.863 25.5518 156.848 25.5585C156.84 25.5669 156.779 25.5136 156.792 25.3871C156.8 25.3268 156.829 25.2531 156.894 25.1896C156.961 25.1248 157.063 25.0858 157.175 25.088C157.407 25.0835 157.633 25.2784 157.759 25.5056C157.898 25.7324 157.993 26.0187 158.012 26.3263C158.045 26.9326 157.785 27.5255 157.364 27.6884C157.159 27.7621 156.978 27.7133 156.881 27.6503C156.782 27.5841 156.761 27.5184 156.771 27.5122Z" fill="#743C0B"/>
<path d="M148.387 17.4323C148.388 17.4358 148.356 17.446 148.295 17.4624C148.234 17.4798 148.143 17.5011 148.023 17.5246C147.782 17.569 147.422 17.6258 146.961 17.596C146.731 17.5801 146.477 17.5419 146.212 17.4513C145.947 17.3639 145.668 17.2237 145.425 17.0031C145.183 16.7847 144.975 16.4944 144.847 16.1469C144.726 15.8011 144.697 15.3835 144.857 14.9996L144.959 15.0759C144.357 15.5788 143.531 15.9303 142.622 15.9711C142.169 15.9947 141.699 15.9356 141.243 15.7896C141.017 15.7142 140.791 15.6152 140.588 15.4683C140.385 15.324 140.211 15.1203 140.112 14.8815C139.992 14.6019 139.967 14.2996 139.98 14.0142C139.991 13.7266 140.037 13.4501 140.089 13.1798C140.143 12.9091 140.216 12.6406 140.347 12.3965C140.473 12.1546 140.693 11.9349 140.971 11.8798L141.014 12.0179C140.501 12.2171 139.947 12.2123 139.47 12.0653C138.989 11.9224 138.576 11.6486 138.278 11.3086C137.982 10.9664 137.802 10.5572 137.757 10.1644C137.707 9.77114 137.757 9.40187 137.856 9.08896C138.06 8.45693 138.442 8.06191 138.724 7.8542C139.013 7.64559 139.203 7.59766 139.203 7.59766C139.21 7.61186 139.027 7.67666 138.754 7.89237C138.487 8.10763 138.127 8.50131 137.942 9.11603C137.852 9.42006 137.81 9.77558 137.864 10.1488C137.911 10.523 138.087 10.9047 138.37 11.2265C138.656 11.5456 139.051 11.803 139.508 11.9349C139.962 12.0711 140.483 12.0707 140.96 11.8834L141.001 12.0214C140.775 12.068 140.592 12.2455 140.476 12.4675C140.357 12.6894 140.288 12.9459 140.237 13.2087C140.142 13.7337 140.041 14.313 140.252 14.8212C140.427 15.2561 140.861 15.5064 141.291 15.6458C141.727 15.7865 142.179 15.8455 142.615 15.8242C143.491 15.7883 144.291 15.4541 144.876 14.9747L145.083 14.8043L144.977 15.0511C144.829 15.3977 144.85 15.7812 144.96 16.107C145.076 16.4341 145.271 16.7128 145.498 16.9236C145.725 17.1362 145.987 17.2734 146.242 17.3635C146.496 17.4558 146.743 17.4984 146.967 17.5193C147.417 17.5596 147.775 17.5157 148.016 17.4846C148.257 17.4505 148.385 17.4243 148.387 17.4323Z" fill="#2F2D2D"/>
<path d="M139.053 16.7727C139.057 16.7807 138.992 16.8278 138.859 16.8819C138.727 16.9356 138.521 16.9911 138.26 16.9898C138.003 16.9849 137.683 16.9307 137.39 16.7212C137.249 16.6152 137.114 16.4549 137.082 16.2459C137.049 16.0479 137.109 15.8016 137.313 15.6729L137.381 15.8087C137.365 15.8145 137.348 15.8207 137.331 15.8269C136.554 16.1145 135.777 15.909 135.337 15.6378C135.11 15.5029 134.951 15.3591 134.855 15.249C134.758 15.1385 134.716 15.0688 134.723 15.0635C134.745 15.0418 134.94 15.3081 135.389 15.5433C135.823 15.7794 136.557 15.9516 137.277 15.684C137.294 15.6782 137.31 15.6725 137.324 15.6671L138.023 15.4208L137.392 15.8029C137.258 15.8846 137.204 16.067 137.228 16.2233C137.249 16.3804 137.353 16.5153 137.474 16.6103C137.724 16.7998 138.025 16.8664 138.264 16.8828C138.758 16.9085 139.045 16.7443 139.053 16.7727Z" fill="#2F2D2D"/>
<path d="M158.749 28.24C158.756 28.2267 158.957 28.3074 159.255 28.5538C159.548 28.7979 159.953 29.2204 160.196 29.8857C160.442 30.5391 160.442 31.4702 159.941 32.2807C159.463 33.1 158.397 33.6673 157.301 33.5199C156.754 33.4529 156.251 33.1861 155.885 32.828C155.513 32.472 155.256 32.0392 155.098 31.5994C154.779 30.7148 154.906 29.797 155.286 29.1978C155.661 28.5893 156.181 28.2866 156.543 28.1592C156.912 28.0287 157.132 28.0491 157.132 28.0629C157.137 28.09 156.924 28.1104 156.587 28.2671C156.257 28.4197 155.789 28.7335 155.469 29.3043C155.145 29.8635 155.052 30.6984 155.357 31.5044C155.648 32.2945 156.357 33.1071 157.341 33.2225C158.317 33.3512 159.268 32.8599 159.707 32.1333C160.171 31.4099 160.199 30.5675 159.995 29.9532C159.794 29.3269 159.437 28.9017 159.177 28.6403C158.913 28.3758 158.734 28.2617 158.749 28.24Z" fill="#2F2D2D"/>
<path d="M141.958 27.3804C141.938 27.3809 141.98 27.0702 141.88 26.5287C141.78 25.997 141.482 25.2056 140.735 24.5598C140.365 24.2438 139.891 23.9651 139.332 23.8293C138.778 23.6974 138.143 23.6739 137.526 23.8643C137.216 23.95 136.913 24.0898 136.631 24.2735C136.346 24.4529 136.084 24.6814 135.862 24.9522C135.405 25.4834 135.122 26.1865 135.066 26.9259C135.024 27.6671 135.213 28.4013 135.596 28.988C135.78 29.2854 136.011 29.5464 136.27 29.7616C136.525 29.9809 136.807 30.1593 137.103 30.2849C137.69 30.5548 138.322 30.6147 138.889 30.5565C139.461 30.4953 139.968 30.2809 140.376 30.0164C141.201 29.4736 141.6 28.7284 141.769 28.2148C141.939 27.6907 141.938 27.3773 141.958 27.3804C141.963 27.3809 141.958 27.4572 141.946 27.6032C141.941 27.6765 141.931 27.7666 141.907 27.8709C141.886 27.9765 141.864 28.099 141.818 28.2308C141.662 28.7563 141.268 29.5264 140.428 30.0945C140.011 30.371 139.492 30.5974 138.902 30.6657C138.317 30.7305 137.663 30.6724 137.054 30.3968C136.746 30.268 136.454 30.0843 136.188 29.8584C135.919 29.636 135.679 29.3657 135.487 29.0577C135.088 28.4501 134.889 27.6867 134.934 26.9175C134.991 26.1492 135.288 25.4186 135.763 24.8687C135.994 24.5887 136.267 24.3525 136.563 24.1675C136.856 23.9779 137.17 23.8341 137.492 23.7471C138.133 23.5536 138.788 23.5816 139.36 23.7232C139.935 23.8679 140.42 24.1604 140.797 24.4892C141.555 25.1621 141.845 25.9774 141.931 26.5194C141.959 26.6561 141.965 26.7799 141.971 26.8873C141.982 26.9938 141.98 27.0848 141.974 27.1581C141.968 27.3045 141.963 27.3809 141.958 27.3804Z" fill="#2F2D2D"/>
<path d="M150.949 27.3762C150.929 27.3767 150.971 27.066 150.87 26.5245C150.771 25.9928 150.473 25.2014 149.726 24.5556C149.356 24.2396 148.882 23.9609 148.323 23.825C147.768 23.6932 147.134 23.6697 146.516 23.8601C146.206 23.9458 145.904 24.086 145.622 24.2693C145.337 24.4486 145.075 24.6777 144.853 24.948C144.396 25.4792 144.112 26.1823 144.057 26.9222C144.014 27.6629 144.204 28.397 144.587 28.9842C144.772 29.2812 145.002 29.5421 145.261 29.7579C145.516 29.9767 145.797 30.1555 146.094 30.2807C146.681 30.5506 147.313 30.6109 147.88 30.5523C148.451 30.4911 148.958 30.2767 149.367 30.0122C150.192 29.4698 150.591 28.7242 150.759 28.2106C150.93 27.6865 150.929 27.3731 150.949 27.3762C150.953 27.3767 150.949 27.453 150.936 27.599C150.932 27.6723 150.921 27.7624 150.897 27.8671C150.876 27.9723 150.855 28.0948 150.809 28.2266C150.653 28.7521 150.259 29.5226 149.419 30.0903C149.002 30.3672 148.483 30.5932 147.894 30.6615C147.309 30.7263 146.655 30.6682 146.045 30.3925C145.737 30.2638 145.445 30.0801 145.179 29.8542C144.91 29.6318 144.67 29.3615 144.477 29.0535C144.078 28.4459 143.88 27.6825 143.924 26.9133C143.982 26.145 144.279 25.4144 144.754 24.8645C144.985 24.5845 145.258 24.3483 145.554 24.1633C145.846 23.9737 146.161 23.8304 146.482 23.7429C147.123 23.5494 147.779 23.5774 148.351 23.719C148.926 23.8637 149.411 24.1562 149.787 24.485C150.546 25.1579 150.836 25.9732 150.921 26.5152C150.95 26.6519 150.956 26.7757 150.962 26.8831C150.973 26.9896 150.971 27.0806 150.966 27.1538C150.959 27.3003 150.953 27.3767 150.949 27.3762Z" fill="#2F2D2D"/>
<path d="M144.169 26.1934C144.152 26.2094 144.049 26.1086 143.852 26.0008C143.655 25.892 143.355 25.7935 143.013 25.7944C142.671 25.797 142.371 25.8987 142.177 26.0092C141.98 26.1193 141.878 26.2209 141.861 26.2054C141.85 26.1969 141.931 26.0687 142.127 25.9302C142.322 25.7908 142.643 25.6648 143.013 25.6621C143.382 25.6608 143.705 25.7837 143.901 25.9209C144.099 26.0576 144.18 26.185 144.169 26.1934Z" fill="#2F2D2D"/>
<path d="M155.922 24.6131C155.93 24.6491 154.793 24.9314 153.384 25.2438C151.973 25.5563 150.824 25.7809 150.815 25.7449C150.808 25.7094 151.945 25.4272 153.355 25.1147C154.765 24.8022 155.914 24.5772 155.922 24.6131Z" fill="#2F2D2D"/>
<path d="M138.041 29.6747C138.039 29.6831 137.977 29.6813 137.867 29.6618C137.757 29.6423 137.6 29.5997 137.415 29.5198C137.049 29.3653 136.569 29.028 136.256 28.4892C135.944 27.9495 135.889 27.3663 135.937 26.9713C135.96 26.7711 136 26.614 136.038 26.5088C136.076 26.4031 136.106 26.349 136.113 26.3517C136.135 26.3583 136.051 26.5904 136.03 26.9784C136.007 27.3618 136.075 27.9126 136.371 28.4231C136.667 28.9321 137.111 29.2646 137.455 29.4355C137.802 29.6103 138.046 29.6516 138.041 29.6747Z" fill="#2F2D2D"/>
<path d="M144.957 29.2575C144.95 29.2624 144.901 29.2087 144.824 29.1013C144.747 28.9939 144.648 28.8292 144.551 28.6126C144.357 28.1839 144.198 27.519 144.305 26.7942C144.412 26.069 144.756 25.4782 145.066 25.1236C145.221 24.9438 145.363 24.8151 145.467 24.7348C145.572 24.6536 145.635 24.6172 145.64 24.6238C145.656 24.642 145.422 24.8173 145.139 25.1826C144.855 25.543 144.539 26.1178 144.436 26.8133C144.333 27.5088 144.47 28.1501 144.637 28.5771C144.803 29.0085 144.977 29.2442 144.957 29.2575Z" fill="#2F2D2D"/>
<path d="M146.086 29.9786C146.068 30.0101 145.946 29.9732 145.815 29.8965C145.685 29.8201 145.593 29.7322 145.612 29.7007C145.63 29.6692 145.751 29.7061 145.882 29.7824C146.013 29.8592 146.104 29.9471 146.086 29.9786Z" fill="#2F2D2D"/>
<path d="M144.321 40.4688L142.327 42.6076L134.926 44.9582C134.926 44.9582 135.211 52.9553 136.675 61.1615C138.304 70.289 139.179 79.5923 139.226 79.737C139.586 79.0566 135.508 84.6588 133.253 90.1588C131.482 94.4805 130.512 103.502 130.512 103.502L149.143 109.21L152.299 75.4438L151.477 59.8242L144.321 40.4688Z" fill="#3B76B0"/>
<path d="M136.046 84.3824C136.31 84.9514 137.108 85.1547 137.726 85.0473C142.141 84.2776 148.653 80.9448 152.056 78.0288C152.086 77.8832 152.298 75.2788 152.298 75.2788V73.9277L136.046 84.3824Z" fill="black"/>
<path d="M134.926 44.957C134.926 44.957 131.513 46.2522 130.511 50.1548C130.511 50.1548 129.724 52.5942 129.136 55.3291C127.709 61.9685 124.631 74.44 124.508 77.7453C124.285 83.7233 128.781 85.4188 131.208 85.9425C133.635 86.4658 150.502 77.2366 150.502 77.2366L147.7 68.8307L136.695 71.6726C136.695 71.6726 139.048 63.9929 139.725 60.8523C140.403 57.7117 134.926 44.957 134.926 44.957Z" fill="#3B76B0"/>
<path d="M133.118 85.6016C133.117 85.5981 133.146 85.5834 133.204 85.5581C133.274 85.5293 133.36 85.4938 133.465 85.4498C133.697 85.3588 134.037 85.223 134.476 85.0388C135.352 84.6749 136.618 84.1214 138.176 83.3842C141.298 81.9178 145.587 79.7048 150.449 77.1372L150.394 77.2734C149.933 75.8922 149.454 74.4586 148.964 72.9921C148.495 71.5821 148.036 70.2026 147.592 68.868L147.73 68.9416C143.311 70.1396 139.342 71.2159 136.217 72.0632L136.21 72.0654L136.201 72.0658C135.053 72.1555 134.075 72.606 133.287 73.0658C132.497 73.5358 131.885 74.0511 131.412 74.4936C130.941 74.9401 130.61 75.3232 130.392 75.5877C130.292 75.7129 130.212 75.8127 130.15 75.8922C130.094 75.9605 130.064 75.9947 130.06 75.9925C130.06 75.9925 130.418 75.3529 131.347 74.4262C131.814 73.9695 132.423 73.4395 133.218 72.9513C134.011 72.4742 135.001 72.0019 136.189 71.8981L136.173 71.9007C139.294 71.0379 143.257 69.9425 147.669 68.7224L147.774 68.6935L147.807 68.7961C148.253 70.1303 148.713 71.5093 149.184 72.9189C149.672 74.3858 150.149 75.8203 150.609 77.2015L150.64 77.2929L150.554 77.3382C145.686 79.8969 141.382 82.0864 138.239 83.5187C136.67 84.2386 135.393 84.7721 134.505 85.1134C134.062 85.2861 133.716 85.4099 133.48 85.4889C133.371 85.5248 133.284 85.5541 133.212 85.5777C133.151 85.5967 133.12 85.6047 133.118 85.6016Z" fill="#2F2D2D"/>
<path d="M140.145 59.3516C140.207 59.369 139.484 62.1416 138.531 65.5437C137.578 68.9466 136.756 71.6899 136.695 71.6726C136.633 71.6553 137.356 68.8835 138.308 65.4806C139.261 62.079 140.084 59.3343 140.145 59.3516Z" fill="#2F2D2D"/>
<path d="M151.474 68.1831C151.467 68.1862 151.419 68.0904 151.334 67.9049C151.242 67.6976 151.121 67.4273 150.972 67.0909C150.659 66.3838 150.206 65.3612 149.619 64.1096C148.448 61.6072 146.73 58.1927 144.56 54.5777C144.388 54.2936 144.218 54.0113 144.049 53.7326L143.979 53.6172L144.103 53.5657C144.819 53.2701 145.519 52.9812 146.2 52.6993L146.172 52.8906C145.471 52.3074 144.66 51.9111 143.844 51.7185L143.768 51.7007L143.762 51.6235C143.647 50.264 143.363 49.0248 143.107 47.9223C142.848 46.8194 142.626 45.8442 142.496 45.0267C142.363 44.2091 142.313 43.5536 142.305 43.1053C142.298 42.8816 142.309 42.7085 142.311 42.5922C142.315 42.4764 142.321 42.416 142.327 42.416C142.342 42.416 142.348 42.6575 142.374 43.1022C142.404 43.5474 142.473 44.1958 142.623 45.0045C142.77 45.8141 143.007 46.7798 143.281 47.8806C143.55 48.9813 143.849 50.2263 143.975 51.6062L143.892 51.5112C144.742 51.7056 145.587 52.1135 146.316 52.7167L146.46 52.836L146.287 52.9079C145.607 53.1911 144.907 53.4818 144.192 53.7788L144.246 53.6123C144.415 53.8915 144.586 54.1742 144.759 54.4587C146.934 58.0831 148.633 61.5171 149.768 64.0417C150.336 65.3039 150.767 66.3377 151.055 67.0562C151.188 67.3993 151.295 67.6754 151.376 67.8871C151.447 68.0784 151.482 68.18 151.474 68.1831Z" fill="#2F2D2D"/>
<path d="M136.184 91.3395C136.187 91.3475 136.13 91.4265 136.018 91.5707C135.889 91.7327 135.726 91.9378 135.524 92.1908C135.075 92.7402 134.458 93.4961 133.704 94.4206L133.656 94.287C135.957 94.7193 139.066 95.3039 142.504 95.9501L142.388 95.9963C142.432 95.9346 142.481 95.8675 142.528 95.801C143.397 94.5924 144.232 93.4317 144.997 92.3661L145.073 92.5383C142.511 92.2059 140.305 91.92 138.706 91.7128C137.938 91.6058 137.317 91.5188 136.857 91.4549C136.659 91.4238 136.495 91.399 136.36 91.3777C136.247 91.3586 136.187 91.3457 136.184 91.3395C136.182 91.3337 136.237 91.335 136.347 91.343C136.478 91.3546 136.639 91.3688 136.833 91.3861C137.291 91.4345 137.909 91.4997 138.673 91.5805C140.288 91.7665 142.514 92.023 145.1 92.3213L145.284 92.3426L145.175 92.4939C144.412 93.5613 143.582 94.7246 142.717 95.9354C142.669 96.0025 142.621 96.069 142.576 96.1307L142.534 96.1911L142.461 96.1769C139.027 95.5054 135.923 94.8982 133.624 94.4486L133.485 94.4211L133.577 94.3145C134.366 93.4016 135.011 92.6546 135.48 92.1113C135.692 91.873 135.863 91.6799 135.998 91.5277C136.118 91.3972 136.181 91.3319 136.184 91.3395Z" fill="#2F2D2D"/>
<path d="M139.403 52.6482C139.362 52.6549 139.29 52.2221 139.056 51.5639C138.824 50.9061 138.395 50.0318 137.723 49.2076C137.046 48.3856 136.273 47.7935 135.673 47.4375C135.074 47.0789 134.664 46.9231 134.678 46.885C134.683 46.8699 134.79 46.8969 134.979 46.9586C135.171 47.0168 135.437 47.1304 135.754 47.2951C136.387 47.6222 137.204 48.2134 137.901 49.0607C138.596 49.9111 139.015 50.8276 139.211 51.5133C139.311 51.856 139.37 52.1396 139.39 52.338C139.413 52.5364 139.418 52.646 139.403 52.6482Z" fill="#2F2D2D"/>
<path d="M134.778 94.586L134.193 95.7289L142.496 97.5149L144.571 93.1484L142.482 96.0636L134.778 94.586Z" fill="black"/>
<path d="M166.12 70.531C165.912 69.6002 165.88 68.6313 166.026 67.6891C166.113 67.1218 166.192 66.5329 166.086 65.9692C165.98 65.4051 165.455 64.8099 164.884 64.856L164.023 68.994L166.12 70.531Z" fill="#F3AE92"/>
<path d="M165.721 60.8173L162.687 75.4458L155.497 75.0086L157.628 60.5377C157.684 60.1564 158.011 59.8741 158.396 59.875L164.962 59.8839C165.454 59.8843 165.821 60.3362 165.721 60.8173Z" fill="#2F2D2D"/>
<path d="M157.635 64.6158C157.646 64.6175 157.684 64.464 157.745 64.1852C157.807 63.8794 157.888 63.4809 157.986 63.002C158.085 62.4924 158.2 61.8977 158.327 61.2426C158.344 61.1614 158.355 61.0704 158.379 61.0047C158.405 60.9346 158.448 60.8702 158.506 60.8196C158.563 60.769 158.634 60.7322 158.709 60.7162C158.78 60.6975 158.872 60.7069 158.965 60.7042C159.332 60.7029 159.712 60.7011 160.101 60.6993C161.657 60.6909 163.066 60.6749 164.086 60.6558C164.575 60.6434 164.981 60.6332 165.293 60.6252C165.578 60.6145 165.736 60.6039 165.736 60.5932C165.736 60.583 165.578 60.5742 165.293 60.5666C164.981 60.5622 164.574 60.5564 164.085 60.5493C163.065 60.5413 161.657 60.5404 160.1 60.5493C159.711 60.5515 159.332 60.5546 158.964 60.5568C158.875 60.5608 158.782 60.5493 158.677 60.5742C158.577 60.5963 158.484 60.6456 158.41 60.7126C158.335 60.7788 158.279 60.8644 158.246 60.9563C158.214 61.0539 158.208 61.1343 158.191 61.2177C158.076 61.875 157.971 62.4716 157.882 62.9824C157.803 63.4653 157.737 63.8666 157.687 64.175C157.644 64.4573 157.626 64.6135 157.635 64.6158Z" fill="#2F2D2D"/>
<path d="M161.479 61.4255C161.547 61.2963 161.692 61.1388 161.908 61.212C161.992 61.2218 162.156 61.3491 162.164 61.4978C162.171 61.6434 162.093 61.7921 161.966 61.8631C161.838 61.9341 161.667 61.9199 161.557 61.824C161.447 61.7277 161.411 61.5546 161.479 61.4255Z" fill="#FAFAFA"/>
<path d="M161.678 65.8408C161.843 65.883 165.648 67.847 165.648 67.847L167.633 69.9401C167.633 69.9401 168.349 71.1523 167.768 73.0421C167.187 74.9311 166.239 75.596 164.052 76.137L159.917 75.4841L157.828 73.7696C157.417 73.4318 157.252 72.8775 157.414 72.3697L157.442 72.2823L157.204 71.8873C157.055 71.6387 157.07 71.3254 157.241 71.0919C157.475 70.7728 157.924 70.7035 158.244 70.937L160.6 72.66L162.219 72.8739L162.462 72.3422L160.088 71.1097L157.066 68.7715C156.667 68.4622 156.605 67.8825 156.932 67.4964C157.211 67.1666 157.687 67.0858 158.059 67.3046L160.865 68.9548L163.795 70.2482L163.333 69.0844L159.889 66.5341C159.889 66.5341 159.618 65.3144 161.678 65.8408Z" fill="#F3AE92"/>
<path d="M161.314 63.8332C161.314 63.8332 160.522 63.38 159.203 63.9251C157.885 64.4705 156.207 65.2939 156.207 65.2939L153.683 66.0142L153.981 65.3906C153.981 65.3906 156.473 65.6432 156.353 63.8323L154.851 63.8975L153.562 63.2344L151.026 65.7035L150.07 69.1956L147.874 70.548L149.85 76.6348L153.414 74.4272L158.354 74.3304L160.164 72.8698L160.365 71.0105L162.136 69.2054C162.136 69.2054 162.361 68.3009 161.545 68.2143C160.728 68.1282 158.76 70.0807 158.76 70.0807L156.789 70.1295C156.789 70.1295 156.45 69.8188 156.727 69.6444C157.005 69.4691 162.817 66.6134 163.074 65.972C163.331 65.3311 163.597 64.9135 163.02 64.7351C162.443 64.5571 161.481 64.8829 161.481 64.8829C161.481 64.8829 161.752 63.9725 161.314 63.8332Z" fill="#F3AE92"/>
<path d="M156.509 67.4008C156.528 67.4376 157.687 66.897 159.098 66.1936C160.511 65.4892 161.64 64.8887 161.622 64.8514C161.603 64.8145 160.443 65.3551 159.032 66.0591C157.62 66.763 156.49 67.3635 156.509 67.4008Z" fill="#D0724B"/>
<path d="M155.337 72.0426C155.335 72.0524 155.44 72.087 155.633 72.138C155.826 72.1882 156.107 72.2588 156.46 72.3209C156.813 72.3817 157.241 72.4354 157.721 72.4083C158.199 72.3839 158.725 72.2512 159.215 71.9956C160.207 71.4825 160.865 70.6982 161.304 70.1434C161.524 69.8611 161.691 69.6255 161.804 69.4612C161.917 69.2961 161.975 69.202 161.967 69.1958C161.948 69.1812 161.677 69.5305 161.222 70.076C160.764 70.6112 160.104 71.3675 159.147 71.8615C158.672 72.1083 158.173 72.2383 157.711 72.2707C157.248 72.304 156.827 72.2623 156.476 72.2161C155.774 72.1136 155.343 72.0173 155.337 72.0426Z" fill="#D0724B"/>
<defs>
<clipPath id="clip0_658_43892">
<rect width="136" height="167" fill="white" transform="translate(26.5 1)"/>
</clipPath>
<clipPath id="clip1_658_43892">
<rect width="37" height="15" fill="white" transform="translate(129.5 110)"/>
</clipPath>
</defs>
</svg>
