<svg width="179" height="32" viewBox="0 0 179 32" fill="none" xmlns="http://www.w3.org/2000/svg" class="logo"><path d="M9.22878 13.9029L7.68259 16.0005C7.68259 16.0005 7.58596 15.9029 7.441 15.8054C7.29605 15.7078 7.10278 15.6103 6.90951 15.5127C6.66792 15.4151 6.42632 15.3176 6.13641 15.2688C5.8465 15.1712 5.55659 15.1225 5.26668 15.1225C4.88014 15.1225 4.49359 15.22 4.10705 15.4151C3.7205 15.6103 3.52723 15.9517 3.52723 16.4883C3.52723 16.9273 3.67219 17.3176 4.01041 17.5615C4.30032 17.8541 4.73518 18.0981 5.17005 18.2932C5.65323 18.5371 6.13642 18.7322 6.66792 18.9761C7.19942 19.22 7.73091 19.5127 8.16578 19.8541C8.64896 20.1956 9.03551 20.6346 9.32542 21.1224C9.61533 21.6102 9.8086 22.2444 9.8086 23.0249C9.8086 24.3419 9.37373 25.4151 8.45569 26.2931C7.58596 27.1712 6.32968 27.5614 4.7835 27.5614C3.86545 27.5614 2.99573 27.4151 2.126 27.0736C1.25627 26.781 0.5315 26.2931 0 25.7078C0.144955 25.5614 0.33823 25.3175 0.531503 25.0736C0.724776 24.8297 0.918048 24.5858 1.11132 24.3419C1.30459 24.098 1.44955 23.9029 1.5945 23.7566C1.73946 23.6102 1.78778 23.5127 1.83609 23.5127C1.83609 23.5127 1.93273 23.6102 2.07768 23.7078C2.27096 23.8053 2.46423 23.9517 2.75414 24.098C3.04405 24.2444 3.33396 24.3419 3.67219 24.4395C4.01042 24.5371 4.34864 24.5858 4.73519 24.5858C5.31501 24.5858 5.74987 24.4395 6.18473 24.1468C6.57128 23.8541 6.76455 23.5127 6.76455 23.0249C6.76455 22.5858 6.6196 22.2932 6.28137 22.0005C5.94314 21.7078 5.5566 21.5127 5.12173 21.3176C4.63855 21.1224 4.15536 20.8785 3.57555 20.6834C2.99573 20.4395 2.51255 20.1956 2.02936 19.8054C1.54618 19.4639 1.15964 19.0249 0.869729 18.4883C0.57982 17.9517 0.386547 17.2688 0.386547 16.4395C0.386547 15.659 0.531499 14.9761 0.821408 14.4395C1.11132 13.9029 1.49786 13.4639 1.93273 13.1225C2.36759 12.781 2.8991 12.5371 3.4306 12.3908C4.01042 12.2444 4.54191 12.1469 5.02509 12.1469C5.70155 12.1469 6.42632 12.2932 7.19941 12.5859C8.06914 12.9761 8.69728 13.3664 9.22878 13.9029Z" fill="#0A549C"></path><path d="M11.9824 20.0981C11.9824 19.025 12.1757 18.0006 12.6106 17.0738C12.9971 16.1469 13.5769 15.3177 14.2534 14.586C14.9298 13.8543 15.7512 13.3177 16.6693 12.8787C17.5873 12.4396 18.5537 12.2445 19.6167 12.2445C20.2932 12.2445 20.9696 12.3421 21.5494 12.4884C22.1292 12.6835 22.6124 12.8787 23.0473 13.1226C23.4822 13.3665 23.8204 13.6591 24.062 13.9518C24.3036 14.2445 24.4968 14.4884 24.5935 14.6835L24.7384 12.6347H27.5892V27.2689H24.5935V25.4152C24.4968 25.6103 24.3036 25.8054 24.0137 26.0981C23.7721 26.342 23.4338 26.5859 22.999 26.8298C22.6124 27.0737 22.1292 27.2689 21.5494 27.4152C20.9696 27.5615 20.3415 27.6591 19.6167 27.6591C18.5054 27.6591 17.4907 27.464 16.5243 27.0249C15.6063 26.6347 14.7849 26.0493 14.1084 25.3664C13.432 24.6835 12.9005 23.8542 12.5139 22.9762C12.1274 22.0981 11.9824 21.0737 11.9824 20.0981ZM14.9781 19.903C14.9781 20.5859 15.1231 21.2201 15.3647 21.8055C15.6063 22.3908 15.9445 22.8786 16.3794 23.3176C16.8142 23.7567 17.2974 24.0493 17.8772 24.342C18.4571 24.5859 19.0852 24.7323 19.81 24.7323C20.4864 24.7323 21.1629 24.5859 21.7427 24.342C22.3225 24.0981 22.854 23.7567 23.2889 23.3176C23.7237 22.8786 24.062 22.3908 24.3036 21.8055C24.5452 21.2201 24.6418 20.5859 24.6418 19.903C24.6418 19.2201 24.5452 18.586 24.3036 18.0006C24.062 17.4152 23.7237 16.9274 23.2889 16.4884C22.854 16.0494 22.3708 15.7567 21.7427 15.464C21.1629 15.2201 20.4864 15.0738 19.81 15.0738C19.1335 15.0738 18.4571 15.2201 17.8772 15.464C17.2974 15.7079 16.8142 16.0494 16.3794 16.4884C15.9445 16.9274 15.6546 17.4152 15.3647 18.0006C15.0748 18.586 14.9781 19.2201 14.9781 19.903Z" fill="#0A549C"></path><path d="M39.8128 13.9029L38.2666 16.0005C38.2666 16.0005 38.1699 15.9029 38.025 15.8054C37.88 15.7078 37.6868 15.6103 37.4935 15.5127C37.2519 15.4151 37.0103 15.3176 36.7204 15.2688C36.4305 15.1712 36.1406 15.1225 35.8507 15.1225C35.4641 15.1225 35.0776 15.22 34.691 15.4151C34.3045 15.6103 34.1112 15.9517 34.1112 16.4883C34.1112 16.9273 34.2562 17.3176 34.5944 17.5615C34.8843 17.8541 35.3192 18.0981 35.754 18.2932C36.2372 18.5371 36.7204 18.7322 37.2519 18.9761C37.7834 19.22 38.3149 19.5127 38.7498 19.8541C39.2329 20.1956 39.6195 20.6346 39.9094 21.1224C40.1993 21.6102 40.3926 22.2444 40.3926 23.0249C40.3926 24.3419 39.9577 25.4151 39.0397 26.2931C38.17 27.1712 36.9137 27.5614 35.3675 27.5614C34.4494 27.5614 33.5797 27.4151 32.71 27.0736C31.8403 26.781 31.1155 26.2931 30.584 25.7078C30.7289 25.5614 30.9222 25.3175 31.1155 25.0736C31.3088 24.8297 31.502 24.5858 31.6953 24.3419C31.8886 24.098 32.0335 23.9029 32.1785 23.7566C32.3234 23.6102 32.3718 23.5127 32.4201 23.5127C32.4201 23.5127 32.5167 23.6102 32.6617 23.7078C32.8549 23.8053 33.0482 23.9517 33.3381 24.098C33.628 24.2444 33.9179 24.3419 34.2562 24.4395C34.5944 24.5371 34.9326 24.5858 35.3192 24.5858C35.899 24.5858 36.3339 24.4395 36.7687 24.1468C37.1553 23.8541 37.3485 23.5127 37.3485 23.0249C37.3485 22.5858 37.2036 22.2932 36.8654 22.0005C36.5271 21.7078 36.1406 21.5127 35.7057 21.3176C35.2225 21.1224 34.7394 20.8785 34.1595 20.6834C33.5797 20.4395 33.0965 20.1956 32.6133 19.8054C32.1302 19.4639 31.7436 19.0249 31.4537 18.4883C31.1638 17.9517 30.9705 17.2688 30.9705 16.4395C30.9705 15.659 31.1155 14.9761 31.4054 14.4395C31.6953 13.9029 32.0819 13.4639 32.5167 13.1225C32.9516 12.781 33.4831 12.5371 34.0146 12.3908C34.5944 12.2444 35.1259 12.1469 35.6091 12.1469C36.2855 12.1469 37.0103 12.2932 37.7834 12.5859C38.6048 12.9761 39.2813 13.3664 39.8128 13.9029Z" fill="#0A549C"></path><path d="M47.643 5.41443V10.2925H52.04V12.6339H47.643V21.8046C47.643 23.9022 48.2229 25.1217 49.9623 25.1217C50.7837 25.1217 51.3635 25.0241 51.7501 24.9266L51.895 27.268C51.3152 27.5119 50.3489 27.7071 49.1892 27.7071C47.7397 27.7071 46.6284 27.268 45.9036 26.39C45.0339 25.4632 44.744 23.951 44.744 21.951V12.6339H42.1348V10.2925H44.744V6.19491L47.643 5.41443Z" fill="#0A549C"></path><path d="M54.0195 20.0981C54.0195 19.025 54.2128 18.0006 54.6477 17.0738C55.0342 16.1469 55.614 15.3177 56.2905 14.586C56.9669 13.8543 57.7883 13.3177 58.7064 12.8787C59.6244 12.4396 60.5908 12.2445 61.6538 12.2445C62.3303 12.2445 63.0067 12.3421 63.5865 12.4884C64.1664 12.6835 64.6495 12.8787 65.0844 13.1226C65.5193 13.3665 65.8575 13.6591 66.0991 13.9518C66.3407 14.2445 66.5339 14.4884 66.6306 14.6835L66.7755 12.6347H69.6263V27.2689H66.6306V25.4152C66.5339 25.6103 66.3407 25.8054 66.0508 26.0981C65.8092 26.342 65.4709 26.5859 65.0361 26.8298C64.6495 27.0737 64.1664 27.2689 63.5865 27.4152C63.0067 27.5615 62.3786 27.6591 61.6538 27.6591C60.5425 27.6591 59.5278 27.464 58.5614 27.0249C57.6434 26.6347 56.822 26.0493 56.1455 25.3664C55.4691 24.6835 54.9376 23.8542 54.551 22.9762C54.1645 22.0981 54.0195 21.0737 54.0195 20.0981ZM57.0153 19.903C57.0153 20.5859 57.1602 21.2201 57.4018 21.8055C57.6434 22.3908 57.9816 22.8786 58.4165 23.3176C58.8513 23.7567 59.3345 24.0493 59.9144 24.342C60.4942 24.5859 61.1223 24.7323 61.8471 24.7323C62.5235 24.7323 63.2 24.5859 63.7798 24.342C64.3596 24.0981 64.8911 23.7567 65.326 23.3176C65.7609 22.8786 66.0991 22.3908 66.3407 21.8055C66.5823 21.2201 66.6789 20.5859 66.6789 19.903C66.6789 19.2201 66.5823 18.586 66.3407 18.0006C66.0991 17.4152 65.7609 16.9274 65.326 16.4884C64.8911 16.0494 64.4079 15.7567 63.7798 15.464C63.2 15.2201 62.5235 15.0738 61.8471 15.0738C61.1706 15.0738 60.4942 15.2201 59.9144 15.464C59.3345 15.7079 58.8513 16.0494 58.4165 16.4884C57.9816 16.9274 57.6917 17.4152 57.4018 18.0006C57.1602 18.586 57.0153 19.2201 57.0153 19.903Z" fill="#0A549C"></path><path d="M77.8891 5.41443V10.2925H82.2861V12.6339H77.8891V21.8046C77.8891 23.9022 78.469 25.1217 80.2084 25.1217C81.0298 25.1217 81.6096 25.0241 81.9962 24.9266L82.1411 27.268C81.5613 27.5119 80.5949 27.7071 79.4353 27.7071C77.9858 27.7071 76.8745 27.268 76.1497 26.39C75.28 25.4632 74.9901 23.951 74.9901 21.951V12.6339H72.3809V10.2925H74.9901V6.19491L77.8891 5.41443Z" fill="#0A549C"></path><path d="M84.8945 6.97692C84.8945 6.39156 85.0878 5.95254 85.5227 5.56229C85.9092 5.17205 86.3441 4.97693 86.8272 4.97693C87.3104 4.97693 87.6969 5.17205 88.1318 5.56229C88.5183 5.95254 88.7116 6.39156 88.7116 6.97692C88.7116 7.56229 88.5183 8.00131 88.1318 8.34277C87.7453 8.68423 87.3104 8.87936 86.8272 8.87936C86.3441 8.87936 85.9092 8.68423 85.5227 8.34277C85.0878 8.00131 84.8945 7.56229 84.8945 6.97692ZM88.2284 27.2695H85.2811V12.5867H88.2284V27.2695Z" fill="#0A549C"></path><path d="M102.144 23.659C102.482 24.0493 102.772 24.4395 103.062 24.781C103.352 25.1224 103.642 25.5127 103.932 25.9029C103.304 26.4395 102.531 26.8297 101.758 27.1224C100.936 27.4151 100.066 27.5614 99.1001 27.5614C98.0371 27.5614 97.0224 27.3663 96.1043 26.9273C95.1863 26.5371 94.3649 25.9517 93.6401 25.2688C92.9636 24.5858 92.3838 23.7566 91.9973 22.8297C91.6107 21.9029 91.3691 20.8785 91.3691 19.8541C91.3691 18.781 91.5624 17.8054 91.9973 16.8785C92.3838 15.9517 92.9636 15.1225 93.6401 14.4395C94.3166 13.7566 95.138 13.22 96.1043 12.781C97.0224 12.3908 98.0371 12.1469 99.1001 12.1469C100.066 12.1469 100.985 12.2932 101.806 12.5859C102.627 12.8786 103.4 13.3176 104.029 13.8054L102.096 16.0981C101.709 15.7566 101.226 15.5127 100.743 15.3664C100.211 15.1712 99.6799 15.1225 99.0518 15.1225C98.3753 15.1225 97.6988 15.2688 97.119 15.5127C96.5392 15.7566 96.056 16.0981 95.6212 16.5371C95.1863 16.9761 94.8481 17.4639 94.6065 18.0493C94.3649 18.6346 94.2682 19.2688 94.2682 19.9517C94.2682 20.6346 94.3649 21.2688 94.6065 21.8541C94.8481 22.4395 95.1863 22.9273 95.6212 23.3663C96.056 23.8054 96.5392 24.1468 97.119 24.3907C97.6988 24.6346 98.327 24.781 99.0518 24.781C99.6316 24.781 100.211 24.6834 100.743 24.5371C101.274 24.2444 101.758 24.0005 102.144 23.659Z" fill="#0A549C"></path><path d="M117.222 12.1955L119.009 14.0003C118.14 14.8296 117.27 15.6101 116.497 16.3906C115.675 17.171 114.854 17.9515 113.984 18.8296C115.047 20.2442 116.062 21.6588 117.028 23.0735C118.043 24.4881 119.058 25.9027 120.072 27.3174H116.642C115.869 26.1954 115.047 25.1222 114.274 24.0491C113.453 22.9759 112.68 21.9027 111.906 20.7808L109.877 22.6344V27.2686H106.93V0.000366211H109.877V19.1223C111.182 17.9515 112.438 16.7808 113.598 15.6589C114.709 14.5857 115.965 13.415 117.222 12.1955Z" fill="#0A549C"></path><path d="M133.939 25.5615C133.263 26.1957 132.393 26.6835 131.378 27.0737C130.364 27.464 129.349 27.6591 128.334 27.6591C127.271 27.6591 126.257 27.464 125.339 27.0249C124.421 26.6347 123.599 26.0493 122.874 25.3664C122.198 24.6835 121.618 23.8542 121.232 22.9274C120.845 22.0006 120.604 20.9762 120.604 19.9518C120.604 18.8786 120.797 17.903 121.232 16.9762C121.618 16.0494 122.198 15.2201 122.874 14.5372C123.551 13.8543 124.372 13.2689 125.29 12.8787C126.208 12.4884 127.175 12.2445 128.238 12.2445C129.881 12.2445 131.33 12.7323 132.538 13.7567C133.746 14.7323 134.616 16.0494 135.147 17.6591C134.423 17.903 133.601 18.2445 132.683 18.5859C131.765 18.9762 130.799 19.3664 129.784 19.7567C128.769 20.1469 127.803 20.5859 126.788 20.9762C125.774 21.3664 124.856 21.7567 123.986 22.0494C124.372 22.8298 124.952 23.464 125.725 23.9518C126.498 24.4396 127.32 24.6835 128.238 24.6835C128.866 24.6835 129.494 24.5859 130.122 24.342C130.75 24.0981 131.282 23.8054 131.668 23.4152L133.939 25.5615ZM131.427 16.9274C131.137 16.3421 130.702 15.903 130.122 15.6103C129.542 15.3177 128.914 15.1713 128.286 15.1713C127.61 15.1713 126.982 15.3177 126.402 15.5616C125.822 15.8055 125.339 16.1469 124.904 16.586C124.469 17.025 124.179 17.5128 123.889 18.0981C123.648 18.6835 123.503 19.2201 123.503 19.8055C123.503 19.903 123.503 20.0006 123.503 20.0494C123.503 20.0981 123.503 20.1469 123.503 20.1469C124.082 19.903 124.759 19.6591 125.484 19.3664C126.208 19.0738 126.885 18.7811 127.61 18.4884C128.286 18.1957 128.963 17.903 129.639 17.6591C130.364 17.3664 130.944 17.1225 131.427 16.9274Z" fill="#0A549C"></path><path d="M141.864 5.41443V10.2925H146.261V12.6339H141.864V21.8046C141.864 23.9022 142.444 25.1217 144.183 25.1217C145.004 25.1217 145.584 25.0241 145.971 24.9266L146.116 27.268C145.536 27.5119 144.57 27.7071 143.41 27.7071C141.96 27.7071 140.849 27.268 140.124 26.39C139.255 25.4632 138.965 23.951 138.965 21.951V12.6339H136.355V10.2925H138.965V6.19491L141.864 5.41443Z" fill="#0A549C"></path><path d="M149.016 25.3168C149.016 24.7314 149.209 24.2924 149.644 23.9021C150.03 23.5119 150.513 23.3168 150.997 23.3168C151.48 23.3168 151.915 23.5119 152.301 23.9021C152.688 24.2924 152.929 24.7802 152.929 25.3168C152.929 25.9021 152.736 26.3899 152.301 26.7802C151.915 27.1217 151.48 27.3168 150.997 27.3168C150.465 27.3168 150.03 27.1217 149.644 26.7802C149.257 26.3899 149.016 25.9021 149.016 25.3168Z" fill="#FAAD14"></path><path d="M166.892 22.3899C166.892 23.1216 166.747 23.8045 166.506 24.4387C166.264 25.0728 165.926 25.6094 165.443 26.0484C165.008 26.4874 164.476 26.8777 163.848 27.1216C163.22 27.3655 162.544 27.5118 161.819 27.5118C161.432 27.5118 161.046 27.463 160.708 27.3655C160.369 27.2679 160.031 27.1704 159.741 27.024C159.451 26.8777 159.21 26.7313 158.968 26.5362C158.775 26.3411 158.582 26.1947 158.485 25.9996C158.485 26.0972 158.485 26.146 158.485 26.2435C158.485 26.3411 158.485 26.3899 158.485 26.4874V31.9996H156.504V17.5118H158.437C158.437 17.707 158.437 17.9509 158.485 18.1948C158.485 18.4875 158.533 18.7314 158.533 18.9265C158.678 18.7314 158.823 18.5362 159.016 18.3411C159.21 18.146 159.451 17.9509 159.741 17.8045C160.031 17.6582 160.369 17.5118 160.708 17.4143C161.046 17.3167 161.481 17.2679 161.867 17.2679C162.592 17.2679 163.268 17.3655 163.897 17.6094C164.525 17.8533 165.056 18.1948 165.491 18.6338C165.926 19.0728 166.264 19.6094 166.506 20.2435C166.796 20.8777 166.892 21.6094 166.892 22.3899ZM164.766 22.3899C164.766 21.9509 164.718 21.5118 164.573 21.1216C164.428 20.7313 164.235 20.3899 163.993 20.146C163.752 19.8533 163.413 19.6582 163.027 19.4631C162.64 19.3167 162.254 19.2192 161.771 19.2192C161.287 19.2192 160.901 19.3167 160.466 19.4631C160.079 19.6094 159.741 19.8533 159.451 20.146C159.161 20.4387 158.968 20.7801 158.775 21.1216C158.63 21.5118 158.533 21.9021 158.533 22.3899C158.533 22.8289 158.63 23.2679 158.775 23.6582C158.92 24.0484 159.161 24.3899 159.451 24.6826C159.741 24.9752 160.079 25.1704 160.466 25.3655C160.853 25.5118 161.287 25.6094 161.771 25.6094C162.254 25.6094 162.64 25.5118 163.027 25.3655C163.413 25.2191 163.703 24.9752 163.993 24.6826C164.235 24.3899 164.476 24.0484 164.573 23.6582C164.67 23.2191 164.766 22.8289 164.766 22.3899Z" fill="#0A549C"></path><path d="M176.171 17.2189L177.33 18.3897C176.751 18.9263 176.171 19.4628 175.639 19.9994C175.108 20.536 174.528 21.0726 173.948 21.6092C174.625 22.536 175.301 23.4628 175.977 24.4384C176.654 25.3653 177.33 26.3409 178.007 27.2677H175.736C175.204 26.536 174.673 25.8043 174.141 25.1214C173.61 24.3897 173.078 23.7067 172.547 22.975L171.194 24.1945V27.2677H169.213V9.07263H171.194V21.8531C172.064 21.0726 172.885 20.2921 173.658 19.5604C174.528 18.7799 175.349 18.0482 176.171 17.2189Z" fill="#0A549C"></path></svg>