<svg width="197" height="172" viewBox="0 0 197 172" fill="none" xmlns="http://www.w3.org/2000/svg">
<g clip-path="url(#clip0_658_44191)">
<path d="M196.332 168.17C196.332 170.385 152.493 172.181 98.4158 172.181C44.3385 172.181 0.5 170.385 0.5 168.17C0.5 165.955 44.3385 164.16 98.4158 164.16C152.493 164.16 196.332 165.955 196.332 168.17Z" fill="#C7CAD8"/>
<g clip-path="url(#clip1_658_44191)">
<mask id="mask0_658_44191" style="mask-type:luminance" maskUnits="userSpaceOnUse" x="20" y="-1" width="209" height="172">
<path d="M228.5 -0.00390625H20.5V170.996H228.5V-0.00390625Z" fill="white"/>
</mask>
<g mask="url(#mask0_658_44191)">
<path d="M123.688 5.11972C123.685 5.11751 123.684 5.11549 123.679 5.11328V5.12636C105.721 20.0901 82.2844 31.7875 53.3691 40.2182C53.3691 98.9621 79.3121 147.066 123.679 165.473V165.48C123.681 165.48 123.684 165.477 123.688 165.475C123.69 165.475 123.692 165.477 123.694 165.48V165.473C168.061 147.066 194.005 98.9621 194.005 40.2182C165.089 31.7875 141.652 20.0901 123.694 5.12636V5.11328C123.692 5.11549 123.69 5.11751 123.688 5.11972Z" fill="#3B76B0"/>
<g opacity="0.5">
<path d="M123.688 5.11972C123.685 5.11751 123.684 5.11549 123.679 5.11328V5.12636C105.721 20.0901 82.2844 31.7875 53.3691 40.2182C53.3691 98.9621 79.3121 147.066 123.679 165.473V165.48C123.681 165.48 123.684 165.477 123.688 165.475C123.69 165.475 123.692 165.477 123.694 165.48V165.473C168.061 147.066 194.005 98.9621 194.005 40.2182C165.089 31.7875 141.652 20.0901 123.694 5.12636V5.11328C123.692 5.11549 123.69 5.11751 123.688 5.11972Z" stroke="white" stroke-width="3.24781" stroke-linejoin="round"/>
</g>
</g>
<path d="M92.4235 106.134C56.2342 83.7228 37.5878 56.8522 31.4722 48.425C24.6909 39.0808 3.84731 -9.11116 87.5343 12.6158" stroke="#FAAD14" stroke-width="4.05974" stroke-linecap="round" stroke-linejoin="round"/>
<path d="M151.149 64.0397H146.504C145.852 64.0397 145.234 64.3359 144.836 64.8427L117.438 99.2171L104.301 82.7308C104.102 82.4809 103.849 82.2788 103.56 82.1397C103.271 82.0007 102.954 81.9282 102.633 81.9278H97.9879C97.5426 81.9278 97.2968 82.4346 97.5692 82.7768L115.77 105.614C116.621 106.68 118.255 106.68 119.113 105.614L151.567 64.8821C151.84 64.5465 151.594 64.0397 151.149 64.0397Z" fill="white"/>
</g>
<path d="M48.3352 115.207L37.318 78.7086C37.318 78.7086 38.0985 71.9535 46.949 71.8242C56.1906 71.6891 56.5896 78.7633 56.5896 78.7633L59.0229 114.317C59.0229 114.317 53.8618 122.97 48.3352 115.207Z" fill="#2F2D2D"/>
<path d="M29.5436 114.432L26.3533 78.8768C26.3533 78.8768 28.5205 72.8577 37.2038 74.5019C46.2708 76.2186 45.1909 82.7642 45.1909 82.7642L40.1819 115.747C40.1819 115.747 33.3356 122.629 29.5436 114.432Z" fill="#2F2D2D"/>
<path d="M65.2591 61.1963C65.4914 62.0698 60.9718 68.1022 59.6408 67.0217C57.5542 65.3281 53.7698 59.9069 53.249 57.2704C52.9108 55.559 48.9169 45.3687 49.0969 44.8915C49.3134 44.3179 56.7378 39.7759 57.0796 40.2849C60.8311 45.8721 63.8672 55.9625 65.2591 61.1963Z" fill="#F3AE92"/>
<path d="M55.6832 31.3277C55.5811 33.2082 56.8986 43.3359 56.7748 45.215C55.917 58.2331 53.7554 64.6303 56.5689 75.5508C56.7884 76.4025 57.0236 77.3303 56.6686 78.135C56.2165 79.1602 55.004 79.5742 53.9171 79.8465C44.9141 82.1015 35.3663 82.1469 26.3424 79.9776C24.6576 76.4925 26.88 72.4897 27.4583 68.6622C27.9024 65.7223 27.3444 62.7372 26.918 59.7947C25.4593 49.7282 26.2127 40.2704 27.8326 30.2287C30.2645 29.1632 32.6211 28.0449 35.0684 27.2264C35.0684 27.2264 40.2729 30.1787 43.9207 30.6325C46.7598 30.9857 51.873 29.2006 51.873 29.2006C53.7611 30.309 55.6832 31.3277 55.6832 31.3277Z" fill="#0A549C"/>
<path d="M61.6327 47.884C62.1707 49.2644 62.3781 48.9592 62.6109 50.4225C62.655 50.6999 52.7648 54.5424 52.5303 53.8195C50.9682 49.0054 50.6756 43.7858 51.6898 38.8273C51.9241 37.682 52.4073 30.3958 55.6835 31.328C56.9881 31.6992 58.1457 34.5744 59.0519 36.8384C60.4242 40.2671 60.2498 44.336 61.6327 47.884Z" fill="#0A549C"/>
<path d="M36.6596 37.8283C36.9968 40.1268 37.3341 42.4254 37.6713 44.7239C37.705 44.953 37.3462 44.9802 37.3127 44.7521C36.9755 42.4536 36.6383 40.155 36.301 37.8565C36.2674 37.6273 36.6261 37.6001 36.6596 37.8283Z" fill="#6D99C5"/>
<path d="M39.0268 40.6571C38.9601 42.2727 38.7494 43.8605 38.3846 45.4362C38.3326 45.6608 37.9789 45.5944 38.0314 45.3681C38.3886 43.8254 38.603 42.2678 38.6682 40.6853C38.6777 40.4569 39.0363 40.4261 39.0268 40.6571Z" fill="#6D99C5"/>
<path d="M55.7736 52.6255C55.8604 52.06 55.9471 51.4946 56.0339 50.9293C56.069 50.7005 56.4222 50.7684 56.3871 50.9974C56.3003 51.5628 56.2135 52.1282 56.1268 52.6936C56.0917 52.9222 55.7384 52.8544 55.7736 52.6255Z" fill="#6D99C5"/>
<path d="M55.0036 38.1911C54.9587 36.4323 54.8612 34.6772 54.7106 32.9242C54.6908 32.6936 55.0493 32.6651 55.0691 32.896C55.2197 34.649 55.3173 36.4041 55.3622 38.163C55.368 38.3935 55.0095 38.4231 55.0036 38.1911Z" fill="#6D99C5"/>
<path d="M51.9943 31.4665C50.8704 32.3324 49.7176 33.2077 48.3504 33.6474C47.0252 34.0737 45.5694 34.1835 44.1856 34.1268C41.4459 34.0144 38.8162 33.1164 36.5518 31.5795C36.3603 31.4496 36.5956 31.1773 36.7854 31.3061C39.045 32.8398 41.7182 33.7219 44.4541 33.7777C45.7103 33.8033 47.0275 33.6953 48.2279 33.3092C49.5663 32.8787 50.6895 32.0182 51.789 31.1712C51.9729 31.0295 52.1772 31.3256 51.9943 31.4665Z" fill="#6D99C5"/>
<path d="M50.6638 41.4332C49.0994 43.3464 47.5708 45.2967 45.9563 47.1681C44.6625 48.6677 43.2122 50.0364 41.3229 50.7272C41.1052 50.8068 40.983 50.4685 41.2005 50.3889C43.2246 49.6488 44.71 48.1022 46.0647 46.484C47.5258 44.739 48.9497 42.9616 50.3903 41.1996C50.5372 41.0201 50.8104 41.2539 50.6638 41.4332Z" fill="#6D99C5"/>
<path d="M50.4048 62.903C48.388 66.8936 44.8151 69.9214 40.5442 71.248C40.3236 71.3165 40.2005 70.9785 40.4217 70.9098C44.606 69.6101 48.1044 66.6576 50.081 62.7464C50.1853 62.5401 50.5096 62.6957 50.4048 62.903Z" fill="#6D99C5"/>
<path d="M52.2433 71.9821C51.1565 73.0879 49.3318 73.1251 47.894 73.3812C45.7931 73.7555 43.6922 74.1298 41.5913 74.504C41.3636 74.5446 41.337 74.1858 41.5631 74.1455C43.3234 73.8319 45.0836 73.5184 46.8438 73.2047C47.6955 73.0531 48.5474 72.9023 49.399 72.7495C50.3274 72.5831 51.2777 72.4529 51.9699 71.7486C52.1314 71.5842 52.4059 71.8167 52.2433 71.9821Z" fill="#6D99C5"/>
<path d="M49.9642 28.2901C50.6161 28.5607 51.1868 28.9672 51.8739 29.1984C50.7341 31.1275 46.4844 32.7758 44.2468 32.6569C40.8943 32.4788 35.9195 30.472 35.0693 27.2242L37.778 26.214C39.0346 23.9946 41.5648 18.1318 42.8426 16.1257C44.3332 18.9325 49.2371 21.8191 52.409 21.621C51.9033 23.2735 49.2945 28.0121 49.9642 28.2901Z" fill="#E89D7E"/>
<path d="M58.0883 16.4062C58.8226 19.736 55.3602 24.8455 53.5865 26.2312C53.1313 26.5868 51.1718 27.9069 49.2883 28.0075C46.2468 28.1701 45.3934 25.6544 43.9645 23.4766C42.5357 21.2988 43.483 19.873 43.4765 17.2684C43.4713 15.1804 43.1 12.2213 44.0985 10.3877C44.6045 9.45849 45.3166 8.58478 46.2962 8.18497C46.9606 7.91377 47.6945 7.88096 48.4116 7.85163C49.4236 7.81029 50.4358 7.76899 51.4478 7.72765C61.8532 7.30257 56.6879 10.0563 58.0883 16.4062Z" fill="#F3AE92"/>
<path d="M59.7754 10.1042C59.9617 10.8743 61.0938 10.9404 61.5577 11.5828C62.0191 12.2217 61.6409 13.1062 61.2566 13.7944C60.9391 14.3629 61.2899 15.6513 61.291 16.3024C61.2931 17.541 60.2912 17.9921 59.3896 18.0717C57.7756 18.2144 56.4685 16.8146 56.854 15.9957C56.2521 16.2951 55.6167 16.602 54.9452 16.5717C54.2735 16.5414 53.5721 16.0433 53.5681 15.371C53.5636 14.5928 54.4172 13.7486 53.9316 13.1673C53.7462 12.9453 53.4359 12.8638 53.1526 12.9222C49.4283 13.6906 51.7883 10.5775 49.1702 10.6053C48.2548 10.4667 47.0811 11.1662 46.8877 12.2058C46.4043 14.8046 46.0454 15.1673 44.607 16.1846C44.143 16.0287 44.0893 17.6364 43.949 18.1055C43.8086 18.5745 43.1912 18.4734 43.2056 18.9627C43.238 20.0673 41.9065 21.6363 40.2097 21.3187C38.0006 20.0533 40.3212 19.1746 39.788 18.5743C39.2829 18.0055 38.2602 17.7276 38.3014 16.9681C38.3313 16.4173 38.9539 16.0897 39.1406 15.5706C39.552 14.4264 37.6998 13.2399 38.3134 12.1901C38.6329 11.6435 39.4256 11.5958 39.8688 11.1438C40.5951 10.4036 40.0106 9.17821 40.0622 8.14251C40.1363 6.65455 41.9294 5.54069 43.2962 6.13369C43.188 5.62194 43.8351 5.21485 44.3432 5.33881C44.8514 5.46276 45.2104 5.90248 45.5306 6.31612C45.5814 5.01824 47.0614 3.99182 48.2947 4.39905C49.1868 4.69362 49.9194 5.58294 50.8515 5.46655C52.0973 5.31086 52.5332 4.19572 53.9192 4.31342C54.778 4.38631 56.284 5.09046 57.1425 5.40992C59.8893 6.43177 59.19 7.68354 59.7754 10.1042Z" fill="#262626"/>
<path d="M42.3742 16.8603C42.4958 16.4781 43.0043 13.3061 44.8446 14.1822C46.5399 14.9894 45.5175 17.7371 45.5175 17.7371C45.5718 18.497 44.5243 20.1562 43.7679 20.2469C42.3133 20.4213 41.8903 18.3807 42.3742 16.8603Z" fill="#F3AE92"/>
<path d="M54.2334 18.3738C54.1767 19.2169 53.3866 19.6728 53.6097 20.5661C53.7208 21.0114 54.0584 21.4741 54.0314 21.941C53.969 23.0229 52.5551 22.5897 51.899 22.8196C51.6804 22.8961 51.5579 22.5579 51.7765 22.4813C52.1426 22.3531 52.5299 22.4084 52.9097 22.3781C53.296 22.3474 53.707 22.3061 53.6583 21.7597C53.643 21.587 53.4988 21.3629 53.4399 21.2032C53.2984 20.8193 53.1291 20.3664 53.1755 19.9492C53.2439 19.3332 53.8371 18.9467 53.8802 18.3056C53.8956 18.0755 54.2488 18.1451 54.2334 18.3738Z" fill="#262626"/>
<path d="M49.7903 22.8966C49.9492 23.2635 50.1227 23.6573 50.5632 23.6981C50.8127 23.7212 50.9492 23.5562 51.1873 23.5663C51.6873 23.5874 51.7719 24.2019 52.3924 24.0484C52.6109 23.9944 52.7324 24.322 52.5123 24.3764C52.2283 24.4467 51.9492 24.4514 51.681 24.3159C51.563 24.2562 51.4921 24.1562 51.3844 24.0913C51.0072 23.8647 51.0311 24.0327 50.7286 24.0829C50.052 24.195 49.6803 23.5276 49.4585 23.0157C49.3689 22.809 49.7013 22.6912 49.7903 22.8966Z" fill="#262626"/>
<path d="M51.3643 25.2197C50.9073 25.1912 50.469 25.0894 50.0429 24.923C49.8274 24.8388 49.9846 24.5153 50.1996 24.5992C50.5967 24.7542 51.0073 24.8399 51.4324 24.8665C51.6624 24.8809 51.5928 25.234 51.3643 25.2197Z" fill="#262626"/>
<path d="M52.4962 16.5624C51.868 15.441 50.7222 14.7401 49.4314 14.7285C49.2018 14.7264 49.1715 14.3679 49.4032 14.37C50.8163 14.3827 52.0985 15.1198 52.7917 16.3572C52.904 16.5577 52.6093 16.7644 52.4962 16.5624Z" fill="#262626"/>
<path d="M57.2764 18.038C57.4027 17.5648 56.7012 17.4325 56.3821 17.3966C55.9501 17.3481 55.5252 17.4013 55.1093 17.5208C54.8877 17.5845 54.7642 17.2465 54.9868 17.1826C55.6054 17.0048 56.3346 16.9248 56.9551 17.1489C57.3643 17.2967 57.7553 17.6353 57.6296 18.1061C57.5703 18.3282 57.2166 18.2624 57.2764 18.038Z" fill="#262626"/>
<path d="M44.5732 15.7517C44.078 15.551 43.7928 15.6247 43.7174 15.973C43.664 16.1036 43.6236 16.2383 43.5965 16.3771C43.5443 16.5871 43.5125 16.8026 43.483 17.0165C43.4254 17.4335 43.1786 18.3939 43.6216 18.6761C43.8145 18.7989 43.6605 19.1244 43.465 18.9999C43.044 18.7318 43.0107 18.3324 43.0361 17.8549C43.0752 17.1189 43.1157 16.1396 43.539 15.5029C43.9878 14.8277 45.2259 14.9618 44.897 15.9083C44.8212 16.1264 44.4979 15.9684 44.5732 15.7517Z" fill="#262626"/>
<path d="M58.4952 11.7791C59.1497 12.0715 59.1877 12.997 58.7212 13.4782C58.1016 14.1173 57.0817 13.7216 56.5906 13.1396C56.4411 12.9624 56.7379 12.7588 56.886 12.9343C57.2323 13.3448 57.9681 13.6747 58.4356 13.2531C58.7677 12.9536 58.7816 12.3009 58.3386 12.103C58.1272 12.0085 58.2836 11.6846 58.4952 11.7791Z" fill="#595959"/>
<path d="M56.9735 7.45574C57.2813 8.12963 57.6367 9.21736 56.7959 9.69626C56.3059 9.97534 55.8052 9.67922 55.3109 9.5736C54.3478 9.36791 53.411 9.55386 52.5662 10.0467C52.3672 10.1629 52.1609 9.86807 52.3609 9.7514C53.0499 9.34942 53.7825 9.11618 54.5875 9.13075C54.9593 9.13749 55.3063 9.26086 55.6689 9.2982C56.0371 9.33614 56.5573 9.36896 56.8805 9.0833C57.2215 8.78186 56.7956 7.92895 56.6354 7.57822C56.5391 7.36735 56.878 7.24651 56.9735 7.45574Z" fill="#595959"/>
<path d="M52.2634 6.84514C51.9928 8.16495 50.564 8.72466 49.4518 7.98982C49.2589 7.86235 49.4944 7.59021 49.6855 7.71638C50.5783 8.30627 51.6979 7.81248 51.9102 6.77701C51.9566 6.55064 52.3101 6.61758 52.2634 6.84514Z" fill="#595959"/>
<path d="M46.9312 8.19592C46.6255 9.95834 44.5071 10.5055 43.3496 9.17067C43.1979 8.99565 43.4949 8.79219 43.6451 8.96536C44.6158 10.0847 46.3289 9.56359 46.578 8.12785C46.6175 7.89993 46.9708 7.9674 46.9312 8.19592Z" fill="#595959"/>
<path d="M45.1121 11.7637C44.7561 12.7472 43.7734 13.3379 42.7416 13.2426C42.5117 13.2213 42.5807 12.8682 42.8098 12.8894C43.6894 12.9707 44.4912 12.428 44.7883 11.6071C44.867 11.3898 45.1904 11.5475 45.1121 11.7637Z" fill="#595959"/>
<path d="M42.3309 11.2217C42.1286 11.8609 41.6336 12.3572 40.977 12.5214C40.7543 12.5771 40.6301 12.2393 40.8546 12.1832C41.3807 12.0516 41.8121 11.6768 41.9778 11.1535C42.0467 10.9358 42.4009 11.0008 42.3309 11.2217Z" fill="#595959"/>
<path d="M59.9912 15.2508C59.7947 16.0245 58.9611 16.4563 58.2142 16.1893C57.9966 16.1116 58.1544 15.7882 58.3708 15.8656C58.8924 16.052 59.5029 15.7148 59.638 15.1828C59.6947 14.9597 60.0483 15.0257 59.9912 15.2508Z" fill="#595959"/>
<path d="M43.6978 7.02734C43.4893 8.12257 42.1974 8.54674 41.3864 7.77031C41.2198 7.6107 41.4525 7.33642 41.6201 7.49687C42.2335 8.08417 43.1841 7.80216 43.3446 6.95927C43.3878 6.73211 43.7412 6.79931 43.6978 7.02734Z" fill="#595959"/>
<path d="M56.3981 10.8955C56.0477 11.9448 54.735 12.1222 54.0621 11.2802C53.9172 11.0989 54.2136 10.895 54.3574 11.0749C54.8822 11.7314 55.8175 11.5078 56.0743 10.739C56.1473 10.5201 56.4706 10.6783 56.3981 10.8955Z" fill="#595959"/>
<path d="M41.5061 14.4823C41.6595 15.2942 41.062 16.0823 40.2588 16.2064C40.0299 16.2418 40.0028 15.883 40.2306 15.8478C40.8557 15.7512 41.2625 15.1189 41.1476 14.5105C41.1047 14.2834 41.4635 14.257 41.5061 14.4823Z" fill="#595959"/>
<path d="M55.3138 19.275C55.173 19.6274 55.2346 19.9833 55.4515 20.0699C55.6683 20.1566 55.9583 19.9413 56.0991 19.589C56.2399 19.2368 56.1783 18.8809 55.9615 18.7942C55.7446 18.7075 55.4547 18.9228 55.3138 19.275Z" fill="#262626"/>
<path d="M50.8402 17.9392C50.6994 18.2915 50.7609 18.6474 50.9778 18.7341C51.1947 18.8207 51.4847 18.6054 51.6254 18.2531C51.7663 17.9008 51.7047 17.545 51.4878 17.4582C51.271 17.3716 50.981 17.5869 50.8402 17.9392Z" fill="#262626"/>
<path d="M53.1888 46.2041C53.6177 45.7421 54.9219 42.6047 55.0831 41.8984C55.3577 40.6945 56.4098 39.8173 57.5168 39.2703C60.4881 37.8019 64.2892 38.2029 66.8889 40.2587C66.0349 41.0455 64.6907 40.4987 63.5929 40.1203C62.495 39.7419 60.8297 39.9347 60.76 41.0939C61.6739 41.3925 62.6127 41.7432 63.2784 42.4369C63.9441 43.1307 64.2483 44.2641 63.7265 45.0717C63.4767 45.2053 63.1516 45.1839 62.9214 45.0185C63.257 46.0728 62.7108 46.2878 62.6054 46.9225C62.2168 46.9749 61.8102 46.8799 61.485 46.6608C61.7102 47.9002 61.4631 49.2109 59.9606 48.2514C59.3571 47.8658 58.8134 50.4478 57.1188 50.2593C52.4494 56.5178 48.097 62.8354 41.456 66.9426C36.0783 70.2684 33.08 69.147 32.0385 67.7929C30.6215 65.9505 25.8067 54.9556 24.8569 52.1265C24.7419 51.7841 27.0501 50.1892 27.5985 49.9941C30.3014 49.0324 32.6999 44.2741 35.4677 43.5713C36.3394 47.5127 36.6301 51.5393 38.2308 56.4341C43.7682 53.7006 49.0406 50.716 53.1888 46.2041Z" fill="#F3AE92"/>
<path d="M62.404 44.4361C62.0722 43.6924 61.2847 43.0881 60.4593 43.0863C60.2283 43.0859 60.2154 42.7264 60.4474 42.727C61.4477 42.729 62.3479 43.4339 62.7474 44.3293C62.8417 44.5404 62.4972 44.645 62.404 44.4361Z" fill="#AD7A65"/>
<path d="M61.2259 45.8642C60.9599 45.3827 60.7458 44.3456 60.0589 44.3352C59.8283 44.3316 59.8151 43.9722 60.0471 43.9757C60.953 43.9894 61.1761 45.0314 61.5303 45.6726C61.642 45.8747 61.338 46.067 61.2259 45.8642Z" fill="#AD7A65"/>
<path d="M59.99 47.7081C59.9362 47.2691 59.636 46.3504 59.0627 46.3892C58.8317 46.4049 58.8201 46.0455 59.0509 46.0298C59.8565 45.9753 60.2712 47.0566 60.3494 47.6962C60.3775 47.9258 60.0179 47.9364 59.99 47.7081Z" fill="#AD7A65"/>
<path d="M37.5246 57.5827C36.455 58.1733 35.6421 59.0986 35.2171 60.247C35.1379 60.4613 34.787 60.3803 34.8674 60.1629C35.3251 58.9261 36.1763 57.9171 37.333 57.2784C37.5352 57.1667 37.7275 57.4708 37.5246 57.5827Z" fill="#AD7A65"/>
<path d="M74.2669 36.727C72.4501 39.875 68.4538 47.6859 68.4538 47.6859L61.5259 48.0211C60.8533 48.0536 60.3897 47.3561 60.6803 46.7485L65.5347 36.5963C65.8826 35.8687 66.6187 35.4068 67.4252 35.4097L73.5193 35.4322C74.1835 35.4346 74.5989 36.1517 74.2669 36.727Z" fill="#262626"/>
<path d="M59.0649 62.9004C59.0794 60.7324 60.9747 58.2247 62.1842 56.4253C63.2697 54.8104 64.197 53.9886 65.4266 52.4805C65.9191 51.8764 67.7693 49.7541 67.9071 48.9871C68.0493 48.1945 68.6843 47.1801 68.109 46.5949C67.554 46.0303 65.2085 45.3452 65.8507 44.8399C66.4188 44.5024 68.3624 44.7792 68.8197 45.2562C68.7284 43.733 65.3407 43.4188 66.1901 42.1341C67.1456 42.0365 68.6757 42.5897 69.5459 42.9963C69.3838 41.6384 65.9696 40.3447 67.353 39.6817C68.2722 39.6895 70.0458 40.6472 70.7802 41.2C71.4714 40.4383 67.1222 37.9691 68.548 37.4622C69.4946 37.2588 71.7421 38.2602 72.7138 39.5395C73.6855 40.8187 74.1338 42.235 74.5129 43.796C74.8297 45.1004 74.3104 47.2576 73.6206 48.3048C70.4195 54.8624 71.4661 59.9001 67.4346 64.6975C66.4344 65.8878 63.5334 67.9498 60.9043 67.4622C58.7726 67.0668 59.0505 65.0685 59.0649 62.9004Z" fill="#F3AE92"/>
<path d="M72.0406 41.9247C72.1393 42.2449 72.238 42.565 72.3368 42.8852C72.4045 43.1051 72.0719 43.2425 72.0038 43.0213L71.7076 42.0608C71.6399 41.841 71.9724 41.7035 72.0406 41.9247Z" fill="#AD7A65"/>
<path d="M70.3468 43.3094C70.5424 43.504 70.7667 43.6741 70.9475 43.883C71.1267 44.0901 71.2131 44.3379 71.2752 44.6007C71.3285 44.8255 70.9709 44.8663 70.9181 44.6433C70.8034 44.1582 70.4605 43.9263 70.1244 43.5921C69.962 43.4306 70.1827 43.1463 70.3468 43.3094Z" fill="#AD7A65"/>
<path d="M69.6312 45.2941L69.7948 45.9084C69.8536 46.1294 69.5212 46.2676 69.4618 46.0445C69.4072 45.8397 69.3527 45.6349 69.2982 45.4302C69.2393 45.2091 69.5717 45.071 69.6312 45.2941Z" fill="#AD7A65"/>
<path d="M62.7826 56.1543C61.5066 57.6233 59.3486 59.4537 59.9891 61.6243C60.0542 61.8444 59.7217 61.9821 59.6562 61.7603C58.9598 59.4006 61.1078 57.5347 62.5001 55.9319C62.6515 55.7576 62.9348 55.9791 62.7826 56.1543Z" fill="#AD7A65"/>
<path d="M23.1461 34.9624C22.2938 37.6921 21.8943 41.1588 22.3402 43.9547C22.8444 47.1156 23.3638 50.2755 24.9849 54.7817C25.4494 56.0727 36.798 51.0927 36.7544 50.555C36.293 44.8546 36.2094 40.2172 33.7002 34.9324C32.6004 32.6163 30.3172 29.3791 27.876 30.2317C25.2546 31.1474 23.9401 32.4189 23.1461 34.9624Z" fill="#0A549C"/>
<path d="M36.8526 50.4829C37.6619 49.9218 36.813 48.7205 36.6079 48.1187C36.4525 47.6628 36.3494 47.1904 36.2725 46.7156C36.0784 45.5197 36.0882 44.3046 36.0333 43.0976C35.9111 40.4079 35.2293 37.8383 33.94 35.4705C33.8302 35.2687 34.1266 35.0647 34.2373 35.2679C35.6775 37.9132 36.3094 40.7136 36.416 43.7063C36.4709 45.2482 36.4881 46.8333 37.0532 48.2918C37.3727 49.1164 37.9969 50.1272 37.0552 50.7801C36.8646 50.9123 36.6624 50.6148 36.8526 50.4829Z" fill="#6D99C5"/>
<path d="M32.6011 33.8367C31.9842 33.032 31.2597 32.3357 30.4352 31.746C30.2468 31.6113 30.4843 31.3411 30.6713 31.4747C31.5204 32.0821 32.2634 32.8058 32.8984 33.6342C33.0396 33.8183 32.7414 34.0198 32.6011 33.8367Z" fill="#6D99C5"/>
<path d="M34.7296 156.928L39.5391 161.181C43.8559 163.052 46.61 160.816 46.9949 163.014L47.5702 165.016C47.6145 166.62 43.9159 167.625 42.6567 167.555L34.5946 166.176L33.1987 166.373L32.2348 167.141C30.6483 166.637 27.6708 167.966 27.0139 166.5C26.6634 165.717 27.0568 162.238 27.0771 161.405C27.0771 161.405 27.0312 158.644 27.6988 157.874C29.2897 156.039 32.783 156.311 34.7296 156.928Z" fill="#262626"/>
<path d="M27.8546 158.425C29.3696 162.011 33.9692 162.41 35.1878 160.203C37.1109 146.659 41.9256 132.513 39.9192 113.432C39.9192 113.432 39.3693 108.579 35.2658 108.582C31.1781 108.585 29.531 113.549 29.531 113.549L27.8546 158.425Z" fill="#2F2D2D"/>
<path d="M33.0372 152.745L32.959 159.165C34.3632 163.655 37.8551 164.28 36.4422 166.007L35.3026 167.751C34.1173 168.832 30.9402 166.688 30.1703 165.689L25.9471 158.685L24.8862 157.757L23.6754 157.528C23.0201 155.998 20.0684 154.613 20.7495 153.157C21.1134 152.38 24.0044 150.405 24.6484 149.876C24.6484 149.876 26.7088 148.038 27.7276 148.04C30.1562 148.046 32.2328 150.868 33.0372 152.745Z" fill="#262626"/>
<path d="M26.0606 148.799C25.7743 152.717 29.8678 155.504 32.047 154.234C40.2459 143.495 51.4223 133.766 58.5828 116.134C58.5828 116.134 60.3673 111.628 56.5452 109.453C52.7378 107.287 48.8554 110.723 48.8554 110.723L26.0606 148.799Z" fill="#2F2D2D"/>
</g>
<defs>
<clipPath id="clip0_658_44191">
<rect width="196" height="172" fill="white" transform="translate(0.5)"/>
</clipPath>
<clipPath id="clip1_658_44191">
<rect width="208" height="171" fill="white" transform="translate(20.5)"/>
</clipPath>
</defs>
</svg>
